<svg width="164" height="48" viewBox="0 0 164 48" fill="none" xmlns="http://www.w3.org/2000/svg">
<rect width="164" height="48" fill="#E1203A"/>
<path d="M24.544 36L23.212 30.168H14.644L13.348 36H10.324C10.732 34.416 11.188 32.7 11.692 30.852C12.196 29.004 12.736 27.108 13.312 25.164C13.912 23.22 14.536 21.276 15.184 19.332C15.832 17.364 16.516 15.492 17.236 13.716H20.908C21.604 15.492 22.264 17.364 22.888 19.332C23.536 21.276 24.136 23.22 24.688 25.164C25.264 27.108 25.804 29.004 26.308 30.852C26.812 32.7 27.268 34.416 27.676 36H24.544ZM18.964 16.308C18.412 17.82 17.812 19.572 17.164 21.564C16.516 23.556 15.904 25.608 15.328 27.72H22.528C21.976 25.56 21.376 23.484 20.728 21.492C20.104 19.476 19.516 17.748 18.964 16.308ZM35.344 36.18C34.984 36.18 34.564 36.168 34.084 36.144C33.604 36.12 33.124 36.084 32.644 36.036C32.164 36.012 31.684 35.964 31.204 35.892C30.724 35.82 30.304 35.736 29.944 35.64V14.04C30.304 13.944 30.712 13.86 31.168 13.788C31.648 13.716 32.128 13.668 32.608 13.644C33.112 13.596 33.592 13.56 34.048 13.536C34.528 13.512 34.96 13.5 35.344 13.5C36.448 13.5 37.48 13.596 38.44 13.788C39.4 13.98 40.228 14.304 40.924 14.76C41.644 15.216 42.196 15.816 42.58 16.56C42.988 17.304 43.192 18.228 43.192 19.332C43.192 19.86 43.108 20.376 42.94 20.88C42.772 21.36 42.532 21.816 42.22 22.248C41.932 22.68 41.584 23.064 41.176 23.4C40.792 23.712 40.372 23.952 39.916 24.12C41.14 24.456 42.16 25.08 42.976 25.992C43.816 26.88 44.236 28.044 44.236 29.484C44.236 31.692 43.528 33.36 42.112 34.488C40.696 35.616 38.44 36.18 35.344 36.18ZM32.896 25.596V33.552C32.944 33.576 33.208 33.612 33.688 33.66C34.192 33.684 34.816 33.696 35.56 33.696C36.304 33.696 37.012 33.636 37.684 33.516C38.38 33.396 38.992 33.18 39.52 32.868C40.048 32.532 40.468 32.1 40.78 31.572C41.116 31.044 41.284 30.36 41.284 29.52C41.284 28.776 41.128 28.152 40.816 27.648C40.528 27.144 40.132 26.748 39.628 26.46C39.148 26.148 38.584 25.932 37.936 25.812C37.288 25.668 36.616 25.596 35.92 25.596H32.896ZM32.896 23.148H35.236C35.836 23.148 36.436 23.088 37.036 22.968C37.636 22.848 38.176 22.656 38.656 22.392C39.136 22.128 39.52 21.768 39.808 21.312C40.096 20.856 40.24 20.28 40.24 19.584C40.24 18.936 40.108 18.384 39.844 17.928C39.58 17.472 39.232 17.1 38.8 16.812C38.368 16.524 37.864 16.32 37.288 16.2C36.736 16.08 36.148 16.02 35.524 16.02C34.9 16.02 34.348 16.032 33.868 16.056C33.412 16.056 33.088 16.08 32.896 16.128V23.148ZM47.044 24.84C47.044 22.848 47.236 21.12 47.62 19.656C48.004 18.192 48.544 16.992 49.24 16.056C49.936 15.096 50.764 14.388 51.724 13.932C52.708 13.452 53.8 13.212 55 13.212C56.176 13.212 57.256 13.452 58.24 13.932C59.224 14.388 60.064 15.096 60.76 16.056C61.456 16.992 61.996 18.192 62.38 19.656C62.788 21.12 62.992 22.848 62.992 24.84C62.992 26.832 62.788 28.56 62.38 30.024C61.996 31.488 61.456 32.7 60.76 33.66C60.064 34.62 59.224 35.328 58.24 35.784C57.256 36.24 56.176 36.468 55 36.468C53.8 36.468 52.708 36.24 51.724 35.784C50.764 35.328 49.936 34.62 49.24 33.66C48.544 32.7 48.004 31.488 47.62 30.024C47.236 28.56 47.044 26.832 47.044 24.84ZM50.068 24.84C50.068 27.768 50.464 30.012 51.256 31.572C52.048 33.132 53.272 33.912 54.928 33.912C56.608 33.912 57.868 33.132 58.708 31.572C59.548 30.012 59.968 27.768 59.968 24.84C59.968 21.912 59.548 19.668 58.708 18.108C57.868 16.548 56.608 15.768 54.928 15.768C53.272 15.768 52.048 16.548 51.256 18.108C50.464 19.668 50.068 21.912 50.068 24.84ZM73 36.468C71.68 36.468 70.552 36.276 69.616 35.892C68.704 35.508 67.96 34.968 67.384 34.272C66.808 33.576 66.388 32.724 66.124 31.716C65.86 30.708 65.728 29.58 65.728 28.332V13.716H68.68V28.008C68.68 29.136 68.776 30.084 68.968 30.852C69.184 31.596 69.472 32.196 69.832 32.652C70.216 33.108 70.672 33.432 71.2 33.624C71.728 33.816 72.328 33.912 73 33.912C73.672 33.912 74.272 33.816 74.8 33.624C75.328 33.432 75.772 33.108 76.132 32.652C76.516 32.196 76.804 31.596 76.996 30.852C77.212 30.084 77.32 29.136 77.32 28.008V13.716H80.272V28.332C80.272 29.58 80.14 30.708 79.876 31.716C79.612 32.724 79.192 33.576 78.616 34.272C78.04 34.968 77.284 35.508 76.348 35.892C75.436 36.276 74.32 36.468 73 36.468ZM98.596 13.716V16.236H92.476V36H89.524V16.236H83.404V13.716H98.596ZM127 36.468C125.68 36.468 124.552 36.276 123.616 35.892C122.704 35.508 121.96 34.968 121.384 34.272C120.808 33.576 120.388 32.724 120.124 31.716C119.86 30.708 119.728 29.58 119.728 28.332V13.716H122.68V28.008C122.68 29.136 122.776 30.084 122.968 30.852C123.184 31.596 123.472 32.196 123.832 32.652C124.216 33.108 124.672 33.432 125.2 33.624C125.728 33.816 126.328 33.912 127 33.912C127.672 33.912 128.272 33.816 128.8 33.624C129.328 33.432 129.772 33.108 130.132 32.652C130.516 32.196 130.804 31.596 130.996 30.852C131.212 30.084 131.32 29.136 131.32 28.008V13.716H134.272V28.332C134.272 29.58 134.14 30.708 133.876 31.716C133.612 32.724 133.192 33.576 132.616 34.272C132.04 34.968 131.284 35.508 130.348 35.892C129.436 36.276 128.32 36.468 127 36.468ZM144.424 33.912C145.936 33.912 147.088 33.624 147.88 33.048C148.672 32.472 149.068 31.608 149.068 30.456C149.068 29.76 148.924 29.172 148.636 28.692C148.348 28.188 147.964 27.756 147.484 27.396C147.004 27.012 146.464 26.688 145.864 26.424C145.264 26.136 144.652 25.872 144.028 25.632C143.308 25.344 142.612 25.02 141.94 24.66C141.292 24.3 140.704 23.88 140.176 23.4C139.672 22.92 139.264 22.356 138.952 21.708C138.664 21.06 138.52 20.292 138.52 19.404C138.52 17.46 139.132 15.948 140.356 14.868C141.58 13.764 143.284 13.212 145.468 13.212C146.068 13.212 146.656 13.26 147.232 13.356C147.832 13.428 148.384 13.524 148.888 13.644C149.392 13.764 149.836 13.908 150.22 14.076C150.628 14.244 150.952 14.412 151.192 14.58L150.256 17.064C149.776 16.776 149.116 16.488 148.276 16.2C147.436 15.912 146.5 15.768 145.468 15.768C144.388 15.768 143.452 16.044 142.66 16.596C141.868 17.124 141.472 17.928 141.472 19.008C141.472 19.632 141.58 20.16 141.796 20.592C142.036 21.024 142.348 21.408 142.732 21.744C143.14 22.056 143.608 22.344 144.136 22.608C144.664 22.872 145.24 23.136 145.864 23.4C146.776 23.784 147.604 24.168 148.348 24.552C149.116 24.936 149.764 25.392 150.292 25.92C150.844 26.448 151.264 27.072 151.552 27.792C151.864 28.512 152.02 29.388 152.02 30.42C152.02 32.364 151.36 33.864 150.04 34.92C148.744 35.952 146.872 36.468 144.424 36.468C143.632 36.468 142.888 36.408 142.192 36.288C141.496 36.192 140.872 36.06 140.32 35.892C139.792 35.724 139.324 35.556 138.916 35.388C138.508 35.22 138.196 35.064 137.98 34.92L138.88 32.472C139.36 32.736 140.068 33.048 141.004 33.408C141.94 33.744 143.08 33.912 144.424 33.912Z" fill="#130108"/>
</svg>
