<svg width="28" height="96" viewBox="0 0 28 96" fill="none" xmlns="http://www.w3.org/2000/svg">
<path d="M16.9765 13.7694V0.15802H14.0482L14.0482 12.4065L3.01633 24.8047L3.01633 3.28247H6.46209V0.000183105H0.0957031L0.0957031 32.7319L16.9765 13.7694Z" fill="white" fill-opacity="0.3"/>
<path d="M0 47.6865L0 95.5254H2.92821L2.92821 49.0494L27.1586 21.8185L27.1586 0.371155H24.2378L24.2378 20.4556L0 47.6865Z" fill="white" fill-opacity="0.3"/>
<path d="M27.0155 35.8772L9.61719 55.4216L9.61719 71.8333L18.6159 61.7204L16.5529 59.3937L12.538 63.9058L12.538 56.7845L24.0875 43.8047L24.0875 65.3849L9.78742 81.4643L11.8502 83.7827L27.0155 66.7478V35.8772Z" fill="white" fill-opacity="0.3"/>
</svg>
