<svg width="286" height="86" viewBox="0 0 286 86" fill="none" xmlns="http://www.w3.org/2000/svg">
<mask id="path-1-inside-1_4_1343" fill="white">
<path fill-rule="evenodd" clip-rule="evenodd" d="M262.453 0L286 23.5471V0H262.453ZM23.5471 85.3613L0 61.8142V85.3613H23.5471ZM262.456 85.3584L262.453 85.3613H286V85.3584V61.8142V42.6792L243.186 0H23.5471H0V23.5471V42.6792L42.8144 85.3584H262.456Z"/>
</mask>
<path fill-rule="evenodd" clip-rule="evenodd" d="M262.453 0L286 23.5471V0H262.453ZM23.5471 85.3613L0 61.8142V85.3613H23.5471ZM262.456 85.3584L262.453 85.3613H286V85.3584V61.8142V42.6792L243.186 0H23.5471H0V23.5471V42.6792L42.8144 85.3584H262.456Z" fill="#FF1C6E" fill-opacity="0.3"/>
<path d="M286 23.5471L283.919 25.6284L288.943 30.6531V23.5471H286ZM262.453 0V-2.94339H255.347L260.372 2.08129L262.453 0ZM286 0H288.943V-2.94339H286V0ZM0 61.8142L2.08129 59.7329L-2.94339 54.7082L-2.94339 61.8142H0ZM23.5471 85.3613V88.3047H30.6531L25.6284 83.28L23.5471 85.3613ZM0 85.3613H-2.94339V88.3047H0V85.3613ZM262.453 85.3613L260.369 83.2827L255.36 88.3047H262.453V85.3613ZM262.456 85.3584L264.54 87.437L269.549 82.415H262.456V85.3584ZM286 85.3613V88.3047H288.943V85.3613H286ZM286 42.6792H288.943V41.4573L288.078 40.5946L286 42.6792ZM243.186 0L245.264 -2.08458L244.402 -2.94339H243.186V0ZM0 0V-2.94339H-2.94339V0H0ZM0 42.6792H-2.94339V43.9011L-2.078 44.7638L0 42.6792ZM42.8144 85.3584L40.7364 87.443L41.598 88.3018H42.8144V85.3584ZM288.081 21.4658L264.534 -2.08129L260.372 2.08129L283.919 25.6284L288.081 21.4658ZM283.057 0V23.5471H288.943V0H283.057ZM262.453 2.94339H286V-2.94339H262.453V2.94339ZM-2.08129 63.8955L21.4658 87.4426L25.6284 83.28L2.08129 59.7329L-2.08129 63.8955ZM2.94339 85.3613V61.8142H-2.94339V85.3613H2.94339ZM23.5471 82.4179H0V88.3047H23.5471V82.4179ZM264.537 87.4399L264.54 87.437L260.372 83.2798L260.369 83.2827L264.537 87.4399ZM286 82.4179H262.453V88.3047H286V82.4179ZM283.057 85.3584V85.3613H288.943V85.3584H283.057ZM283.057 61.8142V85.3584H288.943V61.8142H283.057ZM283.057 42.6792V61.8142H288.943V42.6792H283.057ZM241.108 2.08458L283.922 44.7638L288.078 40.5946L245.264 -2.08458L241.108 2.08458ZM23.5471 2.94339H243.186V-2.94339H23.5471V2.94339ZM0 2.94339H23.5471V-2.94339H0V2.94339ZM2.94339 23.5471V0H-2.94339V23.5471H2.94339ZM2.94339 42.6792V23.5471H-2.94339V42.6792H2.94339ZM44.8924 83.2738L2.078 40.5946L-2.078 44.7638L40.7364 87.443L44.8924 83.2738ZM262.456 82.415H42.8144V88.3018H262.456V82.415Z" fill="#FF1C6E" mask="url(#path-1-inside-1_4_1343)"/>
</svg>
