<svg width="343" height="1168" viewBox="0 0 343 1168" fill="none" xmlns="http://www.w3.org/2000/svg">
<path d="M319 1168H343V1157H155L159.5 1161H222L228 1168H257.25H286.5L285 1165H317L319 1168Z" fill="#E1203A"/>
<rect width="343" height="1139" transform="translate(0 14)" fill="#E1203A" fill-opacity="0.1"/>
<path d="M18.4615 1164H0L0 1153H100V1157L88.4615 1164H61.5385V1156H58.4615V1164H55.3846V1156H52.3077V1164H49.2308V1156H46.0969V1164H32.3077V1161H18.4615V1164Z" fill="#E1203A"/>
<path d="M24 0L0 0L0 11L188 11L183.5 7L121 7L115 0L85.75 0L56.5 0L58 3L26 3L24 0Z" fill="#E1203A"/>
<path d="M324.538 3H343V14L243 14V10L254.538 3H281.462V11H284.538V3L287.615 3V11L290.692 11V3H293.769V11H296.903V3H310.692V6L324.538 6V3Z" fill="#E1203A"/>
<line x1="1.74846e-07" y1="12" x2="243" y2="12" stroke="#E1203A" stroke-width="4"/>
<line x1="100" y1="1155" x2="343" y2="1155" stroke="#E1203A" stroke-width="4"/>
</svg>
