<svg width="288" height="1165" viewBox="0 0 288 1165" fill="none" xmlns="http://www.w3.org/2000/svg">
<path d="M263.362 1161H288V1150H95L99.6197 1154H163.782L169.941 1161H199.969H229.997L228.457 1158H261.309L263.362 1161Z" fill="#E1203A"/>
<rect width="288" height="1139" transform="translate(0 11)" fill="#E1203A" fill-opacity="0.1"/>
<path d="M18.4615 1161H0L0 1150H100V1154L88.4615 1161H61.5385V1153H58.4615V1161H55.3846V1153H52.3077V1161H49.2308V1153H46.0969V1161H32.3077V1158H18.4615V1161Z" fill="#E1203A"/>
<path d="M24.6383 0L0 0L0 11L193 11L188.38 7L124.218 7L118.059 0L88.0306 0L58.0027 0L59.5426 3L26.6915 3L24.6383 0Z" fill="#E1203A"/>
<path d="M269.538 0H288V11L188 11V7L199.538 0H226.462V8H229.538V0L232.615 0V8L235.692 8V0H238.769V8H241.903V0H255.692V3L269.538 3V0Z" fill="#E1203A"/>
</svg>
