<svg width="36" height="36" viewBox="0 0 36 36" fill="none" xmlns="http://www.w3.org/2000/svg">
<circle opacity="0.3" cx="18" cy="18" r="17" stroke="#1CE4FF" stroke-width="2"/>
<path d="M24.6683 14.5181L24.6871 14.6406C24.5058 13.9975 24.0164 13.5013 23.3946 13.3206L23.3814 13.3175C22.2121 13 17.5064 13 17.5064 13C17.5064 13 12.8127 12.9938 11.6314 13.3175C10.9977 13.5013 10.5077 13.9975 10.3296 14.6275L10.3264 14.6406C9.88956 16.9225 9.88643 19.6644 10.3458 22.1075L10.3264 21.9838C10.5077 22.6269 10.9971 23.1231 11.6189 23.3038L11.6321 23.3069C12.8002 23.625 17.5071 23.625 17.5071 23.625C17.5071 23.625 22.2002 23.625 23.3821 23.3069C24.0164 23.1231 24.5064 22.6269 24.6846 21.9969L24.6877 21.9838C24.8864 20.9225 25.0002 19.7013 25.0002 18.4538C25.0002 18.4081 25.0002 18.3619 24.9996 18.3156C25.0002 18.2731 25.0002 18.2225 25.0002 18.1719C25.0002 16.9238 24.8864 15.7025 24.6683 14.5181V14.5181ZM16.0052 20.5944V16.0363L19.9214 18.3188L16.0052 20.5944Z" fill="#1CE4FF"/>
</svg>
