<svg width="36" height="36" viewBox="0 0 36 36" fill="none" xmlns="http://www.w3.org/2000/svg">
<circle opacity="0.3" cx="18" cy="18" r="17" stroke="#1CE4FF" stroke-width="2"/>
<path d="M23.5615 14.8368C24.1308 14.4325 24.6097 13.9279 25 13.3469V13.3463C24.4791 13.5744 23.9249 13.7261 23.3463 13.7996C23.9413 13.4443 24.3957 12.8861 24.6092 12.2135C24.0544 12.5442 23.4419 12.7776 22.7892 12.9083C22.2624 12.3471 21.5117 12 20.6927 12C19.1037 12 17.8244 13.2898 17.8244 14.8706C17.8244 15.0981 17.8437 15.3168 17.8909 15.5251C15.5051 15.4084 13.3934 14.2651 11.9747 12.5227C11.7274 12.9526 11.5816 13.4443 11.5816 13.9734C11.5816 14.9674 12.0932 15.8483 12.8567 16.3587C12.3953 16.3499 11.9432 16.2158 11.56 16.0052V16.0367C11.56 17.4314 12.5546 18.5899 13.8595 18.8571C13.6256 18.9213 13.3712 18.9516 13.107 18.9516C12.9232 18.9516 12.7377 18.9411 12.5639 18.9026C12.9355 20.0389 13.9913 20.8748 15.2455 20.9023C14.269 21.6658 13.0288 22.1261 11.6866 22.1261C11.4515 22.1261 11.2257 22.1156 11 22.087C12.2717 22.9066 13.7778 23.375 15.403 23.375C20.4681 23.375 23.7692 19.1493 23.5615 14.8368V14.8368Z" fill="#1CE4FF"/>
</svg>
