<svg width="36" height="36" viewBox="0 0 36 36" fill="none" xmlns="http://www.w3.org/2000/svg">
<circle opacity="0.3" cx="18" cy="18" r="17" stroke="#1CE4FF" stroke-width="2"/>
<path fill-rule="evenodd" clip-rule="evenodd" d="M16.5717 15.2268H19.3572V16.6143C19.7585 15.8163 20.7875 15.0993 22.3333 15.0993C25.2965 15.0993 26 16.6878 26 19.6023V25H23V20.266C23 18.6062 22.5988 17.6703 21.5773 17.6703C20.1605 17.6703 19.5717 18.679 19.5717 20.2653V25H16.5717V15.2268V15.2268ZM11.4275 24.8725H14.4275V15.0993H11.4275V24.8725V24.8725ZM14.8573 11.9125C14.8574 12.164 14.8075 12.4129 14.7105 12.6449C14.6136 12.877 14.4715 13.0874 14.2925 13.264C13.9298 13.6245 13.4389 13.8262 12.9275 13.825C12.417 13.8247 11.9272 13.6234 11.564 13.2648C11.3857 13.0875 11.244 12.8769 11.1473 12.6448C11.0505 12.4128 11.0004 12.1639 11 11.9125C11 11.4048 11.2025 10.9188 11.5648 10.5603C11.9277 10.2011 12.4177 9.99978 12.9283 10C13.4398 10 13.9302 10.2018 14.2925 10.5603C14.654 10.9188 14.8573 11.4048 14.8573 11.9125Z" fill="#1CE4FF"/>
</svg>
