<svg width="36" height="36" viewBox="0 0 36 36" fill="none" xmlns="http://www.w3.org/2000/svg">
<path d="M18 15.6567C16.7098 15.6567 15.6569 16.7097 15.6569 17.9999C15.6569 19.2901 16.7098 20.3431 18 20.3431C19.2903 20.3431 20.3432 19.2901 20.3432 17.9999C20.3432 16.7097 19.2903 15.6567 18 15.6567ZM25.0278 17.9999C25.0278 17.0296 25.0365 16.0681 24.9821 15.0995C24.9276 13.9745 24.6709 12.9761 23.8483 12.1534C23.0239 11.329 22.0272 11.0741 20.9022 11.0196C19.9319 10.9651 18.9703 10.9739 18.0018 10.9739C17.0315 10.9739 16.0699 10.9651 15.1014 11.0196C13.9764 11.0741 12.978 11.3307 12.1553 12.1534C11.3309 12.9778 11.076 13.9745 11.0215 15.0995C10.967 16.0698 10.9758 17.0313 10.9758 17.9999C10.9758 18.9684 10.967 19.9317 11.0215 20.9003C11.076 22.0253 11.3326 23.0237 12.1553 23.8464C12.9797 24.6708 13.9764 24.9257 15.1014 24.9802C16.0717 25.0347 17.0332 25.0259 18.0018 25.0259C18.9721 25.0259 19.9336 25.0347 20.9022 24.9802C22.0272 24.9257 23.0256 24.669 23.8483 23.8464C24.6727 23.022 24.9276 22.0253 24.9821 20.9003C25.0383 19.9317 25.0278 18.9702 25.0278 17.9999V17.9999ZM18 21.6052C16.0049 21.6052 14.3947 19.995 14.3947 17.9999C14.3947 16.0048 16.0049 14.3946 18 14.3946C19.9951 14.3946 21.6053 16.0048 21.6053 17.9999C21.6053 19.995 19.9951 21.6052 18 21.6052ZM21.753 15.089C21.2871 15.089 20.911 14.7128 20.911 14.247C20.911 13.7811 21.2871 13.405 21.753 13.405C22.2188 13.405 22.5949 13.7811 22.5949 14.247C22.5951 14.3576 22.5734 14.4671 22.5311 14.5693C22.4889 14.6716 22.4269 14.7644 22.3486 14.8426C22.2704 14.9209 22.1776 14.9829 22.0753 15.0251C21.9731 15.0674 21.8636 15.0891 21.753 15.089V15.089Z" fill="#1CE4FF"/>
<circle opacity="0.3" cx="18" cy="18" r="17" stroke="#1CE4FF" stroke-width="2"/>
</svg>
