<svg width="750" height="100" viewBox="0 0 750 100" fill="none" xmlns="http://www.w3.org/2000/svg">
<path fill-rule="evenodd" clip-rule="evenodd" d="M67 9.42588L62.6699 5.09575L67 0.765625L70.5801 4.34575H742.5L750 0.765625V9.42588L742.5 5.84575H70.5801L67 9.42588ZM67 99.3321L62.6699 95.002L67 90.6719L70.5801 94.252H742.5L750 90.6719V99.3321L742.5 95.752H70.5801L67 99.3321ZM113.921 50.4835H107.224L97.8945 39.9939H113.999V43.9499H112.384V41.8087H101.795L107.895 48.6639H113.921V50.4835ZM90.5367 39.9346H67V41.7542H89.8662L103.264 56.8108H113.816V54.9958H103.934L90.5367 39.9346ZM86.731 45.9115L96.3469 56.7227H81.1585L72.7773 47.2991L73.918 46.0173L81.8291 54.9033H92.4466L86.0605 47.7265H82.5568L84.7768 50.2214L83.632 51.5033L78.6565 45.9115H86.731ZM39 48.8277L1.33832 5.09575L0 6.6498L36.4028 48.9251L0 91.2004L1.33832 92.7544L39 49.0225V48.8277ZM41 4.08635L24.8357 20.8292L10 5.46733L11.3336 4.08635L11.4444 3.97173L11.5551 4.08635L24.8357 17.8381L38.1114 4.08635H41ZM52 3.97173H49.1061L29 24.9394L30.4469 26.4483L52 3.97173ZM35.4758 65.7828L34 64.1893L48.1359 48.9254L34 33.6616L35.4758 32.0679L51 48.8311V49.0198L35.4758 65.7828ZM10 92.3829L11.2126 93.6336L11.4503 93.8785L11.6877 93.6336L24.8961 80.0121L38.0996 93.6336H41L24.8961 77.021L10 92.3829ZM49.0901 93.8785L29 72.9197L30.4549 71.4019L52 93.8785H49.0901Z" fill="white" fill-opacity="0.5"/>
</svg>
