<svg width="752" height="100" viewBox="0 0 752 100" fill="none" xmlns="http://www.w3.org/2000/svg">
<path fill-rule="evenodd" clip-rule="evenodd" d="M0 0.765625L7.5 4.34575H679.42L683 0.765625L687.33 5.09575L683 9.42588L679.42 5.84575H7.5L0 9.42588V0.765625ZM0 90.6719L7.5 94.252H679.42L683 90.6719L687.33 95.002L683 99.3321L679.42 95.752H7.5L0 99.3321V90.6719ZM636.079 50.4833H642.776L652.105 39.9937H636.001V43.9497H637.616V41.8086H648.205L642.105 48.6637H636.079V50.4833ZM659.463 39.9346H683V41.7542H660.134L646.736 56.8108H636.184V54.9958H646.066L659.463 39.9346ZM663.269 45.9117L653.653 56.7229H668.841L677.223 47.2993L676.082 46.0175L668.171 54.9034H657.553L663.94 47.7266H667.443L665.223 50.2215L666.368 51.5034L671.344 45.9117H663.269ZM752 6.6498L750.627 5.09575L712 48.8277V49.0225L750.627 92.7544L752 91.2004L714.664 48.9251L752 6.6498ZM739.753 4.08635L741 5.46733L727.121 20.8292L712 4.08635H714.702L727.121 17.8381L739.545 4.08635L739.649 3.97173L739.753 4.08635ZM722 24.9394L701.894 3.97173H699L720.553 26.4483L722 24.9394ZM702.864 48.9254L717 64.1893L715.524 65.7828L700 49.0198V48.8311L715.524 32.0679L717 33.6616L702.864 48.9254ZM712 93.6336H714.713L727.065 80.0121L739.421 93.6336L739.643 93.8785L739.866 93.6336L741 92.3829L727.065 77.021L712 93.6336ZM700 93.8785L720.608 71.4019L722 72.9197L702.783 93.8785H700Z" fill="white" fill-opacity="0.5"/>
</svg>
