<svg width="92" height="48" viewBox="0 0 92 48" fill="none" xmlns="http://www.w3.org/2000/svg">
<rect width="92" height="48" fill="#FFD700"/>
<path d="M20.476 16.236V33.48H24.796V36H13.204V33.48H17.524V16.236H13.204V13.716H24.796V16.236H20.476ZM40.996 36C40.18 34.008 39.412 32.208 38.692 30.6C37.972 28.968 37.276 27.444 36.604 26.028C35.956 24.612 35.308 23.28 34.66 22.032C34.012 20.76 33.352 19.488 32.68 18.216V36H29.98V13.716H33.004C33.988 15.516 34.84 17.088 35.56 18.432C36.304 19.776 36.976 21.084 37.576 22.356C38.2 23.604 38.8 24.9 39.376 26.244C39.952 27.564 40.6 29.1 41.32 30.852V13.716H44.02V36H40.996ZM49.276 36V13.716H61.912V16.236H52.228V23.184H60.76V25.668H52.228V36H49.276ZM65.044 24.84C65.044 22.848 65.236 21.12 65.62 19.656C66.004 18.192 66.544 16.992 67.24 16.056C67.936 15.096 68.764 14.388 69.724 13.932C70.708 13.452 71.8 13.212 73 13.212C74.176 13.212 75.256 13.452 76.24 13.932C77.224 14.388 78.064 15.096 78.76 16.056C79.456 16.992 79.996 18.192 80.38 19.656C80.788 21.12 80.992 22.848 80.992 24.84C80.992 26.832 80.788 28.56 80.38 30.024C79.996 31.488 79.456 32.7 78.76 33.66C78.064 34.62 77.224 35.328 76.24 35.784C75.256 36.24 74.176 36.468 73 36.468C71.8 36.468 70.708 36.24 69.724 35.784C68.764 35.328 67.936 34.62 67.24 33.66C66.544 32.7 66.004 31.488 65.62 30.024C65.236 28.56 65.044 26.832 65.044 24.84ZM68.068 24.84C68.068 27.768 68.464 30.012 69.256 31.572C70.048 33.132 71.272 33.912 72.928 33.912C74.608 33.912 75.868 33.132 76.708 31.572C77.548 30.012 77.968 27.768 77.968 24.84C77.968 21.912 77.548 19.668 76.708 18.108C75.868 16.548 74.608 15.768 72.928 15.768C71.272 15.768 70.048 16.548 69.256 18.108C68.464 19.668 68.068 21.912 68.068 24.84Z" fill="#130108"/>
</svg>
