<svg width="311" height="322" viewBox="0 0 311 322" fill="none" xmlns="http://www.w3.org/2000/svg">
<line x1="-1.74846e-07" y1="313" x2="181" y2="313" stroke="#FF1C6E" stroke-width="4"/>
<line x1="98" y1="9" x2="311" y2="9.00002" stroke="#FF1C6E" stroke-width="4"/>
<rect width="311" height="300" transform="translate(0 11)" fill="#FF1C6E" fill-opacity="0.1"/>
<path d="M76.6638 122.47C75.3678 121.198 74.7198 119.608 74.7198 117.7C74.7198 115.792 75.3678 114.208 76.6638 112.948C77.9718 111.676 79.6338 111.04 81.6498 111.04C83.9178 111.04 85.6578 111.838 86.8698 113.434C87.4218 114.142 87.8118 114.934 88.0398 115.81H85.2498C85.0938 115.402 84.8538 115.03 84.5298 114.694C83.7738 113.938 82.8138 113.56 81.6498 113.56C80.4738 113.56 79.5018 113.95 78.7338 114.73C77.9778 115.498 77.5998 116.488 77.5998 117.7C77.5998 118.96 77.9658 119.968 78.6978 120.724C79.4418 121.468 80.4258 121.84 81.6498 121.84C82.8738 121.84 83.8578 121.42 84.6018 120.58C84.9378 120.184 85.1838 119.764 85.3398 119.32H88.1298C87.8538 120.268 87.4398 121.108 86.8878 121.84C85.5918 123.52 83.8458 124.36 81.6498 124.36C79.6338 124.36 77.9718 123.73 76.6638 122.47ZM89.6521 124V114.82H92.1721V116.17H92.2621C92.3701 115.882 92.5321 115.63 92.7481 115.414C93.2401 114.898 93.8581 114.64 94.6021 114.64H95.6821V117.07H94.3321C93.6481 117.07 93.1141 117.256 92.7301 117.628C92.3581 117.988 92.1721 118.492 92.1721 119.14V124H89.6521ZM96.137 114.82H98.747L100.547 121.84H101.267L103.247 114.82H105.857L102.167 127.42H99.557L100.547 124H98.567L96.137 114.82ZM106.844 127.42V114.82H109.364V115.99H109.454C109.646 115.738 109.88 115.498 110.156 115.27C110.804 114.79 111.53 114.55 112.334 114.55C113.534 114.55 114.536 115 115.34 115.9C116.156 116.788 116.564 117.958 116.564 119.41C116.564 120.862 116.156 122.038 115.34 122.938C114.536 123.826 113.534 124.27 112.334 124.27C111.53 124.27 110.804 124.03 110.156 123.55C109.88 123.322 109.646 123.082 109.454 122.83H109.364V127.42H106.844ZM110.012 117.43C109.58 117.898 109.364 118.558 109.364 119.41C109.364 120.262 109.58 120.928 110.012 121.408C110.444 121.876 111.008 122.11 111.704 122.11C112.364 122.11 112.904 121.87 113.324 121.39C113.744 120.91 113.954 120.25 113.954 119.41C113.954 118.57 113.744 117.91 113.324 117.43C112.904 116.95 112.364 116.71 111.704 116.71C111.008 116.71 110.444 116.95 110.012 117.43ZM117.374 116.98V114.82H118.544V112.84H121.064V114.82H123.656V116.98H121.064V121.84H123.764V124H118.544V116.98H117.374ZM126.095 122.866C125.135 121.918 124.655 120.766 124.655 119.41C124.655 118.054 125.135 116.908 126.095 115.972C127.055 115.024 128.255 114.55 129.695 114.55C131.123 114.55 132.317 115.024 133.277 115.972C134.249 116.908 134.735 118.054 134.735 119.41C134.735 120.766 134.249 121.918 133.277 122.866C132.317 123.802 131.123 124.27 129.695 124.27C128.255 124.27 127.055 123.802 126.095 122.866ZM127.967 117.466C127.499 117.97 127.265 118.618 127.265 119.41C127.265 120.202 127.499 120.85 127.967 121.354C128.435 121.858 129.011 122.11 129.695 122.11C130.379 122.11 130.955 121.858 131.423 121.354C131.891 120.85 132.125 120.202 132.125 119.41C132.125 118.618 131.891 117.97 131.423 117.466C130.955 116.962 130.379 116.71 129.695 116.71C129.011 116.71 128.435 116.962 127.967 117.466ZM137.765 122.47C136.469 121.198 135.821 119.608 135.821 117.7C135.821 115.792 136.469 114.208 137.765 112.948C139.073 111.676 140.735 111.04 142.751 111.04C145.019 111.04 146.759 111.838 147.971 113.434C148.523 114.142 148.913 114.934 149.141 115.81H146.351C146.195 115.402 145.955 115.03 145.631 114.694C144.875 113.938 143.915 113.56 142.751 113.56C141.575 113.56 140.603 113.95 139.835 114.73C139.079 115.498 138.701 116.488 138.701 117.7C138.701 118.96 139.067 119.968 139.799 120.724C140.543 121.468 141.527 121.84 142.751 121.84C143.975 121.84 144.959 121.42 145.703 120.58C146.039 120.184 146.285 119.764 146.441 119.32H149.231C148.955 120.268 148.541 121.108 147.989 121.84C146.693 123.52 144.947 124.36 142.751 124.36C140.735 124.36 139.073 123.73 137.765 122.47ZM150.754 124V114.82H153.274V116.17H153.364C153.472 115.882 153.634 115.63 153.85 115.414C154.342 114.898 154.96 114.64 155.704 114.64H156.784V117.07H155.434C154.75 117.07 154.216 117.256 153.832 117.628C153.46 117.988 153.274 118.492 153.274 119.14V124H150.754ZM158.931 122.866C157.983 121.918 157.509 120.766 157.509 119.41C157.509 118.054 157.983 116.908 158.931 115.972C159.891 115.024 161.067 114.55 162.459 114.55C163.875 114.55 165.039 115.018 165.951 115.954C166.863 116.89 167.319 118.042 167.319 119.41V119.95H160.119C160.215 120.55 160.485 121.06 160.929 121.48C161.373 121.9 161.883 122.11 162.459 122.11C163.095 122.11 163.641 121.93 164.097 121.57C164.277 121.414 164.421 121.234 164.529 121.03H167.229C167.025 121.642 166.725 122.182 166.329 122.65C165.369 123.73 164.079 124.27 162.459 124.27C161.067 124.27 159.891 123.802 158.931 122.866ZM160.209 118.42H164.619C164.523 117.94 164.277 117.538 163.881 117.214C163.497 116.878 163.023 116.71 162.459 116.71C161.895 116.71 161.415 116.872 161.019 117.196C160.623 117.52 160.353 117.928 160.209 118.42ZM169.598 122.938C168.794 122.038 168.392 120.862 168.392 119.41C168.392 117.958 168.794 116.788 169.598 115.9C170.414 115 171.422 114.55 172.622 114.55C173.426 114.55 174.152 114.79 174.8 115.27C175.076 115.498 175.31 115.738 175.502 115.99H175.592V114.82H178.112V124H175.592V122.83H175.502C175.31 123.082 175.076 123.322 174.8 123.55C174.152 124.03 173.426 124.27 172.622 124.27C171.422 124.27 170.414 123.826 169.598 122.938ZM171.632 117.43C171.212 117.91 171.002 118.57 171.002 119.41C171.002 120.25 171.212 120.91 171.632 121.39C172.052 121.87 172.592 122.11 173.252 122.11C173.948 122.11 174.512 121.876 174.944 121.408C175.376 120.928 175.592 120.262 175.592 119.41C175.592 118.558 175.376 117.898 174.944 117.43C174.512 116.95 173.948 116.71 173.252 116.71C172.592 116.71 172.052 116.95 171.632 117.43ZM179.372 116.98V114.82H180.542V112.84H183.062V114.82H185.654V116.98H183.062V121.84H185.762V124H180.542V116.98H179.372ZM187.193 120.4V114.82H189.713V120.04C189.713 120.712 189.875 121.228 190.199 121.588C190.535 121.936 191.003 122.11 191.603 122.11C192.203 122.11 192.713 121.882 193.133 121.426C193.553 120.97 193.763 120.388 193.763 119.68V114.82H196.283V124H193.763V122.74H193.673C193.529 123.016 193.307 123.274 193.007 123.514C192.359 124.018 191.621 124.27 190.793 124.27C189.653 124.27 188.765 123.94 188.129 123.28C187.505 122.62 187.193 121.66 187.193 120.4ZM198.267 124V114.82H200.787V116.17H200.877C200.985 115.882 201.147 115.63 201.363 115.414C201.855 114.898 202.473 114.64 203.217 114.64H204.297V117.07H202.947C202.263 117.07 201.729 117.256 201.345 117.628C200.973 117.988 200.787 118.492 200.787 119.14V124H198.267ZM206.444 122.866C205.496 121.918 205.022 120.766 205.022 119.41C205.022 118.054 205.496 116.908 206.444 115.972C207.404 115.024 208.58 114.55 209.972 114.55C211.388 114.55 212.552 115.018 213.464 115.954C214.376 116.89 214.832 118.042 214.832 119.41V119.95H207.632C207.728 120.55 207.998 121.06 208.442 121.48C208.886 121.9 209.396 122.11 209.972 122.11C210.608 122.11 211.154 121.93 211.61 121.57C211.79 121.414 211.934 121.234 212.042 121.03H214.742C214.538 121.642 214.238 122.182 213.842 122.65C212.882 123.73 211.592 124.27 209.972 124.27C208.58 124.27 207.404 123.802 206.444 122.866ZM207.722 118.42H212.132C212.036 117.94 211.79 117.538 211.394 117.214C211.01 116.878 210.536 116.71 209.972 116.71C209.408 116.71 208.928 116.872 208.532 117.196C208.136 117.52 207.866 117.928 207.722 118.42ZM215.725 121.03H218.335C218.419 121.246 218.551 121.444 218.731 121.624C219.115 122.008 219.643 122.2 220.315 122.2C221.335 122.2 221.845 121.9 221.845 121.3C221.845 121.204 221.821 121.12 221.773 121.048C221.725 120.964 221.641 120.892 221.521 120.832C221.401 120.76 221.287 120.7 221.179 120.652C221.071 120.604 220.909 120.556 220.693 120.508C220.489 120.448 220.321 120.406 220.189 120.382C220.069 120.358 219.871 120.316 219.595 120.256C219.331 120.196 219.139 120.154 219.019 120.13C217.123 119.722 216.175 118.792 216.175 117.34C216.175 116.572 216.517 115.918 217.201 115.378C217.897 114.826 218.845 114.55 220.045 114.55C221.653 114.55 222.859 115.048 223.663 116.044C224.011 116.476 224.245 116.968 224.365 117.52H221.845C221.761 117.34 221.653 117.19 221.521 117.07C221.149 116.77 220.657 116.62 220.045 116.62C219.613 116.62 219.295 116.692 219.091 116.836C218.887 116.968 218.785 117.136 218.785 117.34C218.785 117.412 218.797 117.484 218.821 117.556C218.857 117.616 218.911 117.676 218.983 117.736C219.055 117.784 219.127 117.832 219.199 117.88C219.271 117.916 219.373 117.958 219.505 118.006C219.637 118.042 219.751 118.078 219.847 118.114C219.955 118.15 220.093 118.186 220.261 118.222C220.429 118.258 220.573 118.288 220.693 118.312C220.813 118.336 220.969 118.372 221.161 118.42C221.353 118.456 221.509 118.486 221.629 118.51C223.513 118.93 224.455 119.86 224.455 121.3C224.455 122.104 224.083 122.8 223.339 123.388C222.595 123.976 221.587 124.27 220.315 124.27C218.611 124.27 217.351 123.73 216.535 122.65C216.163 122.158 215.893 121.618 215.725 121.03Z" fill="white"/>
<path d="M24.4329 181.92V179.4H35.2329V181.92H31.1829V192H28.4829V181.92H24.4329ZM36.585 192V179.4H42.525C44.025 179.4 45.225 179.808 46.125 180.624C47.025 181.428 47.475 182.43 47.475 183.63C47.475 184.566 47.211 185.364 46.683 186.024C46.155 186.684 45.459 187.176 44.595 187.5L47.475 192H44.415L41.805 187.86H39.285V192H36.585ZM39.285 185.34H42.435C43.179 185.34 43.737 185.19 44.109 184.89C44.493 184.578 44.685 184.158 44.685 183.63C44.685 183.102 44.493 182.688 44.109 182.388C43.737 182.076 43.179 181.92 42.435 181.92H39.285V185.34ZM48.1964 192L51.5264 179.4H57.1964L60.5264 192H57.7364L57.0164 189.21H51.7064L50.9864 192H48.1964ZM52.3364 186.69H56.3864L55.1264 181.92H53.5964L52.3364 186.69ZM61.7921 192V179.4H66.3821C68.3741 179.4 70.0121 180.006 71.2961 181.218C72.5801 182.43 73.2221 183.924 73.2221 185.7C73.2221 187.476 72.5801 188.97 71.2961 190.182C70.0121 191.394 68.3741 192 66.3821 192H61.7921ZM64.4921 189.48H66.3821C67.6301 189.48 68.6141 189.138 69.3341 188.454C70.0661 187.758 70.4321 186.84 70.4321 185.7C70.4321 184.56 70.0661 183.648 69.3341 182.964C68.6141 182.268 67.6301 181.92 66.3821 181.92H64.4921V189.48ZM75.0284 192V179.4H84.4784V181.92H77.7284V184.44H83.1284V186.78H77.7284V189.48H84.4784V192H75.0284ZM86.3663 192V179.4H90.4163L93.4763 186.6H93.9263L96.9863 179.4H101.036V192H98.3363V183.99L98.5163 182.37H98.3363L95.4563 189.12H91.9463L89.0663 182.37H88.8863L89.0663 183.99V192H86.3663ZM102.214 192L105.544 179.4H111.214L114.544 192H111.754L111.034 189.21H105.724L105.004 192H102.214ZM106.354 186.69H110.404L109.144 181.92H107.614L106.354 186.69ZM115.81 192V179.4H121.75C123.25 179.4 124.45 179.808 125.35 180.624C126.25 181.428 126.7 182.43 126.7 183.63C126.7 184.566 126.436 185.364 125.908 186.024C125.38 186.684 124.684 187.176 123.82 187.5L126.7 192H123.64L121.03 187.86H118.51V192H115.81ZM118.51 185.34H121.66C122.404 185.34 122.962 185.19 123.334 184.89C123.718 184.578 123.91 184.158 123.91 183.63C123.91 183.102 123.718 182.688 123.334 182.388C122.962 182.076 122.404 181.92 121.66 181.92H118.51V185.34ZM128.501 192V179.4H131.201V184.35H133.001L136.421 179.4H139.481L135.341 185.43L139.751 192H136.601L133.091 186.87H131.201V192H128.501ZM150.913 192V179.4H156.853C158.353 179.4 159.553 179.808 160.453 180.624C161.353 181.428 161.803 182.43 161.803 183.63C161.803 184.566 161.539 185.364 161.011 186.024C160.483 186.684 159.787 187.176 158.923 187.5L161.803 192H158.743L156.133 187.86H153.613V192H150.913ZM153.613 185.34H156.763C157.507 185.34 158.065 185.19 158.437 184.89C158.821 184.578 159.013 184.158 159.013 183.63C159.013 183.102 158.821 182.688 158.437 182.388C158.065 182.076 157.507 181.92 156.763 181.92H153.613V185.34ZM163.605 192V179.4H173.055V181.92H166.305V184.44H171.705V186.78H166.305V189.48H173.055V192H163.605ZM176.346 190.47C175.05 189.198 174.402 187.608 174.402 185.7C174.402 183.792 175.05 182.208 176.346 180.948C177.654 179.676 179.316 179.04 181.332 179.04C183.588 179.04 185.328 179.82 186.552 181.38C187.104 182.076 187.494 182.856 187.722 183.72H184.932C184.776 183.324 184.536 182.964 184.212 182.64C183.492 181.92 182.532 181.56 181.332 181.56C180.132 181.56 179.154 181.944 178.398 182.712C177.654 183.468 177.282 184.464 177.282 185.7C177.282 186.96 177.648 187.968 178.38 188.724C179.124 189.468 180.108 189.84 181.332 189.84C182.592 189.84 183.576 189.438 184.284 188.634C184.62 188.262 184.866 187.854 185.022 187.41H183.042V185.16H189.252V187.41H187.812C187.548 188.334 187.134 189.162 186.57 189.894C185.31 191.538 183.564 192.36 181.332 192.36C179.316 192.36 177.654 191.73 176.346 190.47ZM190.517 192V179.4H193.217V192H190.517ZM194.842 188.04H197.632C197.74 188.4 197.914 188.718 198.154 188.994C198.682 189.618 199.468 189.93 200.512 189.93C202.072 189.93 202.852 189.45 202.852 188.49C202.852 188.25 202.768 188.034 202.6 187.842C202.444 187.65 202.192 187.482 201.844 187.338C201.508 187.194 201.178 187.08 200.854 186.996C200.542 186.9 200.134 186.786 199.63 186.654C199.558 186.642 199.498 186.63 199.45 186.618C199.414 186.606 199.36 186.594 199.288 186.582C199.228 186.558 199.174 186.54 199.126 186.528C196.63 185.928 195.382 184.722 195.382 182.91C195.382 181.83 195.82 180.918 196.696 180.174C197.584 179.418 198.766 179.04 200.242 179.04C202.162 179.04 203.614 179.688 204.598 180.984C205.006 181.56 205.294 182.202 205.462 182.91H202.672C202.6 182.658 202.462 182.418 202.258 182.19C201.802 181.71 201.13 181.47 200.242 181.47C199.558 181.47 199.042 181.602 198.694 181.866C198.346 182.118 198.172 182.436 198.172 182.82C198.172 183.516 198.964 184.044 200.548 184.404C200.956 184.5 201.208 184.56 201.304 184.584C201.412 184.608 201.658 184.674 202.042 184.782C202.438 184.89 202.702 184.98 202.834 185.052C202.978 185.112 203.212 185.214 203.536 185.358C203.872 185.49 204.106 185.616 204.238 185.736C204.382 185.856 204.562 186.018 204.778 186.222C205.006 186.414 205.168 186.612 205.264 186.816C205.36 187.02 205.444 187.26 205.516 187.536C205.6 187.8 205.642 188.088 205.642 188.4C205.642 189.516 205.192 190.458 204.292 191.226C203.392 191.982 202.132 192.36 200.512 192.36C198.376 192.36 196.81 191.64 195.814 190.2C195.346 189.576 195.022 188.856 194.842 188.04ZM206.454 181.92V179.4H217.254V181.92H213.204V192H210.504V181.92H206.454ZM218.607 192V179.4H224.547C226.047 179.4 227.247 179.808 228.147 180.624C229.047 181.428 229.497 182.43 229.497 183.63C229.497 184.566 229.233 185.364 228.705 186.024C228.177 186.684 227.481 187.176 226.617 187.5L229.497 192H226.437L223.827 187.86H221.307V192H218.607ZM221.307 185.34H224.457C225.201 185.34 225.759 185.19 226.131 184.89C226.515 184.578 226.707 184.158 226.707 183.63C226.707 183.102 226.515 182.688 226.131 182.388C225.759 182.076 225.201 181.92 224.457 181.92H221.307V185.34ZM230.218 192L233.548 179.4H239.218L242.548 192H239.758L239.038 189.21H233.728L233.008 192H230.218ZM234.358 186.69H238.408L237.148 181.92H235.618L234.358 186.69ZM242.103 181.92V179.4H252.903V181.92H248.853V192H246.153V181.92H242.103ZM254.255 192V179.4H256.955V192H254.255ZM260.74 190.434C259.42 189.138 258.76 187.56 258.76 185.7C258.76 183.84 259.42 182.268 260.74 180.984C262.072 179.688 263.722 179.04 265.69 179.04C267.658 179.04 269.302 179.688 270.622 180.984C271.954 182.268 272.62 183.84 272.62 185.7C272.62 187.56 271.954 189.138 270.622 190.434C269.302 191.718 267.658 192.36 265.69 192.36C263.722 192.36 262.072 191.718 260.74 190.434ZM262.774 182.73C262.018 183.498 261.64 184.488 261.64 185.7C261.64 186.912 262.018 187.908 262.774 188.688C263.542 189.456 264.514 189.84 265.69 189.84C266.866 189.84 267.832 189.456 268.588 188.688C269.356 187.908 269.74 186.912 269.74 185.7C269.74 184.488 269.356 183.498 268.588 182.73C267.832 181.95 266.866 181.56 265.69 181.56C264.514 181.56 263.542 181.95 262.774 182.73ZM274.417 192V179.4H277.927L282.877 188.31H283.057L282.877 186.78V179.4H285.577V192H282.067L277.117 183.09H276.937L277.117 184.62V192H274.417Z" fill="white"/>
<path d="M127.791 275.973L143.242 263.615V270.945C143.242 272.328 142.756 273.512 141.783 274.496C140.799 275.48 139.615 275.973 138.232 275.973H127.791ZM138.602 260.891L123.15 273.266V265.918C123.15 264.535 123.643 263.352 124.627 262.367C125.611 261.383 126.795 260.891 128.178 260.891H138.602ZM118.123 281H138.232C140.998 281 143.365 280.016 145.334 278.047C147.291 276.09 148.27 273.723 148.27 270.945V255.881H128.178C125.4 255.881 123.033 256.859 121.076 258.816C119.107 260.785 118.123 263.152 118.123 265.918V281ZM177.783 268.027L177.871 267.975C179.875 266.686 180.877 264.846 180.877 262.455C180.877 260.639 180.232 259.086 178.943 257.797C177.654 256.52 176.107 255.881 174.303 255.881H151.979V260.891H174.303C175.029 260.891 175.516 261.242 175.762 261.945C175.973 262.543 175.861 263.059 175.428 263.492C175.299 263.633 175.059 263.797 174.707 263.984C173.793 264.477 170.137 266.457 163.738 269.926C159.332 272.328 156.021 274.127 153.807 275.322C153.408 275.533 152.799 275.861 151.979 276.307V281H179.611V275.973H163.141L177.695 268.08L177.783 268.027Z" fill="#1CE4FF"/>
<path d="M152 35C138.8 35 128 45.8 128 59C128 72.2 138.8 83 152 83C165.2 83 176 72.2 176 59C176 45.8 165.2 35 152 35ZM152 78.2C141.44 78.2 132.8 69.56 132.8 59C132.8 48.44 141.44 39.8 152 39.8C162.56 39.8 171.2 48.44 171.2 59C171.2 69.56 162.56 78.2 152 78.2Z" fill="white"/>
<path d="M159.201 54.2C159.201 50.12 156.081 47 152.001 47H144.801V71H149.601V63.08L155.361 71L159.201 68.12L153.921 60.92C157.041 60.2 159.201 57.56 159.201 54.2ZM149.601 51.8H152.001C153.441 51.8 154.401 52.76 154.401 54.2C154.401 55.64 153.441 56.6 152.001 56.6H149.601V51.8Z" fill="white"/>
<path d="M225.338 105.52V104.4H230.138V105.52H228.338V110H227.138V105.52H225.338ZM230.739 110V104.4H232.539L233.899 107.6H234.099L235.459 104.4H237.259V110H236.059V106.44L236.139 105.72H236.059L234.779 108.72H233.219L231.939 105.72H231.859L231.939 106.44V110H230.739Z" fill="white"/>
<path d="M24 0H0V11H130V7L115 0H42V3H24V0Z" fill="#FF1C6E"/>
<path d="M287 322H311V311H181V315L196 322H231V314H235V322H239V314H243V322H247V314H251.074V322H269V319H287V322Z" fill="#FF1C6E"/>
</svg>
