<svg width="256" height="322" viewBox="0 0 256 322" fill="none" xmlns="http://www.w3.org/2000/svg">
<rect width="256" height="300" transform="translate(0 11)" fill="#FF1C6E" fill-opacity="0.1"/>
<path d="M44.5929 163.3C43.1396 161.887 42.4129 160.12 42.4129 158C42.4129 155.88 43.1396 154.12 44.5929 152.72C46.0596 151.307 47.9329 150.6 50.2129 150.6C52.7329 150.6 54.7129 151.52 56.1529 153.36C56.7929 154.2 57.2462 155.113 57.5129 156.1H53.7129C53.5129 155.687 53.2662 155.34 52.9729 155.06C52.2662 154.353 51.3462 154 50.2129 154C49.0529 154 48.1129 154.367 47.3929 155.1C46.6729 155.833 46.3129 156.8 46.3129 158C46.3129 159.2 46.6729 160.167 47.3929 160.9C48.1129 161.633 49.0529 162 50.2129 162C51.4662 162 52.4396 161.6 53.1329 160.8C53.4529 160.44 53.6796 160.04 53.8129 159.6H57.6129C57.3196 160.68 56.8462 161.647 56.1929 162.5C54.7662 164.433 52.7729 165.4 50.2129 165.4C47.9329 165.4 46.0596 164.7 44.5929 163.3ZM59.2168 165V154.6H62.5168V156.1H62.7168C62.8368 155.78 63.0168 155.5 63.2568 155.26C63.8035 154.687 64.4701 154.4 65.2568 154.4H66.3168V157.7H64.6168C64.0168 157.7 63.5301 157.887 63.1568 158.26C62.7968 158.62 62.6168 159.1 62.6168 159.7V165H59.2168ZM66.8152 154.6H70.3152L72.1152 162.1H72.7152L74.7152 154.6H78.2152L74.2152 168.8H70.7152L71.8152 165H69.5152L66.8152 154.6ZM79.1191 168.8V154.6H82.5191V156H82.7191C82.9058 155.693 83.1591 155.413 83.4791 155.16C84.2125 154.587 84.9925 154.3 85.8191 154.3C87.0991 154.3 88.1858 154.807 89.0791 155.82C89.9725 156.82 90.4191 158.147 90.4191 159.8C90.4191 161.453 89.9725 162.787 89.0791 163.8C88.1858 164.8 87.0991 165.3 85.8191 165.3C84.9791 165.3 84.1991 165.02 83.4791 164.46C83.1591 164.207 82.9058 163.92 82.7191 163.6H82.5191V168.8H79.1191ZM83.1191 157.88C82.7191 158.333 82.5191 158.973 82.5191 159.8C82.5191 160.627 82.7191 161.267 83.1191 161.72C83.5191 162.173 84.0525 162.4 84.7191 162.4C85.3858 162.4 85.9191 162.173 86.3191 161.72C86.7191 161.267 86.9191 160.627 86.9191 159.8C86.9191 158.973 86.7191 158.333 86.3191 157.88C85.9191 157.427 85.3858 157.2 84.7191 157.2C84.0525 157.2 83.5191 157.427 83.1191 157.88ZM91.3098 157.3V154.6H92.6098V152.4H96.0098V154.6H98.7098V157.3H96.0098V162.3H98.9098V165H92.6098V157.3H91.3098ZM101.588 163.68C100.468 162.6 99.9082 161.307 99.9082 159.8C99.9082 158.293 100.468 157 101.588 155.92C102.708 154.84 104.082 154.3 105.708 154.3C107.335 154.3 108.708 154.84 109.828 155.92C110.948 157 111.508 158.293 111.508 159.8C111.508 161.307 110.948 162.6 109.828 163.68C108.708 164.76 107.335 165.3 105.708 165.3C104.082 165.3 102.708 164.76 101.588 163.68ZM104.048 157.92C103.622 158.387 103.408 159.013 103.408 159.8C103.408 160.587 103.622 161.22 104.048 161.7C104.488 162.167 105.042 162.4 105.708 162.4C106.375 162.4 106.922 162.167 107.348 161.7C107.788 161.22 108.008 160.587 108.008 159.8C108.008 159.013 107.788 158.387 107.348 157.92C106.922 157.44 106.375 157.2 105.708 157.2C105.042 157.2 104.488 157.44 104.048 157.92ZM114.886 163.3C113.433 161.887 112.706 160.12 112.706 158C112.706 155.88 113.433 154.12 114.886 152.72C116.353 151.307 118.226 150.6 120.506 150.6C123.026 150.6 125.006 151.52 126.446 153.36C127.086 154.2 127.539 155.113 127.806 156.1H124.006C123.806 155.687 123.559 155.34 123.266 155.06C122.559 154.353 121.639 154 120.506 154C119.346 154 118.406 154.367 117.686 155.1C116.966 155.833 116.606 156.8 116.606 158C116.606 159.2 116.966 160.167 117.686 160.9C118.406 161.633 119.346 162 120.506 162C121.759 162 122.733 161.6 123.426 160.8C123.746 160.44 123.973 160.04 124.106 159.6H127.906C127.613 160.68 127.139 161.647 126.486 162.5C125.059 164.433 123.066 165.4 120.506 165.4C118.226 165.4 116.353 164.7 114.886 163.3ZM129.51 165V154.6H132.81V156.1H133.01C133.13 155.78 133.31 155.5 133.55 155.26C134.096 154.687 134.763 154.4 135.55 154.4H136.61V157.7H134.91C134.31 157.7 133.823 157.887 133.45 158.26C133.09 158.62 132.91 159.1 132.91 159.7V165H129.51ZM139.068 163.68C137.962 162.6 137.408 161.307 137.408 159.8C137.408 158.293 137.962 157 139.068 155.92C140.175 154.84 141.522 154.3 143.108 154.3C144.722 154.3 146.075 154.84 147.168 155.92C148.262 157 148.808 158.293 148.808 159.8V160.4H140.908C141.015 161.107 141.255 161.653 141.628 162.04C142.015 162.413 142.508 162.6 143.108 162.6C143.815 162.6 144.348 162.42 144.708 162.06C144.868 161.913 145.002 161.727 145.108 161.5H148.708C148.468 162.233 148.108 162.867 147.628 163.4C146.575 164.667 145.068 165.3 143.108 165.3C141.522 165.3 140.175 164.76 139.068 163.68ZM141.008 158.7H145.208C145.088 158.22 144.842 157.82 144.468 157.5C144.095 157.167 143.642 157 143.108 157C142.575 157 142.122 157.167 141.748 157.5C141.375 157.82 141.128 158.22 141.008 158.7ZM151.348 163.8C150.455 162.787 150.008 161.453 150.008 159.8C150.008 158.147 150.455 156.82 151.348 155.82C152.242 154.807 153.328 154.3 154.608 154.3C155.435 154.3 156.215 154.587 156.948 155.16C157.255 155.413 157.508 155.693 157.708 156H157.908V154.6H161.308V165H157.908V163.6H157.708C157.522 163.92 157.268 164.207 156.948 164.46C156.228 165.02 155.448 165.3 154.608 165.3C153.328 165.3 152.242 164.8 151.348 163.8ZM154.108 157.88C153.708 158.333 153.508 158.973 153.508 159.8C153.508 160.627 153.708 161.267 154.108 161.72C154.508 162.173 155.042 162.4 155.708 162.4C156.375 162.4 156.908 162.173 157.308 161.72C157.708 161.267 157.908 160.627 157.908 159.8C157.908 158.973 157.708 158.333 157.308 157.88C156.908 157.427 156.375 157.2 155.708 157.2C155.042 157.2 154.508 157.427 154.108 157.88ZM162.599 157.3V154.6H163.899V152.4H167.299V154.6H169.999V157.3H167.299V162.3H170.199V165H163.899V157.3H162.599ZM171.697 161V154.6H175.097V160.5C175.097 161.1 175.257 161.567 175.577 161.9C175.897 162.233 176.337 162.4 176.897 162.4C177.471 162.4 177.944 162.193 178.317 161.78C178.704 161.353 178.897 160.793 178.897 160.1V154.6H182.297V165H178.897V163.6H178.697C178.524 163.933 178.284 164.22 177.977 164.46C177.311 165.02 176.517 165.3 175.597 165.3C174.371 165.3 173.411 164.933 172.717 164.2C172.037 163.453 171.697 162.387 171.697 161ZM184.295 165V154.6H187.595V156.1H187.795C187.915 155.78 188.095 155.5 188.335 155.26C188.882 154.687 189.548 154.4 190.335 154.4H191.395V157.7H189.695C189.095 157.7 188.608 157.887 188.235 158.26C187.875 158.62 187.695 159.1 187.695 159.7V165H184.295ZM193.853 163.68C192.747 162.6 192.193 161.307 192.193 159.8C192.193 158.293 192.747 157 193.853 155.92C194.96 154.84 196.307 154.3 197.893 154.3C199.507 154.3 200.86 154.84 201.953 155.92C203.047 157 203.593 158.293 203.593 159.8V160.4H195.693C195.8 161.107 196.04 161.653 196.413 162.04C196.8 162.413 197.293 162.6 197.893 162.6C198.6 162.6 199.133 162.42 199.493 162.06C199.653 161.913 199.787 161.727 199.893 161.5H203.493C203.253 162.233 202.893 162.867 202.413 163.4C201.36 164.667 199.853 165.3 197.893 165.3C196.307 165.3 194.96 164.76 193.853 163.68ZM195.793 158.7H199.993C199.873 158.22 199.627 157.82 199.253 157.5C198.88 157.167 198.427 157 197.893 157C197.36 157 196.907 157.167 196.533 157.5C196.16 157.82 195.913 158.22 195.793 158.7ZM204.593 161.6H207.993C208.047 161.8 208.16 161.987 208.333 162.16C208.693 162.52 209.213 162.7 209.893 162.7C210.827 162.7 211.293 162.467 211.293 162C211.293 161.787 211.16 161.62 210.893 161.5C210.627 161.367 210.227 161.233 209.693 161.1C209.253 160.993 208.967 160.927 208.833 160.9C208.7 160.873 208.42 160.8 207.993 160.68C207.567 160.547 207.26 160.433 207.073 160.34C206.9 160.233 206.653 160.087 206.333 159.9C206.027 159.7 205.8 159.5 205.653 159.3C205.52 159.087 205.393 158.827 205.273 158.52C205.153 158.2 205.093 157.86 205.093 157.5C205.093 156.62 205.487 155.867 206.273 155.24C207.06 154.613 208.167 154.3 209.593 154.3C211.38 154.3 212.793 154.887 213.833 156.06C214.247 156.567 214.533 157.147 214.693 157.8H211.393C211.313 157.587 211.22 157.42 211.113 157.3C210.807 156.967 210.367 156.8 209.793 156.8C208.993 156.8 208.593 157.033 208.593 157.5C208.593 157.727 208.727 157.9 208.993 158.02C209.26 158.14 209.667 158.253 210.213 158.36C211.587 158.68 212.513 158.96 212.993 159.2C214.193 159.787 214.793 160.687 214.793 161.9C214.793 162.86 214.367 163.667 213.513 164.32C212.673 164.973 211.467 165.3 209.893 165.3C207.96 165.3 206.487 164.687 205.473 163.46C205.02 162.913 204.727 162.293 204.593 161.6ZM41.7492 177H45.4492L47.2492 186.8H47.4492L49.3292 177H53.7692L55.6492 186.8H55.8492L57.6492 177H61.3492L58.4492 191H53.4492L51.6492 181.6H51.4492L49.6492 191H44.6492L41.7492 177ZM63.1991 189.68C62.0924 188.6 61.5391 187.307 61.5391 185.8C61.5391 184.293 62.0924 183 63.1991 181.92C64.3057 180.84 65.6524 180.3 67.2391 180.3C68.8524 180.3 70.2057 180.84 71.2991 181.92C72.3924 183 72.9391 184.293 72.9391 185.8V186.4H65.0391C65.1457 187.107 65.3857 187.653 65.7591 188.04C66.1457 188.413 66.6391 188.6 67.2391 188.6C67.9457 188.6 68.4791 188.42 68.8391 188.06C68.9991 187.913 69.1324 187.727 69.2391 187.5H72.8391C72.5991 188.233 72.2391 188.867 71.7591 189.4C70.7057 190.667 69.1991 191.3 67.2391 191.3C65.6524 191.3 64.3057 190.76 63.1991 189.68ZM65.1391 184.7H69.3391C69.2191 184.22 68.9724 183.82 68.5991 183.5C68.2257 183.167 67.7724 183 67.2391 183C66.7057 183 66.2524 183.167 65.8791 183.5C65.5057 183.82 65.2591 184.22 65.1391 184.7ZM74.5391 191V177H77.9391V182H78.1391C78.3257 181.693 78.5791 181.413 78.8991 181.16C79.6324 180.587 80.4124 180.3 81.2391 180.3C82.5191 180.3 83.6057 180.807 84.4991 181.82C85.3924 182.82 85.8391 184.147 85.8391 185.8C85.8391 187.453 85.3924 188.787 84.4991 189.8C83.6057 190.8 82.5191 191.3 81.2391 191.3C80.3991 191.3 79.6191 191.02 78.8991 190.46C78.5791 190.207 78.3257 189.92 78.1391 189.6H77.9391V191H74.5391ZM78.5391 183.88C78.1391 184.333 77.9391 184.973 77.9391 185.8C77.9391 186.627 78.1391 187.267 78.5391 187.72C78.9391 188.173 79.4724 188.4 80.1391 188.4C80.8057 188.4 81.3391 188.173 81.7391 187.72C82.1391 187.267 82.3391 186.627 82.3391 185.8C82.3391 184.973 82.1391 184.333 81.7391 183.88C81.3391 183.427 80.8057 183.2 80.1391 183.2C79.4724 183.2 78.9391 183.427 78.5391 183.88ZM88.5697 189.68C87.4764 188.587 86.9297 187.293 86.9297 185.8C86.9297 184.307 87.4764 183.02 88.5697 181.94C89.663 180.847 90.983 180.3 92.5297 180.3C94.463 180.3 95.9764 181.02 97.0697 182.46C97.523 183.1 97.843 183.813 98.0297 184.6H94.5297C94.4497 184.4 94.303 184.167 94.0897 183.9C93.6497 183.433 93.1297 183.2 92.5297 183.2C91.943 183.2 91.443 183.44 91.0297 183.92C90.6297 184.4 90.4297 185.027 90.4297 185.8C90.4297 186.573 90.6297 187.2 91.0297 187.68C91.443 188.16 91.943 188.4 92.5297 188.4C93.223 188.4 93.7564 188.167 94.1297 187.7C94.2764 187.527 94.4097 187.293 94.5297 187H98.0297C97.843 187.8 97.523 188.52 97.0697 189.16C96.0164 190.587 94.503 191.3 92.5297 191.3C90.983 191.3 89.663 190.76 88.5697 189.68ZM100.719 189.68C99.5991 188.6 99.0391 187.307 99.0391 185.8C99.0391 184.293 99.5991 183 100.719 181.92C101.839 180.84 103.212 180.3 104.839 180.3C106.466 180.3 107.839 180.84 108.959 181.92C110.079 183 110.639 184.293 110.639 185.8C110.639 187.307 110.079 188.6 108.959 189.68C107.839 190.76 106.466 191.3 104.839 191.3C103.212 191.3 101.839 190.76 100.719 189.68ZM103.179 183.92C102.752 184.387 102.539 185.013 102.539 185.8C102.539 186.587 102.752 187.22 103.179 187.7C103.619 188.167 104.172 188.4 104.839 188.4C105.506 188.4 106.052 188.167 106.479 187.7C106.919 187.22 107.139 186.587 107.139 185.8C107.139 185.013 106.919 184.387 106.479 183.92C106.052 183.44 105.506 183.2 104.839 183.2C104.172 183.2 103.619 183.44 103.179 183.92ZM112.137 191V180.6H115.537V182H115.737C115.923 181.667 116.15 181.387 116.417 181.16C117.07 180.587 117.843 180.3 118.737 180.3C119.817 180.3 120.69 180.62 121.357 181.26C121.637 181.527 121.863 181.84 122.037 182.2H122.237C122.397 181.853 122.617 181.54 122.897 181.26C123.537 180.62 124.383 180.3 125.437 180.3C126.663 180.3 127.617 180.673 128.297 181.42C128.99 182.153 129.337 183.213 129.337 184.6V191H125.937V185.1C125.937 183.833 125.403 183.2 124.337 183.2C123.763 183.2 123.303 183.393 122.957 183.78C122.61 184.167 122.437 184.707 122.437 185.4V191H119.037V185.1C119.037 183.833 118.503 183.2 117.437 183.2C116.863 183.2 116.403 183.393 116.057 183.78C115.71 184.167 115.537 184.707 115.537 185.4V191H112.137ZM131.138 177.8C131.138 177.32 131.318 176.92 131.678 176.6C132.038 176.267 132.492 176.1 133.038 176.1C133.585 176.1 134.038 176.267 134.398 176.6C134.758 176.92 134.938 177.32 134.938 177.8C134.938 178.267 134.758 178.667 134.398 179C134.038 179.333 133.585 179.5 133.038 179.5C132.492 179.5 132.038 179.333 131.678 179C131.318 178.667 131.138 178.267 131.138 177.8ZM131.338 191V180.6H134.738V191H131.338ZM137.984 189.68C136.89 188.587 136.344 187.293 136.344 185.8C136.344 184.307 136.89 183.02 137.984 181.94C139.077 180.847 140.397 180.3 141.944 180.3C143.877 180.3 145.39 181.02 146.484 182.46C146.937 183.1 147.257 183.813 147.444 184.6H143.944C143.864 184.4 143.717 184.167 143.504 183.9C143.064 183.433 142.544 183.2 141.944 183.2C141.357 183.2 140.857 183.44 140.444 183.92C140.044 184.4 139.844 185.027 139.844 185.8C139.844 186.573 140.044 187.2 140.444 187.68C140.857 188.16 141.357 188.4 141.944 188.4C142.637 188.4 143.17 188.167 143.544 187.7C143.69 187.527 143.824 187.293 143.944 187H147.444C147.257 187.8 146.937 188.52 146.484 189.16C145.43 190.587 143.917 191.3 141.944 191.3C140.397 191.3 139.077 190.76 137.984 189.68ZM156.459 189.24C154.992 187.787 154.259 186.04 154.259 184C154.259 181.96 154.992 180.22 156.459 178.78C157.939 177.327 159.805 176.6 162.059 176.6C164.312 176.6 166.172 177.327 167.639 178.78C169.119 180.22 169.859 181.96 169.859 184C169.859 186.04 169.119 187.787 167.639 189.24C166.172 190.68 164.312 191.4 162.059 191.4C159.805 191.4 157.939 190.68 156.459 189.24ZM159.239 181.1C158.519 181.833 158.159 182.8 158.159 184C158.159 185.2 158.519 186.167 159.239 186.9C159.959 187.633 160.899 188 162.059 188C163.219 188 164.159 187.633 164.879 186.9C165.599 186.167 165.959 185.2 165.959 184C165.959 182.8 165.599 181.833 164.879 181.1C164.159 180.367 163.219 180 162.059 180C160.899 180 159.959 180.367 159.239 181.1ZM171.551 191V180.6H174.851V182.1H175.051C175.171 181.78 175.351 181.5 175.591 181.26C176.137 180.687 176.804 180.4 177.591 180.4H178.651V183.7H176.951C176.351 183.7 175.864 183.887 175.491 184.26C175.131 184.62 174.951 185.1 174.951 185.7V191H171.551ZM179.849 177.8C179.849 177.32 180.029 176.92 180.389 176.6C180.749 176.267 181.203 176.1 181.749 176.1C182.296 176.1 182.749 176.267 183.109 176.6C183.469 176.92 183.649 177.32 183.649 177.8C183.649 178.267 183.469 178.667 183.109 179C182.749 179.333 182.296 179.5 181.749 179.5C181.203 179.5 180.749 179.333 180.389 179C180.029 178.667 179.849 178.267 179.849 177.8ZM180.049 191V180.6H183.449V191H180.049ZM186.495 189.42C185.601 188.433 185.155 187.16 185.155 185.6C185.155 184.04 185.601 182.767 186.495 181.78C187.388 180.793 188.475 180.3 189.755 180.3C190.675 180.3 191.468 180.567 192.135 181.1C192.441 181.34 192.681 181.607 192.855 181.9H193.055V180.6H196.455V194.8H186.555V192.1H193.055V189.4H192.855C192.668 189.693 192.428 189.947 192.135 190.16C191.481 190.653 190.688 190.9 189.755 190.9C188.475 190.9 187.388 190.407 186.495 189.42ZM189.255 183.84C188.855 184.267 188.655 184.853 188.655 185.6C188.655 186.347 188.855 186.933 189.255 187.36C189.655 187.787 190.188 188 190.855 188C191.521 188 192.055 187.787 192.455 187.36C192.855 186.933 193.055 186.347 193.055 185.6C193.055 184.853 192.855 184.267 192.455 183.84C192.055 183.413 191.521 183.2 190.855 183.2C190.188 183.2 189.655 183.413 189.255 183.84ZM198.345 177.8C198.345 177.32 198.525 176.92 198.885 176.6C199.245 176.267 199.699 176.1 200.245 176.1C200.792 176.1 201.245 176.267 201.605 176.6C201.965 176.92 202.145 177.32 202.145 177.8C202.145 178.267 201.965 178.667 201.605 179C201.245 179.333 200.792 179.5 200.245 179.5C199.699 179.5 199.245 179.333 198.885 179C198.525 178.667 198.345 178.267 198.345 177.8ZM198.545 191V180.6H201.945V191H198.545ZM204.051 191V180.6H207.451V182H207.651C207.837 181.68 208.077 181.4 208.371 181.16C209.051 180.587 209.844 180.3 210.751 180.3C211.977 180.3 212.931 180.673 213.611 181.42C214.304 182.153 214.651 183.213 214.651 184.6V191H211.251V185.1C211.251 184.5 211.091 184.033 210.771 183.7C210.451 183.367 210.011 183.2 209.451 183.2C208.877 183.2 208.397 183.413 208.011 183.84C207.637 184.253 207.451 184.807 207.451 185.5V191H204.051ZM85.4055 217V203H89.1055V213.6H95.8055V217H85.4055ZM96 217L99.8 203H106.6L110.4 217H106.6L105.9 214.2H100.5L99.8 217H96ZM101.3 211H105.1L103.9 206.4H102.5L101.3 211ZM111.595 211.4V203H115.295V211.3C115.295 212.14 115.528 212.8 115.995 213.28C116.461 213.76 117.095 214 117.895 214C118.695 214 119.328 213.76 119.795 213.28C120.261 212.8 120.495 212.14 120.495 211.3V203H124.195V211.4C124.195 213.213 123.628 214.667 122.495 215.76C121.361 216.853 119.828 217.4 117.895 217.4C115.961 217.4 114.428 216.853 113.295 215.76C112.161 214.667 111.595 213.213 111.595 211.4ZM126.695 217V203H131.195L136.095 211.8H136.295L135.995 210V203H139.695V217H135.195L130.295 208.2H130.095L130.395 210V217H126.695ZM143.88 215.3C142.427 213.887 141.7 212.12 141.7 210C141.7 207.88 142.427 206.12 143.88 204.72C145.347 203.307 147.22 202.6 149.5 202.6C152.02 202.6 154 203.52 155.44 205.36C156.08 206.2 156.533 207.113 156.8 208.1H153C152.8 207.687 152.553 207.34 152.26 207.06C151.553 206.353 150.633 206 149.5 206C148.34 206 147.4 206.367 146.68 207.1C145.96 207.833 145.6 208.8 145.6 210C145.6 211.2 145.96 212.167 146.68 212.9C147.4 213.633 148.34 214 149.5 214C150.753 214 151.727 213.6 152.42 212.8C152.74 212.44 152.967 212.04 153.1 211.6H156.9C156.607 212.68 156.133 213.647 155.48 214.5C154.053 216.433 152.06 217.4 149.5 217.4C147.22 217.4 145.347 216.7 143.88 215.3ZM158.804 217V203H162.504V208.2H167.904V203H171.604V217H167.904V211.6H162.504V217H158.804Z" fill="white"/>
<path d="M65.9233 126V109.2H71.3233L77.2033 119.76H77.4433L77.0833 117.6V109.2H81.5233V126H76.1233L70.2433 115.44H70.0033L70.3633 117.6V126H65.9233ZM84.6498 126V109.2H97.3698V113.28H89.0898V116.52H95.4498V120.36H89.0898V126H84.6498ZM98.2127 113.28V109.2H113.213V113.28H107.933V126H103.493V113.28H98.2127ZM120.533 126V109.2H127.037C129.805 109.2 132.053 110.008 133.781 111.624C135.509 113.224 136.373 115.216 136.373 117.6C136.373 119.984 135.509 121.984 133.781 123.6C132.053 125.2 129.805 126 127.037 126H120.533ZM124.973 121.92H127.013C128.501 121.92 129.653 121.536 130.469 120.768C131.285 120 131.693 118.944 131.693 117.6C131.693 116.256 131.285 115.2 130.469 114.432C129.653 113.664 128.501 113.28 127.013 113.28H124.973V121.92ZM138.767 126V109.2H147.167C149.167 109.2 150.783 109.768 152.015 110.904C153.263 112.024 153.887 113.416 153.887 115.08C153.887 117.24 152.767 118.92 150.527 120.12L154.007 126H149.207L146.207 120.96H143.207V126H138.767ZM143.207 116.88H147.047C147.735 116.88 148.287 116.704 148.703 116.352C149.119 116 149.327 115.576 149.327 115.08C149.327 114.584 149.119 114.16 148.703 113.808C148.287 113.456 147.735 113.28 147.047 113.28H143.207V116.88ZM158.335 123.888C156.575 122.144 155.695 120.048 155.695 117.6C155.695 115.152 156.575 113.064 158.335 111.336C160.111 109.592 162.351 108.72 165.055 108.72C167.759 108.72 169.991 109.592 171.751 111.336C173.527 113.064 174.415 115.152 174.415 117.6C174.415 120.048 173.527 122.144 171.751 123.888C169.991 125.616 167.759 126.48 165.055 126.48C162.351 126.48 160.111 125.616 158.335 123.888ZM161.671 114.12C160.807 115 160.375 116.16 160.375 117.6C160.375 119.04 160.807 120.2 161.671 121.08C162.535 121.96 163.663 122.4 165.055 122.4C166.447 122.4 167.575 121.96 168.439 121.08C169.303 120.2 169.735 119.04 169.735 117.6C169.735 116.16 169.303 115 168.439 114.12C167.575 113.24 166.447 112.8 165.055 112.8C163.663 112.8 162.535 113.24 161.671 114.12ZM176.806 126V109.2H184.966C187.03 109.2 188.702 109.792 189.982 110.976C191.278 112.144 191.926 113.592 191.926 115.32C191.926 117.048 191.278 118.504 189.982 119.688C188.702 120.856 187.03 121.44 184.966 121.44H181.246V126H176.806ZM181.246 117.36H184.846C185.678 117.36 186.302 117.176 186.718 116.808C187.15 116.44 187.366 115.944 187.366 115.32C187.366 114.696 187.15 114.2 186.718 113.832C186.302 113.464 185.678 113.28 184.846 113.28H181.246V117.36Z" fill="white"/>
<path d="M107.199 51.8247V66.1791C107.201 67.5909 107.578 68.977 108.289 70.1962C109.001 71.4154 110.024 72.4242 111.252 73.1199L124.052 80.3623C125.26 81.0309 126.618 81.3817 127.999 81.3817C129.38 81.3817 130.738 81.0309 131.946 80.3623L144.746 73.1199C145.974 72.4242 146.996 71.4154 147.708 70.1962C148.42 68.977 148.797 67.591 148.799 66.1791V51.8247C148.797 50.4129 148.421 49.0268 147.709 47.8076C146.997 46.5884 145.975 45.5796 144.746 44.8839L131.946 37.6407C130.742 36.9596 129.382 36.6016 127.998 36.6016C126.615 36.6016 125.255 36.9596 124.05 37.6407L111.25 44.8831C110.022 45.5792 109 46.5882 108.289 47.8076C107.577 49.0269 107.201 50.4129 107.199 51.8247V51.8247ZM112.434 46.9719L125.234 39.7295C126.078 39.2548 127.03 39.0054 127.999 39.0054C128.967 39.0054 129.92 39.2548 130.764 39.7295L143.564 46.9719C144.423 47.4581 145.138 48.1633 145.636 49.0158C146.134 49.8682 146.398 50.8374 146.399 51.8247V66.1791C146.398 67.1663 146.134 68.1353 145.636 68.9876C145.138 69.84 144.423 70.545 143.564 71.0311L130.764 78.2735C129.92 78.7482 128.967 78.9976 127.999 78.9976C127.03 78.9976 126.078 78.7482 125.234 78.2735L112.434 71.0311C111.575 70.5448 110.86 69.8396 110.362 68.9873C109.864 68.1351 109.601 67.1661 109.599 66.1791V51.8247C109.601 50.8376 109.864 49.8685 110.362 49.0161C110.86 48.1637 111.575 47.4584 112.434 46.9719V46.9719Z" fill="white"/>
<path d="M113.222 69.6385L126.022 76.8809C126.626 77.2195 127.307 77.3974 128 77.3974C128.692 77.3974 129.373 77.2195 129.977 76.8809L142.777 69.6385C143.39 69.2915 143.9 68.7883 144.255 68.1801C144.61 67.5719 144.798 66.8804 144.799 66.1761V51.8217C144.798 51.1171 144.611 50.4255 144.255 49.8171C143.9 49.2087 143.39 48.7054 142.777 48.3585L129.977 41.1153C129.373 40.7759 128.692 40.5977 128 40.5977C127.307 40.5977 126.626 40.7759 126.022 41.1153L113.222 48.3585C112.609 48.7052 112.099 49.2085 111.743 49.8169C111.388 50.4253 111.2 51.1171 111.199 51.8217V66.1761C111.2 66.8805 111.388 67.5721 111.744 68.1803C112.099 68.7885 112.609 69.2917 113.222 69.6385V69.6385ZM134.399 51.7985H140.799C141.011 51.7985 141.215 51.8827 141.365 52.0328C141.515 52.1828 141.599 52.3863 141.599 52.5985C141.599 52.8106 141.515 53.0141 141.365 53.1641C141.215 53.3142 141.011 53.3985 140.799 53.3985H138.399V65.3985C138.399 65.6106 138.315 65.8141 138.165 65.9642C138.015 66.1142 137.811 66.1985 137.599 66.1985C137.387 66.1985 137.184 66.1142 137.034 65.9642C136.884 65.8141 136.799 65.6106 136.799 65.3985V53.3985H134.399C134.187 53.3985 133.984 53.3142 133.834 53.1641C133.684 53.0141 133.599 52.8106 133.599 52.5985C133.599 52.3863 133.684 52.1828 133.834 52.0328C133.984 51.8827 134.187 51.7985 134.399 51.7985ZM124.799 52.5985C124.799 52.3863 124.884 52.1828 125.034 52.0328C125.184 51.8827 125.387 51.7985 125.599 51.7985H131.999C132.211 51.7985 132.415 51.8827 132.565 52.0328C132.715 52.1828 132.799 52.3863 132.799 52.5985C132.799 52.8106 132.715 53.0141 132.565 53.1641C132.415 53.3142 132.211 53.3985 131.999 53.3985H126.399V58.1985H129.599C129.811 58.1985 130.015 58.2827 130.165 58.4328C130.315 58.5828 130.399 58.7863 130.399 58.9985C130.399 59.2106 130.315 59.4141 130.165 59.5641C130.015 59.7142 129.811 59.7985 129.599 59.7985H126.399V65.3985C126.399 65.6106 126.315 65.8141 126.165 65.9642C126.015 66.1142 125.811 66.1985 125.599 66.1985C125.387 66.1985 125.184 66.1142 125.034 65.9642C124.884 65.8141 124.799 65.6106 124.799 65.3985V52.5985ZM114.399 52.5985C114.399 52.4181 114.46 52.243 114.572 52.1015C114.684 51.96 114.84 51.8605 115.016 51.8191C115.191 51.7777 115.375 51.7968 115.539 51.8734C115.702 51.9499 115.835 52.0794 115.915 52.2409L120.799 62.0097V52.5985C120.799 52.3863 120.884 52.1828 121.034 52.0328C121.184 51.8827 121.387 51.7985 121.599 51.7985C121.811 51.7985 122.015 51.8827 122.165 52.0328C122.315 52.1828 122.399 52.3863 122.399 52.5985V65.3985C122.399 65.5788 122.339 65.7538 122.227 65.8952C122.115 66.0367 121.959 66.1362 121.783 66.1777C121.723 66.1912 121.661 66.1982 121.599 66.1985C121.451 66.1985 121.305 66.1572 121.178 66.079C121.052 66.0009 120.95 65.8891 120.883 65.7561L115.999 55.9873V65.3985C115.999 65.6106 115.915 65.8141 115.765 65.9642C115.615 66.1142 115.411 66.1985 115.199 66.1985C114.987 66.1985 114.784 66.1142 114.634 65.9642C114.484 65.8141 114.399 65.6106 114.399 65.3985V52.5985Z" fill="white"/>
<path d="M106.924 275.973L122.375 263.615V270.945C122.375 272.328 121.889 273.512 120.916 274.496C119.932 275.48 118.748 275.973 117.365 275.973H106.924ZM117.734 260.891L102.283 273.266V265.918C102.283 264.535 102.775 263.352 103.76 262.367C104.744 261.383 105.928 260.891 107.311 260.891H117.734ZM97.2559 281H117.365C120.131 281 122.498 280.016 124.467 278.047C126.424 276.09 127.402 273.723 127.402 270.945V255.881H107.311C104.533 255.881 102.166 256.859 100.209 258.816C98.2402 260.785 97.2559 263.152 97.2559 265.918V281ZM131.111 255.881V260.891H151.221C151.912 260.891 152.504 261.137 152.996 261.629C153.488 262.121 153.734 262.713 153.734 263.404C153.734 264.096 153.488 264.688 152.996 265.18C152.504 265.672 151.912 265.918 151.221 265.918H137.387V270.945H151.221C151.912 270.945 152.504 271.191 152.996 271.684C153.488 272.176 153.734 272.768 153.734 273.459V275.973H131.111V281H158.744V273.459C158.744 271.537 158.105 269.861 156.828 268.432C158.105 267.002 158.744 265.326 158.744 263.404C158.744 261.33 158.012 259.555 156.547 258.078C155.07 256.613 153.295 255.881 151.221 255.881H131.111Z" fill="#1CE4FF"/>
<path d="M24 0H0V11H130V7L115 0H42V3H24V0Z" fill="#FF1C6E"/>
<path d="M232 322H256V311H126V315L141 322H176V314H180V322H184V314H188V322H192V314H196.074V322H214V319H232V322Z" fill="#FF1C6E"/>
</svg>
