<svg width="256" height="322" viewBox="0 0 256 322" fill="none" xmlns="http://www.w3.org/2000/svg">
<rect width="256" height="300" transform="translate(0 11)" fill="#FF1C6E" fill-opacity="0.4"/>
<line x1="2" y1="11" x2="1.99999" y2="150" stroke="#FF1C6E" stroke-width="4"/>
<path d="M39.1094 125L42.1494 113.8H47.5894L50.6294 125H47.5894L47.0294 122.76H42.7094L42.1494 125H39.1094ZM43.3494 120.2H46.3894L45.4294 116.52H44.3094L43.3494 120.2ZM51.665 125V113.8H57.265C58.5983 113.8 59.6757 114.179 60.497 114.936C61.329 115.683 61.745 116.611 61.745 117.72C61.745 119.16 60.9983 120.28 59.505 121.08L61.825 125H58.625L56.625 121.64H54.625V125H51.665ZM54.625 118.92H57.185C57.6437 118.92 58.0117 118.803 58.289 118.568C58.5663 118.333 58.705 118.051 58.705 117.72C58.705 117.389 58.5663 117.107 58.289 116.872C58.0117 116.637 57.6437 116.52 57.185 116.52H54.625V118.92ZM62.5506 116.52V113.8H72.5506V116.52H69.0306V125H66.0706V116.52H62.5506ZM72.9431 113.8H75.9031L77.3431 121.64H77.5031L79.0071 113.8H82.5591L84.0631 121.64H84.2231L85.6631 113.8H88.6231L86.3031 125H82.3031L80.8631 117.48H80.7031L79.2631 125H75.2631L72.9431 113.8ZM91.1794 123.592C90.006 122.429 89.4194 121.032 89.4194 119.4C89.4194 117.768 90.006 116.376 91.1794 115.224C92.3634 114.061 93.8567 113.48 95.6594 113.48C97.462 113.48 98.95 114.061 100.123 115.224C101.307 116.376 101.899 117.768 101.899 119.4C101.899 121.032 101.307 122.429 100.123 123.592C98.95 124.744 97.462 125.32 95.6594 125.32C93.8567 125.32 92.3634 124.744 91.1794 123.592ZM93.4034 117.08C92.8274 117.667 92.5394 118.44 92.5394 119.4C92.5394 120.36 92.8274 121.133 93.4034 121.72C93.9794 122.307 94.7314 122.6 95.6594 122.6C96.5874 122.6 97.3394 122.307 97.9154 121.72C98.4914 121.133 98.7794 120.36 98.7794 119.4C98.7794 118.44 98.4914 117.667 97.9154 117.08C97.3394 116.493 96.5874 116.2 95.6594 116.2C94.7314 116.2 93.9794 116.493 93.4034 117.08ZM103.493 125V113.8H109.093C110.426 113.8 111.504 114.179 112.325 114.936C113.157 115.683 113.573 116.611 113.573 117.72C113.573 119.16 112.826 120.28 111.333 121.08L113.653 125H110.453L108.453 121.64H106.453V125H103.493ZM106.453 118.92H109.013C109.472 118.92 109.84 118.803 110.117 118.568C110.394 118.333 110.533 118.051 110.533 117.72C110.533 117.389 110.394 117.107 110.117 116.872C109.84 116.637 109.472 116.52 109.013 116.52H106.453V118.92ZM115.259 125V113.8H118.219V117.96H119.499L122.219 113.8H125.579L122.059 119.08L125.819 125H122.459L119.659 120.68H118.219V125H115.259ZM132.601 123.64C131.438 122.509 130.857 121.096 130.857 119.4C130.857 117.704 131.438 116.296 132.601 115.176C133.774 114.045 135.273 113.48 137.097 113.48C139.113 113.48 140.697 114.216 141.849 115.688C142.361 116.36 142.724 117.091 142.937 117.88H139.897C139.737 117.549 139.54 117.272 139.305 117.048C138.74 116.483 138.004 116.2 137.097 116.2C136.169 116.2 135.417 116.493 134.841 117.08C134.265 117.667 133.977 118.44 133.977 119.4C133.977 120.36 134.265 121.133 134.841 121.72C135.417 122.307 136.169 122.6 137.097 122.6C138.1 122.6 138.878 122.28 139.433 121.64C139.689 121.352 139.87 121.032 139.977 120.68H143.017C142.782 121.544 142.404 122.317 141.881 123C140.74 124.547 139.145 125.32 137.097 125.32C135.273 125.32 133.774 124.76 132.601 123.64ZM144.54 125V113.8H150.14C151.473 113.8 152.551 114.179 153.372 114.936C154.204 115.683 154.62 116.611 154.62 117.72C154.62 119.16 153.873 120.28 152.38 121.08L154.7 125H151.5L149.5 121.64H147.5V125H144.54ZM147.5 118.92H150.06C150.519 118.92 150.887 118.803 151.164 118.568C151.441 118.333 151.58 118.051 151.58 117.72C151.58 117.389 151.441 117.107 151.164 116.872C150.887 116.637 150.519 116.52 150.06 116.52H147.5V118.92ZM156.306 125V113.8H164.946V116.52H159.266V118.2H163.826V120.6H159.266V122.28H164.946V125H156.306ZM165.578 125L168.618 113.8H174.058L177.098 125H174.058L173.498 122.76H169.178L168.618 125H165.578ZM169.818 120.2H172.858L171.898 116.52H170.778L169.818 120.2ZM176.613 116.52V113.8H186.613V116.52H183.093V125H180.133V116.52H176.613ZM187.806 125V113.8H190.766V125H187.806ZM194.133 123.592C192.959 122.429 192.373 121.032 192.373 119.4C192.373 117.768 192.959 116.376 194.133 115.224C195.317 114.061 196.81 113.48 198.613 113.48C200.415 113.48 201.903 114.061 203.077 115.224C204.261 116.376 204.853 117.768 204.853 119.4C204.853 121.032 204.261 122.429 203.077 123.592C201.903 124.744 200.415 125.32 198.613 125.32C196.81 125.32 195.317 124.744 194.133 123.592ZM196.357 117.08C195.781 117.667 195.493 118.44 195.493 119.4C195.493 120.36 195.781 121.133 196.357 121.72C196.933 122.307 197.685 122.6 198.613 122.6C199.541 122.6 200.293 122.307 200.869 121.72C201.445 121.133 201.733 120.36 201.733 119.4C201.733 118.44 201.445 117.667 200.869 117.08C200.293 116.493 199.541 116.2 198.613 116.2C197.685 116.2 196.933 116.493 196.357 117.08ZM206.446 125V113.8H210.046L213.966 120.84H214.126L213.886 119.4V113.8H216.846V125H213.246L209.326 117.96H209.166L209.406 119.4V125H206.446Z" fill="white"/>
<path d="M55.6638 167.47C54.3678 166.198 53.7198 164.608 53.7198 162.7C53.7198 160.792 54.3678 159.208 55.6638 157.948C56.9718 156.676 58.6338 156.04 60.6498 156.04C62.9178 156.04 64.6578 156.838 65.8698 158.434C66.4218 159.142 66.8118 159.934 67.0398 160.81H64.2498C64.0938 160.402 63.8538 160.03 63.5298 159.694C62.7738 158.938 61.8138 158.56 60.6498 158.56C59.4738 158.56 58.5018 158.95 57.7338 159.73C56.9778 160.498 56.5998 161.488 56.5998 162.7C56.5998 163.96 56.9658 164.968 57.6978 165.724C58.4418 166.468 59.4258 166.84 60.6498 166.84C61.8738 166.84 62.8578 166.42 63.6018 165.58C63.9378 165.184 64.1838 164.764 64.3398 164.32H67.1298C66.8538 165.268 66.4398 166.108 65.8878 166.84C64.5918 168.52 62.8458 169.36 60.6498 169.36C58.6338 169.36 56.9718 168.73 55.6638 167.47ZM68.6521 169V159.82H71.1721V161.17H71.2621C71.3701 160.882 71.5321 160.63 71.7481 160.414C72.2401 159.898 72.8581 159.64 73.6021 159.64H74.6821V162.07H73.3321C72.6481 162.07 72.1141 162.256 71.7301 162.628C71.3581 162.988 71.1721 163.492 71.1721 164.14V169H68.6521ZM75.137 159.82H77.747L79.547 166.84H80.267L82.247 159.82H84.857L81.167 172.42H78.557L79.547 169H77.567L75.137 159.82ZM85.8435 172.42V159.82H88.3635V160.99H88.4535C88.6455 160.738 88.8795 160.498 89.1555 160.27C89.8035 159.79 90.5295 159.55 91.3335 159.55C92.5335 159.55 93.5355 160 94.3395 160.9C95.1555 161.788 95.5635 162.958 95.5635 164.41C95.5635 165.862 95.1555 167.038 94.3395 167.938C93.5355 168.826 92.5335 169.27 91.3335 169.27C90.5295 169.27 89.8035 169.03 89.1555 168.55C88.8795 168.322 88.6455 168.082 88.4535 167.83H88.3635V172.42H85.8435ZM89.0115 162.43C88.5795 162.898 88.3635 163.558 88.3635 164.41C88.3635 165.262 88.5795 165.928 89.0115 166.408C89.4435 166.876 90.0075 167.11 90.7035 167.11C91.3635 167.11 91.9035 166.87 92.3235 166.39C92.7435 165.91 92.9535 165.25 92.9535 164.41C92.9535 163.57 92.7435 162.91 92.3235 162.43C91.9035 161.95 91.3635 161.71 90.7035 161.71C90.0075 161.71 89.4435 161.95 89.0115 162.43ZM96.3735 161.98V159.82H97.5435V157.84H100.064V159.82H102.656V161.98H100.064V166.84H102.764V169H97.5435V161.98H96.3735ZM105.095 167.866C104.135 166.918 103.655 165.766 103.655 164.41C103.655 163.054 104.135 161.908 105.095 160.972C106.055 160.024 107.255 159.55 108.695 159.55C110.123 159.55 111.317 160.024 112.277 160.972C113.249 161.908 113.735 163.054 113.735 164.41C113.735 165.766 113.249 166.918 112.277 167.866C111.317 168.802 110.123 169.27 108.695 169.27C107.255 169.27 106.055 168.802 105.095 167.866ZM106.967 162.466C106.499 162.97 106.265 163.618 106.265 164.41C106.265 165.202 106.499 165.85 106.967 166.354C107.435 166.858 108.011 167.11 108.695 167.11C109.379 167.11 109.955 166.858 110.423 166.354C110.891 165.85 111.125 165.202 111.125 164.41C111.125 163.618 110.891 162.97 110.423 162.466C109.955 161.962 109.379 161.71 108.695 161.71C108.011 161.71 107.435 161.962 106.967 162.466ZM116.765 167.47C115.469 166.198 114.821 164.608 114.821 162.7C114.821 160.792 115.469 159.208 116.765 157.948C118.073 156.676 119.735 156.04 121.751 156.04C124.019 156.04 125.759 156.838 126.971 158.434C127.523 159.142 127.913 159.934 128.141 160.81H125.351C125.195 160.402 124.955 160.03 124.631 159.694C123.875 158.938 122.915 158.56 121.751 158.56C120.575 158.56 119.603 158.95 118.835 159.73C118.079 160.498 117.701 161.488 117.701 162.7C117.701 163.96 118.067 164.968 118.799 165.724C119.543 166.468 120.527 166.84 121.751 166.84C122.975 166.84 123.959 166.42 124.703 165.58C125.039 165.184 125.285 164.764 125.441 164.32H128.231C127.955 165.268 127.541 166.108 126.989 166.84C125.693 168.52 123.947 169.36 121.751 169.36C119.735 169.36 118.073 168.73 116.765 167.47ZM129.754 169V159.82H132.274V161.17H132.364C132.472 160.882 132.634 160.63 132.85 160.414C133.342 159.898 133.96 159.64 134.704 159.64H135.784V162.07H134.434C133.75 162.07 133.216 162.256 132.832 162.628C132.46 162.988 132.274 163.492 132.274 164.14V169H129.754ZM137.931 167.866C136.983 166.918 136.509 165.766 136.509 164.41C136.509 163.054 136.983 161.908 137.931 160.972C138.891 160.024 140.067 159.55 141.459 159.55C142.875 159.55 144.039 160.018 144.951 160.954C145.863 161.89 146.319 163.042 146.319 164.41V164.95H139.119C139.215 165.55 139.485 166.06 139.929 166.48C140.373 166.9 140.883 167.11 141.459 167.11C142.095 167.11 142.641 166.93 143.097 166.57C143.277 166.414 143.421 166.234 143.529 166.03H146.229C146.025 166.642 145.725 167.182 145.329 167.65C144.369 168.73 143.079 169.27 141.459 169.27C140.067 169.27 138.891 168.802 137.931 167.866ZM139.209 163.42H143.619C143.523 162.94 143.277 162.538 142.881 162.214C142.497 161.878 142.023 161.71 141.459 161.71C140.895 161.71 140.415 161.872 140.019 162.196C139.623 162.52 139.353 162.928 139.209 163.42ZM148.598 167.938C147.794 167.038 147.392 165.862 147.392 164.41C147.392 162.958 147.794 161.788 148.598 160.9C149.414 160 150.422 159.55 151.622 159.55C152.426 159.55 153.152 159.79 153.8 160.27C154.076 160.498 154.31 160.738 154.502 160.99H154.592V159.82H157.112V169H154.592V167.83H154.502C154.31 168.082 154.076 168.322 153.8 168.55C153.152 169.03 152.426 169.27 151.622 169.27C150.422 169.27 149.414 168.826 148.598 167.938ZM150.632 162.43C150.212 162.91 150.002 163.57 150.002 164.41C150.002 165.25 150.212 165.91 150.632 166.39C151.052 166.87 151.592 167.11 152.252 167.11C152.948 167.11 153.512 166.876 153.944 166.408C154.376 165.928 154.592 165.262 154.592 164.41C154.592 163.558 154.376 162.898 153.944 162.43C153.512 161.95 152.948 161.71 152.252 161.71C151.592 161.71 151.052 161.95 150.632 162.43ZM158.372 161.98V159.82H159.542V157.84H162.062V159.82H164.654V161.98H162.062V166.84H164.762V169H159.542V161.98H158.372ZM166.193 165.4V159.82H168.713V165.04C168.713 165.712 168.875 166.228 169.199 166.588C169.535 166.936 170.003 167.11 170.603 167.11C171.203 167.11 171.713 166.882 172.133 166.426C172.553 165.97 172.763 165.388 172.763 164.68V159.82H175.283V169H172.763V167.74H172.673C172.529 168.016 172.307 168.274 172.007 168.514C171.359 169.018 170.621 169.27 169.793 169.27C168.653 169.27 167.765 168.94 167.129 168.28C166.505 167.62 166.193 166.66 166.193 165.4ZM177.267 169V159.82H179.787V161.17H179.877C179.985 160.882 180.147 160.63 180.363 160.414C180.855 159.898 181.473 159.64 182.217 159.64H183.297V162.07H181.947C181.263 162.07 180.729 162.256 180.345 162.628C179.973 162.988 179.787 163.492 179.787 164.14V169H177.267ZM185.444 167.866C184.496 166.918 184.022 165.766 184.022 164.41C184.022 163.054 184.496 161.908 185.444 160.972C186.404 160.024 187.58 159.55 188.972 159.55C190.388 159.55 191.552 160.018 192.464 160.954C193.376 161.89 193.832 163.042 193.832 164.41V164.95H186.632C186.728 165.55 186.998 166.06 187.442 166.48C187.886 166.9 188.396 167.11 188.972 167.11C189.608 167.11 190.154 166.93 190.61 166.57C190.79 166.414 190.934 166.234 191.042 166.03H193.742C193.538 166.642 193.238 167.182 192.842 167.65C191.882 168.73 190.592 169.27 188.972 169.27C187.58 169.27 186.404 168.802 185.444 167.866ZM186.722 163.42H191.132C191.036 162.94 190.79 162.538 190.394 162.214C190.01 161.878 189.536 161.71 188.972 161.71C188.408 161.71 187.928 161.872 187.532 162.196C187.136 162.52 186.866 162.928 186.722 163.42ZM194.725 166.03H197.335C197.419 166.246 197.551 166.444 197.731 166.624C198.115 167.008 198.643 167.2 199.315 167.2C200.335 167.2 200.845 166.9 200.845 166.3C200.845 166.204 200.821 166.12 200.773 166.048C200.725 165.964 200.641 165.892 200.521 165.832C200.401 165.76 200.287 165.7 200.179 165.652C200.071 165.604 199.909 165.556 199.693 165.508C199.489 165.448 199.321 165.406 199.189 165.382C199.069 165.358 198.871 165.316 198.595 165.256C198.331 165.196 198.139 165.154 198.019 165.13C196.123 164.722 195.175 163.792 195.175 162.34C195.175 161.572 195.517 160.918 196.201 160.378C196.897 159.826 197.845 159.55 199.045 159.55C200.653 159.55 201.859 160.048 202.663 161.044C203.011 161.476 203.245 161.968 203.365 162.52H200.845C200.761 162.34 200.653 162.19 200.521 162.07C200.149 161.77 199.657 161.62 199.045 161.62C198.613 161.62 198.295 161.692 198.091 161.836C197.887 161.968 197.785 162.136 197.785 162.34C197.785 162.412 197.797 162.484 197.821 162.556C197.857 162.616 197.911 162.676 197.983 162.736C198.055 162.784 198.127 162.832 198.199 162.88C198.271 162.916 198.373 162.958 198.505 163.006C198.637 163.042 198.751 163.078 198.847 163.114C198.955 163.15 199.093 163.186 199.261 163.222C199.429 163.258 199.573 163.288 199.693 163.312C199.813 163.336 199.969 163.372 200.161 163.42C200.353 163.456 200.509 163.486 200.629 163.51C202.513 163.93 203.455 164.86 203.455 166.3C203.455 167.104 203.083 167.8 202.339 168.388C201.595 168.976 200.587 169.27 199.315 169.27C197.611 169.27 196.351 168.73 195.535 167.65C195.163 167.158 194.893 166.618 194.725 166.03Z" fill="white"/>
<path d="M69.7944 226V209.2H76.0344L79.5144 217.84H80.1144L83.5944 209.2H89.8344V226H85.3944V216.4L85.7544 214.24H85.5144L82.2744 222.16H77.3544L74.1144 214.24H73.8744L74.2344 216.4V226H69.7944ZM92.9506 226V209.2H97.3906V226H92.9506ZM100.521 226V209.2H105.921L111.801 219.76H112.041L111.681 217.6V209.2H116.121V226H110.721L104.841 215.44H104.601L104.961 217.6V226H100.521ZM117.928 213.28V209.2H132.928V213.28H127.648V226H123.208V213.28H117.928ZM140.248 226V209.2H145.648L151.528 219.76H151.768L151.408 217.6V209.2H155.848V226H150.448L144.568 215.44H144.328L144.688 217.6V226H140.248ZM158.974 226V209.2H171.694V213.28H163.414V216.52H169.774V220.36H163.414V226H158.974ZM172.537 213.28V209.2H187.537V213.28H182.257V226H177.817V213.28H172.537Z" fill="white"/>
<path d="M83.3945 272.945C83.3945 274.328 82.9082 275.512 81.9355 276.496C80.9512 277.48 79.7676 277.973 78.3848 277.973H63.3027V262.891H78.3848C79.7676 262.891 80.9512 263.383 81.9355 264.367C82.9082 265.352 83.3945 266.535 83.3945 267.918V272.945ZM58.2754 257.881V283H78.3848C81.1504 283 83.5176 282.016 85.4863 280.047C87.4434 278.09 88.4219 275.723 88.4219 272.945V267.918C88.4219 265.152 87.4434 262.785 85.4863 260.816C83.5176 258.859 81.1504 257.881 78.3848 257.881H58.2754ZM117.25 272.945C117.25 274.328 116.764 275.512 115.791 276.496C114.807 277.48 113.623 277.973 112.24 277.973H97.1582V267.918C97.1582 266.535 97.6504 265.352 98.6348 264.367C99.6191 263.383 100.803 262.891 102.186 262.891H117.25V272.945ZM92.1309 283H112.24C115.006 283 117.373 282.016 119.342 280.047C121.299 278.09 122.277 275.723 122.277 272.945V257.881H102.186C99.4082 257.881 97.041 258.859 95.084 260.816C93.1152 262.785 92.1309 265.152 92.1309 267.918V283ZM151.105 257.881V276.936L132.051 257.881H125.986V283H131.014V263.945L150.068 283H156.133V257.881H151.105ZM159.842 257.881V283H189.988V277.973H164.869V272.945H189.988V267.918H164.869V262.891H189.988V257.881H159.842ZM193.697 283H198.725V277.973H193.697V283ZM193.697 276.725H198.725V257.881H193.697V276.725Z" fill="#FFD700"/>
<path d="M124.375 72.2828V86.375H111.688V80.9375L104.305 72.0798C103.22 70.7766 102.625 69.1345 102.625 67.438V51.0312C102.625 49.5305 103.843 48.3125 105.344 48.3125C106.845 48.3125 108.062 49.5305 108.062 51.0312V57.4729C106.834 58.7235 106.245 60.3203 106.25 61.9099C106.255 63.3925 106.794 64.7972 107.564 65.7506L111.601 71.15C112.2 71.9511 113.335 72.1161 114.136 71.5161C114.937 70.9162 115.102 69.7797 114.502 68.9804L110.426 63.5302C109.647 62.5587 109.656 60.9909 110.667 59.9814C111.619 59.0298 113.496 58.9845 114.477 59.9651L122.818 68.4748C123.822 69.4988 124.375 70.8509 124.375 72.2828V72.2828Z" fill="white"/>
<path d="M153.375 51.0312V67.438C153.375 69.1345 152.78 70.7766 151.695 72.0798L144.312 80.9375V86.375H131.625V72.2828C131.625 70.8509 132.178 69.4988 133.18 68.4748L141.521 59.9651C142.498 58.9881 144.372 59.0207 145.331 59.9814C146.343 60.9891 146.353 62.5587 145.572 63.5302L141.496 68.9804C140.896 69.7816 141.061 70.918 141.862 71.5161C142.665 72.1161 143.8 71.9511 144.398 71.15L148.434 65.7506C149.204 64.799 149.743 63.3943 149.748 61.9099C149.754 60.3185 149.165 58.7235 147.936 57.4729V51.0312C147.938 49.5305 149.155 48.3125 150.656 48.3125C152.157 48.3125 153.375 49.5305 153.375 51.0312V51.0312Z" fill="white"/>
<path d="M130.719 46.5C130.719 48.0008 129.501 49.2188 128 49.2188C126.499 49.2188 125.281 48.0008 125.281 46.5C125.281 44.9992 126.499 43.7812 128 43.7812C129.501 43.7812 130.719 44.9992 130.719 46.5Z" fill="white"/>
<path d="M139.822 35.2867C137.384 33.0047 132.847 33.5195 128.028 36.1947C123.187 33.4959 118.627 33.0047 116.182 35.2849C113.158 38.1069 114.84 42.9735 117.052 46.5006C114.837 50.0314 113.16 54.8979 116.18 57.7146C118.453 59.8406 122.134 59.3077 125.057 58.2039C123.81 57.4064 122.581 56.4694 121.374 55.4417C120.116 55.632 119.138 55.516 118.654 55.0629C117.497 53.9826 118.668 51.079 119.397 49.6743C126.092 57.5261 135.735 61.5262 139.822 57.7146C142.843 54.8925 141.163 50.0277 138.95 46.4988C141.163 42.9699 142.842 38.1033 139.822 35.2867V35.2867ZM137.348 37.9366C138.504 39.0168 137.333 41.9204 136.605 43.3251C135.137 41.6032 133.58 40.0735 131.55 38.5166C133.074 37.8586 136.141 36.8074 137.348 37.9366V37.9366ZM121.463 46.5006C122.844 44.7389 124.173 43.452 125.677 42.1959C124.314 41.3622 123.091 40.8148 122.099 40.5049C121.222 41.3151 120.446 42.0962 119.397 43.3251C118.665 41.915 117.499 39.0168 118.654 37.9347C120.76 35.9718 129.179 39.6657 134.539 46.5006C132.775 48.7499 130.567 50.8307 128.001 52.5381C125.601 50.9286 123.384 48.9511 121.463 46.5006ZM137.348 55.0665C136.52 55.8386 134.299 55.6864 131.515 54.4847C133.438 53.0256 134.925 51.6463 136.605 49.6761C137.337 51.0862 138.502 53.9844 137.348 55.0665Z" fill="white"/>
<path d="M24 0H0V11H130V7L115 0H42V3H24V0Z" fill="#FF1C6E"/>
<path d="M232 322H256V311H126V315L141 322H176V314H180V322H184V314H188V322H192V314H196.074V322H214V319H232V322Z" fill="#FF1C6E"/>
</svg>
