<svg width="312" height="322" viewBox="0 0 312 322" fill="none" xmlns="http://www.w3.org/2000/svg">
<line x1="0.98895" y1="314" x2="181.989" y2="313" stroke="#FF1C6E" stroke-width="4"/>
<line x1="99" y1="9" x2="312" y2="8.99998" stroke="#FF1C6E" stroke-width="4"/>
<rect width="311" height="300" transform="translate(1 11)" fill="#FF1C6E" fill-opacity="0.1"/>
<path d="M31.43 181V165.6H37.15L40.34 173.52H40.89L44.08 165.6H49.8V181H45.73V172.2L46.06 170.22H45.84L42.87 177.48H38.36L35.39 170.22H35.17L35.5 172.2V181H31.43ZM53.6246 179.548C52.3926 178.36 51.7766 176.937 51.7766 175.28C51.7766 173.623 52.3926 172.2 53.6246 171.012C54.8566 169.824 56.3672 169.23 58.1566 169.23C59.9459 169.23 61.4566 169.824 62.6886 171.012C63.9206 172.2 64.5366 173.623 64.5366 175.28C64.5366 176.937 63.9206 178.36 62.6886 179.548C61.4566 180.736 59.9459 181.33 58.1566 181.33C56.3672 181.33 54.8566 180.736 53.6246 179.548ZM56.3306 173.212C55.8612 173.725 55.6266 174.415 55.6266 175.28C55.6266 176.145 55.8612 176.842 56.3306 177.37C56.8146 177.883 57.4232 178.14 58.1566 178.14C58.8899 178.14 59.4912 177.883 59.9606 177.37C60.4446 176.842 60.6866 176.145 60.6866 175.28C60.6866 174.415 60.4446 173.725 59.9606 173.212C59.4912 172.684 58.8899 172.42 58.1566 172.42C57.4232 172.42 56.8146 172.684 56.3306 173.212ZM66.184 181V169.56H69.924V171.1H70.144C70.3493 170.748 70.6133 170.44 70.936 170.176C71.684 169.545 72.5567 169.23 73.554 169.23C74.9033 169.23 75.952 169.641 76.7 170.462C77.4627 171.269 77.844 172.435 77.844 173.96V181H74.104V174.51C74.104 173.85 73.928 173.337 73.576 172.97C73.224 172.603 72.74 172.42 72.124 172.42C71.4933 172.42 70.9653 172.655 70.54 173.124C70.1293 173.579 69.924 174.187 69.924 174.95V181H66.184ZM79.274 177.26H83.014C83.0727 177.48 83.1973 177.685 83.388 177.876C83.784 178.272 84.356 178.47 85.104 178.47C86.1307 178.47 86.644 178.213 86.644 177.7C86.644 177.465 86.4973 177.282 86.204 177.15C85.9107 177.003 85.4707 176.857 84.884 176.71C84.4 176.593 84.0847 176.519 83.938 176.49C83.7913 176.461 83.4833 176.38 83.014 176.248C82.5447 176.101 82.2073 175.977 82.002 175.874C81.8113 175.757 81.54 175.595 81.188 175.39C80.8507 175.17 80.6013 174.95 80.44 174.73C80.2933 174.495 80.154 174.209 80.022 173.872C79.89 173.52 79.824 173.146 79.824 172.75C79.824 171.782 80.2567 170.953 81.122 170.264C81.9873 169.575 83.2047 169.23 84.774 169.23C86.7393 169.23 88.294 169.875 89.438 171.166C89.8927 171.723 90.208 172.361 90.384 173.08H86.754C86.666 172.845 86.5633 172.662 86.446 172.53C86.1087 172.163 85.6247 171.98 84.994 171.98C84.114 171.98 83.674 172.237 83.674 172.75C83.674 172.999 83.8207 173.19 84.114 173.322C84.4073 173.454 84.8547 173.579 85.456 173.696C86.9667 174.048 87.986 174.356 88.514 174.62C89.834 175.265 90.494 176.255 90.494 177.59C90.494 178.646 90.0247 179.533 89.086 180.252C88.162 180.971 86.8347 181.33 85.104 181.33C82.9773 181.33 81.3567 180.655 80.242 179.306C79.7433 178.705 79.4207 178.023 79.274 177.26ZM91.3671 172.53V169.56H92.7971V167.14H96.5371V169.56H99.5071V172.53H96.5371V178.03H99.7271V181H92.7971V172.53H91.3671ZM102.651 179.548C101.434 178.36 100.825 176.937 100.825 175.28C100.825 173.623 101.434 172.2 102.651 171.012C103.869 169.824 105.35 169.23 107.095 169.23C108.87 169.23 110.359 169.824 111.561 171.012C112.764 172.2 113.365 173.623 113.365 175.28V175.94H104.675C104.793 176.717 105.057 177.319 105.467 177.744C105.893 178.155 106.435 178.36 107.095 178.36C107.873 178.36 108.459 178.162 108.855 177.766C109.031 177.605 109.178 177.399 109.295 177.15H113.255C112.991 177.957 112.595 178.653 112.067 179.24C110.909 180.633 109.251 181.33 107.095 181.33C105.35 181.33 103.869 180.736 102.651 179.548ZM104.785 174.07H109.405C109.273 173.542 109.002 173.102 108.591 172.75C108.181 172.383 107.682 172.2 107.095 172.2C106.509 172.2 106.01 172.383 105.599 172.75C105.189 173.102 104.917 173.542 104.785 174.07ZM115.125 181V169.56H118.755V171.21H118.975C119.107 170.858 119.305 170.55 119.569 170.286C120.171 169.655 120.904 169.34 121.769 169.34H122.935V172.97H121.065C120.405 172.97 119.87 173.175 119.459 173.586C119.063 173.982 118.865 174.51 118.865 175.17V181H115.125ZM132.598 179.13C130.999 177.575 130.2 175.632 130.2 173.3C130.2 170.968 130.999 169.032 132.598 167.492C134.211 165.937 136.272 165.16 138.78 165.16C141.552 165.16 143.73 166.172 145.314 168.196C146.018 169.12 146.516 170.125 146.81 171.21H142.63C142.41 170.755 142.138 170.374 141.816 170.066C141.038 169.289 140.026 168.9 138.78 168.9C137.504 168.9 136.47 169.303 135.678 170.11C134.886 170.917 134.49 171.98 134.49 173.3C134.49 174.62 134.886 175.683 135.678 176.49C136.47 177.297 137.504 177.7 138.78 177.7C140.158 177.7 141.229 177.26 141.992 176.38C142.344 175.984 142.593 175.544 142.74 175.06H146.92C146.597 176.248 146.076 177.311 145.358 178.25C143.788 180.377 141.596 181.44 138.78 181.44C136.272 181.44 134.211 180.67 132.598 179.13ZM149.718 179.68C148.735 178.565 148.244 177.099 148.244 175.28C148.244 173.461 148.735 172.002 149.718 170.902C150.701 169.787 151.896 169.23 153.304 169.23C154.213 169.23 155.071 169.545 155.878 170.176C156.215 170.455 156.494 170.763 156.714 171.1H156.934V169.56H160.674V181H156.934V179.46H156.714C156.509 179.812 156.23 180.127 155.878 180.406C155.086 181.022 154.228 181.33 153.304 181.33C151.896 181.33 150.701 180.78 149.718 179.68ZM152.754 173.168C152.314 173.667 152.094 174.371 152.094 175.28C152.094 176.189 152.314 176.893 152.754 177.392C153.194 177.891 153.781 178.14 154.514 178.14C155.247 178.14 155.834 177.891 156.274 177.392C156.714 176.893 156.934 176.189 156.934 175.28C156.934 174.371 156.714 173.667 156.274 173.168C155.834 172.669 155.247 172.42 154.514 172.42C153.781 172.42 153.194 172.669 152.754 173.168ZM162.864 181V169.56H166.494V171.21H166.714C166.846 170.858 167.044 170.55 167.308 170.286C167.909 169.655 168.642 169.34 169.508 169.34H170.674V172.97H168.804C168.144 172.97 167.608 173.175 167.198 173.586C166.802 173.982 166.604 174.51 166.604 175.17V181H162.864ZM173.136 179.68C172.153 178.565 171.662 177.099 171.662 175.28C171.662 173.461 172.153 172.002 173.136 170.902C174.119 169.787 175.314 169.23 176.722 169.23C177.631 169.23 178.489 169.545 179.296 170.176C179.633 170.455 179.912 170.763 180.132 171.1H180.352V165.6H184.092V181H180.352V179.46H180.132C179.927 179.812 179.648 180.127 179.296 180.406C178.504 181.022 177.646 181.33 176.722 181.33C175.314 181.33 174.119 180.78 173.136 179.68ZM176.172 173.168C175.732 173.667 175.512 174.371 175.512 175.28C175.512 176.189 175.732 176.893 176.172 177.392C176.612 177.891 177.199 178.14 177.932 178.14C178.665 178.14 179.252 177.891 179.692 177.392C180.132 176.893 180.352 176.189 180.352 175.28C180.352 174.371 180.132 173.667 179.692 173.168C179.252 172.669 178.665 172.42 177.932 172.42C177.199 172.42 176.612 172.669 176.172 173.168ZM191.898 176.05H196.078C196.21 176.417 196.408 176.732 196.672 176.996C197.288 177.612 198.153 177.92 199.268 177.92C200.045 177.92 200.624 177.795 201.006 177.546C201.387 177.297 201.578 176.981 201.578 176.6C201.578 176.439 201.534 176.292 201.446 176.16C201.372 176.013 201.24 175.881 201.05 175.764C200.874 175.647 200.698 175.551 200.522 175.478C200.346 175.39 200.089 175.302 199.752 175.214C199.429 175.111 199.158 175.031 198.938 174.972C198.718 174.913 198.395 174.833 197.97 174.73C197.559 174.627 197.244 174.547 197.024 174.488C195.63 174.107 194.516 173.579 193.68 172.904C192.858 172.229 192.448 171.261 192.448 170C192.448 168.665 193.02 167.529 194.164 166.59C195.322 165.637 196.877 165.16 198.828 165.16C201.321 165.16 203.184 165.967 204.416 167.58C204.958 168.284 205.332 169.091 205.538 170H201.358C201.27 169.765 201.123 169.545 200.918 169.34C200.448 168.9 199.752 168.68 198.828 168.68C198.109 168.68 197.581 168.79 197.244 169.01C196.906 169.215 196.738 169.472 196.738 169.78C196.738 170.191 196.98 170.521 197.464 170.77C197.962 171.005 198.688 171.232 199.642 171.452C200.199 171.584 200.595 171.687 200.83 171.76C201.079 171.819 201.468 171.936 201.996 172.112C202.538 172.273 202.949 172.427 203.228 172.574C203.506 172.721 203.836 172.926 204.218 173.19C204.614 173.439 204.907 173.711 205.098 174.004C205.303 174.283 205.479 174.627 205.626 175.038C205.787 175.449 205.868 175.896 205.868 176.38C205.868 177.788 205.288 178.983 204.13 179.966C202.971 180.949 201.35 181.44 199.268 181.44C196.657 181.44 194.648 180.545 193.24 178.756C192.638 177.979 192.191 177.077 191.898 176.05ZM208.913 179.548C207.696 178.36 207.087 176.937 207.087 175.28C207.087 173.623 207.696 172.2 208.913 171.012C210.13 169.824 211.612 169.23 213.357 169.23C215.132 169.23 216.62 169.824 217.823 171.012C219.026 172.2 219.627 173.623 219.627 175.28V175.94H210.937C211.054 176.717 211.318 177.319 211.729 177.744C212.154 178.155 212.697 178.36 213.357 178.36C214.134 178.36 214.721 178.162 215.117 177.766C215.293 177.605 215.44 177.399 215.557 177.15H219.517C219.253 177.957 218.857 178.653 218.329 179.24C217.17 180.633 215.513 181.33 213.357 181.33C211.612 181.33 210.13 180.736 208.913 179.548ZM211.047 174.07H215.667C215.535 173.542 215.264 173.102 214.853 172.75C214.442 172.383 213.944 172.2 213.357 172.2C212.77 172.2 212.272 172.383 211.861 172.75C211.45 173.102 211.179 173.542 211.047 174.07ZM221.387 181V169.56H225.017V171.21H225.237C225.369 170.858 225.567 170.55 225.831 170.286C226.432 169.655 227.166 169.34 228.031 169.34H229.197V172.97H227.327C226.667 172.97 226.132 173.175 225.721 173.586C225.325 173.982 225.127 174.51 225.127 175.17V181H221.387ZM230.515 166.48C230.515 165.952 230.713 165.512 231.109 165.16C231.505 164.793 232.004 164.61 232.605 164.61C233.207 164.61 233.705 164.793 234.101 165.16C234.497 165.512 234.695 165.952 234.695 166.48C234.695 166.993 234.497 167.433 234.101 167.8C233.705 168.167 233.207 168.35 232.605 168.35C232.004 168.35 231.505 168.167 231.109 167.8C230.713 167.433 230.515 166.993 230.515 166.48ZM230.735 181V169.56H234.475V181H230.735ZM238.067 179.548C236.85 178.36 236.241 176.937 236.241 175.28C236.241 173.623 236.85 172.2 238.067 171.012C239.285 169.824 240.766 169.23 242.511 169.23C244.286 169.23 245.775 169.824 246.977 171.012C248.18 172.2 248.781 173.623 248.781 175.28V175.94H240.091C240.209 176.717 240.473 177.319 240.883 177.744C241.309 178.155 241.851 178.36 242.511 178.36C243.289 178.36 243.875 178.162 244.271 177.766C244.447 177.605 244.594 177.399 244.711 177.15H248.671C248.407 177.957 248.011 178.653 247.483 179.24C246.325 180.633 244.667 181.33 242.511 181.33C240.766 181.33 239.285 180.736 238.067 179.548ZM240.201 174.07H244.821C244.689 173.542 244.418 173.102 244.007 172.75C243.597 172.383 243.098 172.2 242.511 172.2C241.925 172.2 241.426 172.383 241.015 172.75C240.605 173.102 240.333 173.542 240.201 174.07ZM249.881 177.26H253.621C253.68 177.48 253.805 177.685 253.995 177.876C254.391 178.272 254.963 178.47 255.711 178.47C256.738 178.47 257.251 178.213 257.251 177.7C257.251 177.465 257.105 177.282 256.811 177.15C256.518 177.003 256.078 176.857 255.491 176.71C255.007 176.593 254.692 176.519 254.545 176.49C254.399 176.461 254.091 176.38 253.621 176.248C253.152 176.101 252.815 175.977 252.609 175.874C252.419 175.757 252.147 175.595 251.795 175.39C251.458 175.17 251.209 174.95 251.047 174.73C250.901 174.495 250.761 174.209 250.629 173.872C250.497 173.52 250.431 173.146 250.431 172.75C250.431 171.782 250.864 170.953 251.729 170.264C252.595 169.575 253.812 169.23 255.381 169.23C257.347 169.23 258.901 169.875 260.045 171.166C260.5 171.723 260.815 172.361 260.991 173.08H257.361C257.273 172.845 257.171 172.662 257.053 172.53C256.716 172.163 256.232 171.98 255.601 171.98C254.721 171.98 254.281 172.237 254.281 172.75C254.281 172.999 254.428 173.19 254.721 173.322C255.015 173.454 255.462 173.579 256.063 173.696C257.574 174.048 258.593 174.356 259.121 174.62C260.441 175.265 261.101 176.255 261.101 177.59C261.101 178.646 260.632 179.533 259.693 180.252C258.769 180.971 257.442 181.33 255.711 181.33C253.585 181.33 251.964 180.655 250.849 179.306C250.351 178.705 250.028 178.023 249.881 177.26ZM268.471 172.09V167.8L271.661 165.6H275.401V181H271.221V170.22L268.471 172.09ZM109.096 209V193.6H113.166V205.26H120.536V209H109.096ZM120.75 209L124.93 193.6H132.41L136.59 209H132.41L131.64 205.92H125.7L124.93 209H120.75ZM126.58 202.4H130.76L129.44 197.34H127.9L126.58 202.4ZM137.904 202.84V193.6H141.974V202.73C141.974 203.654 142.231 204.38 142.744 204.908C143.257 205.436 143.954 205.7 144.834 205.7C145.714 205.7 146.411 205.436 146.924 204.908C147.437 204.38 147.694 203.654 147.694 202.73V193.6H151.764V202.84C151.764 204.835 151.141 206.433 149.894 207.636C148.647 208.839 146.961 209.44 144.834 209.44C142.707 209.44 141.021 208.839 139.774 207.636C138.527 206.433 137.904 204.835 137.904 202.84ZM154.514 209V193.6H159.464L164.854 203.28H165.074L164.744 201.3V193.6H168.814V209H163.864L158.474 199.32H158.254L158.584 201.3V209H154.514ZM173.418 207.13C171.819 205.575 171.02 203.632 171.02 201.3C171.02 198.968 171.819 197.032 173.418 195.492C175.031 193.937 177.092 193.16 179.6 193.16C182.372 193.16 184.55 194.172 186.134 196.196C186.838 197.12 187.337 198.125 187.63 199.21H183.45C183.23 198.755 182.959 198.374 182.636 198.066C181.859 197.289 180.847 196.9 179.6 196.9C178.324 196.9 177.29 197.303 176.498 198.11C175.706 198.917 175.31 199.98 175.31 201.3C175.31 202.62 175.706 203.683 176.498 204.49C177.29 205.297 178.324 205.7 179.6 205.7C180.979 205.7 182.049 205.26 182.812 204.38C183.164 203.984 183.413 203.544 183.56 203.06H187.74C187.417 204.248 186.897 205.311 186.178 206.25C184.609 208.377 182.416 209.44 179.6 209.44C177.092 209.44 175.031 208.67 173.418 207.13ZM189.834 209V193.6H193.904V199.32H199.844V193.6H203.914V209H199.844V203.06H193.904V209H189.834Z" fill="white"/>
<path d="M93.9233 126V109.2H99.3233L105.203 119.76H105.443L105.083 117.6V109.2H109.523V126H104.123L98.2433 115.44H98.0033L98.3633 117.6V126H93.9233ZM112.65 126V109.2H125.37V113.28H117.09V116.52H123.45V120.36H117.09V126H112.65ZM126.213 113.28V109.2H141.213V113.28H135.933V126H131.493V113.28H126.213ZM148.533 126V109.2H155.037C157.805 109.2 160.053 110.008 161.781 111.624C163.509 113.224 164.373 115.216 164.373 117.6C164.373 119.984 163.509 121.984 161.781 123.6C160.053 125.2 157.805 126 155.037 126H148.533ZM152.973 121.92H155.013C156.501 121.92 157.653 121.536 158.469 120.768C159.285 120 159.693 118.944 159.693 117.6C159.693 116.256 159.285 115.2 158.469 114.432C157.653 113.664 156.501 113.28 155.013 113.28H152.973V121.92ZM166.767 126V109.2H175.167C177.167 109.2 178.783 109.768 180.015 110.904C181.263 112.024 181.887 113.416 181.887 115.08C181.887 117.24 180.767 118.92 178.527 120.12L182.007 126H177.207L174.207 120.96H171.207V126H166.767ZM171.207 116.88H175.047C175.735 116.88 176.287 116.704 176.703 116.352C177.119 116 177.327 115.576 177.327 115.08C177.327 114.584 177.119 114.16 176.703 113.808C176.287 113.456 175.735 113.28 175.047 113.28H171.207V116.88ZM186.335 123.888C184.575 122.144 183.695 120.048 183.695 117.6C183.695 115.152 184.575 113.064 186.335 111.336C188.111 109.592 190.351 108.72 193.055 108.72C195.759 108.72 197.991 109.592 199.751 111.336C201.527 113.064 202.415 115.152 202.415 117.6C202.415 120.048 201.527 122.144 199.751 123.888C197.991 125.616 195.759 126.48 193.055 126.48C190.351 126.48 188.111 125.616 186.335 123.888ZM189.671 114.12C188.807 115 188.375 116.16 188.375 117.6C188.375 119.04 188.807 120.2 189.671 121.08C190.535 121.96 191.663 122.4 193.055 122.4C194.447 122.4 195.575 121.96 196.439 121.08C197.303 120.2 197.735 119.04 197.735 117.6C197.735 116.16 197.303 115 196.439 114.12C195.575 113.24 194.447 112.8 193.055 112.8C191.663 112.8 190.535 113.24 189.671 114.12ZM204.806 126V109.2H212.966C215.03 109.2 216.702 109.792 217.982 110.976C219.278 112.144 219.926 113.592 219.926 115.32C219.926 117.048 219.278 118.504 217.982 119.688C216.702 120.856 215.03 121.44 212.966 121.44H209.246V126H204.806ZM209.246 117.36H212.846C213.678 117.36 214.302 117.176 214.718 116.808C215.15 116.44 215.366 115.944 215.366 115.32C215.366 114.696 215.15 114.2 214.718 113.832C214.302 113.464 213.678 113.28 212.846 113.28H209.246V117.36Z" fill="white"/>
<path d="M144.961 275.973L160.412 263.615V270.945C160.412 272.328 159.926 273.512 158.953 274.496C157.969 275.48 156.785 275.973 155.402 275.973H144.961ZM155.771 260.891L140.32 273.266V265.918C140.32 264.535 140.812 263.352 141.797 262.367C142.781 261.383 143.965 260.891 145.348 260.891H155.771ZM135.293 281H155.402C158.168 281 160.535 280.016 162.504 278.047C164.461 276.09 165.439 273.723 165.439 270.945V255.881H145.348C142.57 255.881 140.203 256.859 138.246 258.816C136.277 260.785 135.293 263.152 135.293 265.918V281ZM169.148 255.881V260.891H171.662V281H176.689V255.881H169.148Z" fill="#1CE4FF"/>
<path d="M135.199 51.8247V66.1791C135.201 67.5909 135.578 68.977 136.289 70.1962C137.001 71.4154 138.024 72.4242 139.252 73.1199L152.052 80.3623C153.26 81.0309 154.618 81.3817 155.999 81.3817C157.38 81.3817 158.738 81.0309 159.946 80.3623L172.746 73.1199C173.974 72.4242 174.996 71.4154 175.708 70.1962C176.42 68.977 176.797 67.591 176.799 66.1791V51.8247C176.797 50.4129 176.421 49.0268 175.709 47.8076C174.997 46.5884 173.975 45.5796 172.746 44.8839L159.946 37.6407C158.742 36.9596 157.382 36.6016 155.998 36.6016C154.615 36.6016 153.255 36.9596 152.05 37.6407L139.25 44.8831C138.022 45.5792 137 46.5882 136.289 47.8076C135.577 49.0269 135.201 50.4129 135.199 51.8247V51.8247ZM140.434 46.9719L153.234 39.7295C154.078 39.2548 155.03 39.0054 155.999 39.0054C156.967 39.0054 157.92 39.2548 158.764 39.7295L171.564 46.9719C172.423 47.4581 173.138 48.1633 173.636 49.0158C174.134 49.8682 174.398 50.8374 174.399 51.8247V66.1791C174.398 67.1663 174.134 68.1353 173.636 68.9876C173.138 69.84 172.423 70.545 171.564 71.0311L158.764 78.2735C157.92 78.7482 156.967 78.9976 155.999 78.9976C155.03 78.9976 154.078 78.7482 153.234 78.2735L140.434 71.0311C139.575 70.5448 138.86 69.8396 138.362 68.9873C137.864 68.1351 137.601 67.1661 137.599 66.1791V51.8247C137.601 50.8376 137.864 49.8685 138.362 49.0161C138.86 48.1637 139.575 47.4584 140.434 46.9719V46.9719Z" fill="white"/>
<path d="M141.222 69.6385L154.022 76.8809C154.626 77.2195 155.307 77.3974 156 77.3974C156.692 77.3974 157.373 77.2195 157.977 76.8809L170.777 69.6385C171.39 69.2915 171.9 68.7883 172.255 68.1801C172.61 67.5719 172.798 66.8804 172.799 66.1761V51.8217C172.798 51.1171 172.611 50.4255 172.255 49.8171C171.9 49.2087 171.39 48.7054 170.777 48.3585L157.977 41.1153C157.373 40.7759 156.692 40.5977 156 40.5977C155.307 40.5977 154.626 40.7759 154.022 41.1153L141.222 48.3585C140.609 48.7052 140.099 49.2085 139.743 49.8169C139.388 50.4253 139.2 51.1171 139.199 51.8217V66.1761C139.2 66.8805 139.388 67.5721 139.744 68.1803C140.099 68.7885 140.609 69.2917 141.222 69.6385V69.6385ZM162.399 51.7985H168.799C169.011 51.7985 169.215 51.8827 169.365 52.0328C169.515 52.1828 169.599 52.3863 169.599 52.5985C169.599 52.8106 169.515 53.0141 169.365 53.1641C169.215 53.3142 169.011 53.3985 168.799 53.3985H166.399V65.3985C166.399 65.6106 166.315 65.8141 166.165 65.9642C166.015 66.1142 165.811 66.1985 165.599 66.1985C165.387 66.1985 165.184 66.1142 165.034 65.9642C164.884 65.8141 164.799 65.6106 164.799 65.3985V53.3985H162.399C162.187 53.3985 161.984 53.3142 161.834 53.1641C161.684 53.0141 161.599 52.8106 161.599 52.5985C161.599 52.3863 161.684 52.1828 161.834 52.0328C161.984 51.8827 162.187 51.7985 162.399 51.7985ZM152.799 52.5985C152.799 52.3863 152.884 52.1828 153.034 52.0328C153.184 51.8827 153.387 51.7985 153.599 51.7985H159.999C160.211 51.7985 160.415 51.8827 160.565 52.0328C160.715 52.1828 160.799 52.3863 160.799 52.5985C160.799 52.8106 160.715 53.0141 160.565 53.1641C160.415 53.3142 160.211 53.3985 159.999 53.3985H154.399V58.1985H157.599C157.811 58.1985 158.015 58.2827 158.165 58.4328C158.315 58.5828 158.399 58.7863 158.399 58.9985C158.399 59.2106 158.315 59.4141 158.165 59.5641C158.015 59.7142 157.811 59.7985 157.599 59.7985H154.399V65.3985C154.399 65.6106 154.315 65.8141 154.165 65.9642C154.015 66.1142 153.811 66.1985 153.599 66.1985C153.387 66.1985 153.184 66.1142 153.034 65.9642C152.884 65.8141 152.799 65.6106 152.799 65.3985V52.5985ZM142.399 52.5985C142.399 52.4181 142.46 52.243 142.572 52.1015C142.684 51.96 142.84 51.8605 143.016 51.8191C143.191 51.7777 143.375 51.7968 143.539 51.8734C143.702 51.9499 143.835 52.0794 143.915 52.2409L148.799 62.0097V52.5985C148.799 52.3863 148.884 52.1828 149.034 52.0328C149.184 51.8827 149.387 51.7985 149.599 51.7985C149.811 51.7985 150.015 51.8827 150.165 52.0328C150.315 52.1828 150.399 52.3863 150.399 52.5985V65.3985C150.399 65.5788 150.339 65.7538 150.227 65.8952C150.115 66.0367 149.959 66.1362 149.783 66.1777C149.723 66.1912 149.661 66.1982 149.599 66.1985C149.451 66.1985 149.305 66.1572 149.178 66.079C149.052 66.0009 148.95 65.8891 148.883 65.7561L143.999 55.9873V65.3985C143.999 65.6106 143.915 65.8141 143.765 65.9642C143.615 66.1142 143.411 66.1985 143.199 66.1985C142.987 66.1985 142.784 66.1142 142.634 65.9642C142.484 65.8141 142.399 65.6106 142.399 65.3985V52.5985Z" fill="white"/>
<path d="M25 0H1V11H131V7L116 0H43V3H25V0Z" fill="#FF1C6E"/>
<path d="M288 322H312V311H182V315L197 322H232V314H236V322H240V314H244V322H248V314H252.074V322H270V319H288V322Z" fill="#FF1C6E"/>
</svg>
