<svg width="256" height="322" viewBox="0 0 256 322" fill="none" xmlns="http://www.w3.org/2000/svg">
<rect width="256" height="300" transform="translate(0 11)" fill="#FF1C6E" fill-opacity="0.1"/>
<path d="M49.6638 122.47C48.3678 121.198 47.7198 119.608 47.7198 117.7C47.7198 115.792 48.3678 114.208 49.6638 112.948C50.9718 111.676 52.6338 111.04 54.6498 111.04C56.9178 111.04 58.6578 111.838 59.8698 113.434C60.4218 114.142 60.8118 114.934 61.0398 115.81H58.2498C58.0938 115.402 57.8538 115.03 57.5298 114.694C56.7738 113.938 55.8138 113.56 54.6498 113.56C53.4738 113.56 52.5018 113.95 51.7338 114.73C50.9778 115.498 50.5998 116.488 50.5998 117.7C50.5998 118.96 50.9658 119.968 51.6978 120.724C52.4418 121.468 53.4258 121.84 54.6498 121.84C55.8738 121.84 56.8578 121.42 57.6018 120.58C57.9378 120.184 58.1838 119.764 58.3398 119.32H61.1298C60.8538 120.268 60.4398 121.108 59.8878 121.84C58.5918 123.52 56.8458 124.36 54.6498 124.36C52.6338 124.36 50.9718 123.73 49.6638 122.47ZM62.6521 124V114.82H65.1721V116.17H65.2621C65.3701 115.882 65.5321 115.63 65.7481 115.414C66.2401 114.898 66.8581 114.64 67.6021 114.64H68.6821V117.07H67.3321C66.6481 117.07 66.1141 117.256 65.7301 117.628C65.3581 117.988 65.1721 118.492 65.1721 119.14V124H62.6521ZM69.137 114.82H71.747L73.547 121.84H74.267L76.247 114.82H78.857L75.167 127.42H72.557L73.547 124H71.567L69.137 114.82ZM79.8435 127.42V114.82H82.3635V115.99H82.4535C82.6455 115.738 82.8795 115.498 83.1555 115.27C83.8035 114.79 84.5295 114.55 85.3335 114.55C86.5335 114.55 87.5355 115 88.3395 115.9C89.1555 116.788 89.5635 117.958 89.5635 119.41C89.5635 120.862 89.1555 122.038 88.3395 122.938C87.5355 123.826 86.5335 124.27 85.3335 124.27C84.5295 124.27 83.8035 124.03 83.1555 123.55C82.8795 123.322 82.6455 123.082 82.4535 122.83H82.3635V127.42H79.8435ZM83.0115 117.43C82.5795 117.898 82.3635 118.558 82.3635 119.41C82.3635 120.262 82.5795 120.928 83.0115 121.408C83.4435 121.876 84.0075 122.11 84.7035 122.11C85.3635 122.11 85.9035 121.87 86.3235 121.39C86.7435 120.91 86.9535 120.25 86.9535 119.41C86.9535 118.57 86.7435 117.91 86.3235 117.43C85.9035 116.95 85.3635 116.71 84.7035 116.71C84.0075 116.71 83.4435 116.95 83.0115 117.43ZM90.3735 116.98V114.82H91.5435V112.84H94.0635V114.82H96.6555V116.98H94.0635V121.84H96.7635V124H91.5435V116.98H90.3735ZM99.0951 122.866C98.1351 121.918 97.6551 120.766 97.6551 119.41C97.6551 118.054 98.1351 116.908 99.0951 115.972C100.055 115.024 101.255 114.55 102.695 114.55C104.123 114.55 105.317 115.024 106.277 115.972C107.249 116.908 107.735 118.054 107.735 119.41C107.735 120.766 107.249 121.918 106.277 122.866C105.317 123.802 104.123 124.27 102.695 124.27C101.255 124.27 100.055 123.802 99.0951 122.866ZM100.967 117.466C100.499 117.97 100.265 118.618 100.265 119.41C100.265 120.202 100.499 120.85 100.967 121.354C101.435 121.858 102.011 122.11 102.695 122.11C103.379 122.11 103.955 121.858 104.423 121.354C104.891 120.85 105.125 120.202 105.125 119.41C105.125 118.618 104.891 117.97 104.423 117.466C103.955 116.962 103.379 116.71 102.695 116.71C102.011 116.71 101.435 116.962 100.967 117.466ZM110.765 122.47C109.469 121.198 108.821 119.608 108.821 117.7C108.821 115.792 109.469 114.208 110.765 112.948C112.073 111.676 113.735 111.04 115.751 111.04C118.019 111.04 119.759 111.838 120.971 113.434C121.523 114.142 121.913 114.934 122.141 115.81H119.351C119.195 115.402 118.955 115.03 118.631 114.694C117.875 113.938 116.915 113.56 115.751 113.56C114.575 113.56 113.603 113.95 112.835 114.73C112.079 115.498 111.701 116.488 111.701 117.7C111.701 118.96 112.067 119.968 112.799 120.724C113.543 121.468 114.527 121.84 115.751 121.84C116.975 121.84 117.959 121.42 118.703 120.58C119.039 120.184 119.285 119.764 119.441 119.32H122.231C121.955 120.268 121.541 121.108 120.989 121.84C119.693 123.52 117.947 124.36 115.751 124.36C113.735 124.36 112.073 123.73 110.765 122.47ZM123.754 124V114.82H126.274V116.17H126.364C126.472 115.882 126.634 115.63 126.85 115.414C127.342 114.898 127.96 114.64 128.704 114.64H129.784V117.07H128.434C127.75 117.07 127.216 117.256 126.832 117.628C126.46 117.988 126.274 118.492 126.274 119.14V124H123.754ZM131.931 122.866C130.983 121.918 130.509 120.766 130.509 119.41C130.509 118.054 130.983 116.908 131.931 115.972C132.891 115.024 134.067 114.55 135.459 114.55C136.875 114.55 138.039 115.018 138.951 115.954C139.863 116.89 140.319 118.042 140.319 119.41V119.95H133.119C133.215 120.55 133.485 121.06 133.929 121.48C134.373 121.9 134.883 122.11 135.459 122.11C136.095 122.11 136.641 121.93 137.097 121.57C137.277 121.414 137.421 121.234 137.529 121.03H140.229C140.025 121.642 139.725 122.182 139.329 122.65C138.369 123.73 137.079 124.27 135.459 124.27C134.067 124.27 132.891 123.802 131.931 122.866ZM133.209 118.42H137.619C137.523 117.94 137.277 117.538 136.881 117.214C136.497 116.878 136.023 116.71 135.459 116.71C134.895 116.71 134.415 116.872 134.019 117.196C133.623 117.52 133.353 117.928 133.209 118.42ZM142.598 122.938C141.794 122.038 141.392 120.862 141.392 119.41C141.392 117.958 141.794 116.788 142.598 115.9C143.414 115 144.422 114.55 145.622 114.55C146.426 114.55 147.152 114.79 147.8 115.27C148.076 115.498 148.31 115.738 148.502 115.99H148.592V114.82H151.112V124H148.592V122.83H148.502C148.31 123.082 148.076 123.322 147.8 123.55C147.152 124.03 146.426 124.27 145.622 124.27C144.422 124.27 143.414 123.826 142.598 122.938ZM144.632 117.43C144.212 117.91 144.002 118.57 144.002 119.41C144.002 120.25 144.212 120.91 144.632 121.39C145.052 121.87 145.592 122.11 146.252 122.11C146.948 122.11 147.512 121.876 147.944 121.408C148.376 120.928 148.592 120.262 148.592 119.41C148.592 118.558 148.376 117.898 147.944 117.43C147.512 116.95 146.948 116.71 146.252 116.71C145.592 116.71 145.052 116.95 144.632 117.43ZM152.372 116.98V114.82H153.542V112.84H156.062V114.82H158.654V116.98H156.062V121.84H158.762V124H153.542V116.98H152.372ZM160.193 120.4V114.82H162.713V120.04C162.713 120.712 162.875 121.228 163.199 121.588C163.535 121.936 164.003 122.11 164.603 122.11C165.203 122.11 165.713 121.882 166.133 121.426C166.553 120.97 166.763 120.388 166.763 119.68V114.82H169.283V124H166.763V122.74H166.673C166.529 123.016 166.307 123.274 166.007 123.514C165.359 124.018 164.621 124.27 163.793 124.27C162.653 124.27 161.765 123.94 161.129 123.28C160.505 122.62 160.193 121.66 160.193 120.4ZM171.267 124V114.82H173.787V116.17H173.877C173.985 115.882 174.147 115.63 174.363 115.414C174.855 114.898 175.473 114.64 176.217 114.64H177.297V117.07H175.947C175.263 117.07 174.729 117.256 174.345 117.628C173.973 117.988 173.787 118.492 173.787 119.14V124H171.267ZM179.444 122.866C178.496 121.918 178.022 120.766 178.022 119.41C178.022 118.054 178.496 116.908 179.444 115.972C180.404 115.024 181.58 114.55 182.972 114.55C184.388 114.55 185.552 115.018 186.464 115.954C187.376 116.89 187.832 118.042 187.832 119.41V119.95H180.632C180.728 120.55 180.998 121.06 181.442 121.48C181.886 121.9 182.396 122.11 182.972 122.11C183.608 122.11 184.154 121.93 184.61 121.57C184.79 121.414 184.934 121.234 185.042 121.03H187.742C187.538 121.642 187.238 122.182 186.842 122.65C185.882 123.73 184.592 124.27 182.972 124.27C181.58 124.27 180.404 123.802 179.444 122.866ZM180.722 118.42H185.132C185.036 117.94 184.79 117.538 184.394 117.214C184.01 116.878 183.536 116.71 182.972 116.71C182.408 116.71 181.928 116.872 181.532 117.196C181.136 117.52 180.866 117.928 180.722 118.42ZM188.725 121.03H191.335C191.419 121.246 191.551 121.444 191.731 121.624C192.115 122.008 192.643 122.2 193.315 122.2C194.335 122.2 194.845 121.9 194.845 121.3C194.845 121.204 194.821 121.12 194.773 121.048C194.725 120.964 194.641 120.892 194.521 120.832C194.401 120.76 194.287 120.7 194.179 120.652C194.071 120.604 193.909 120.556 193.693 120.508C193.489 120.448 193.321 120.406 193.189 120.382C193.069 120.358 192.871 120.316 192.595 120.256C192.331 120.196 192.139 120.154 192.019 120.13C190.123 119.722 189.175 118.792 189.175 117.34C189.175 116.572 189.517 115.918 190.201 115.378C190.897 114.826 191.845 114.55 193.045 114.55C194.653 114.55 195.859 115.048 196.663 116.044C197.011 116.476 197.245 116.968 197.365 117.52H194.845C194.761 117.34 194.653 117.19 194.521 117.07C194.149 116.77 193.657 116.62 193.045 116.62C192.613 116.62 192.295 116.692 192.091 116.836C191.887 116.968 191.785 117.136 191.785 117.34C191.785 117.412 191.797 117.484 191.821 117.556C191.857 117.616 191.911 117.676 191.983 117.736C192.055 117.784 192.127 117.832 192.199 117.88C192.271 117.916 192.373 117.958 192.505 118.006C192.637 118.042 192.751 118.078 192.847 118.114C192.955 118.15 193.093 118.186 193.261 118.222C193.429 118.258 193.573 118.288 193.693 118.312C193.813 118.336 193.969 118.372 194.161 118.42C194.353 118.456 194.509 118.486 194.629 118.51C196.513 118.93 197.455 119.86 197.455 121.3C197.455 122.104 197.083 122.8 196.339 123.388C195.595 123.976 194.587 124.27 193.315 124.27C191.611 124.27 190.351 123.73 189.535 122.65C189.163 122.158 188.893 121.618 188.725 121.03Z" fill="white"/>
<path d="M70.9798 181.92V179.4H81.7798V181.92H77.7298V192H75.0298V181.92H70.9798ZM83.1319 192V179.4H89.0719C90.5719 179.4 91.7719 179.808 92.6719 180.624C93.5719 181.428 94.0219 182.43 94.0219 183.63C94.0219 184.566 93.7579 185.364 93.2299 186.024C92.7019 186.684 92.0059 187.176 91.1419 187.5L94.0219 192H90.9619L88.3519 187.86H85.8319V192H83.1319ZM85.8319 185.34H88.9819C89.7259 185.34 90.2839 185.19 90.6559 184.89C91.0399 184.578 91.2319 184.158 91.2319 183.63C91.2319 183.102 91.0399 182.688 90.6559 182.388C90.2839 182.076 89.7259 181.92 88.9819 181.92H85.8319V185.34ZM94.7433 192L98.0733 179.4H103.743L107.073 192H104.283L103.563 189.21H98.2533L97.5333 192H94.7433ZM98.8833 186.69H102.933L101.673 181.92H100.143L98.8833 186.69ZM108.339 192V179.4H112.929C114.921 179.4 116.559 180.006 117.843 181.218C119.127 182.43 119.769 183.924 119.769 185.7C119.769 187.476 119.127 188.97 117.843 190.182C116.559 191.394 114.921 192 112.929 192H108.339ZM111.039 189.48H112.929C114.177 189.48 115.161 189.138 115.881 188.454C116.613 187.758 116.979 186.84 116.979 185.7C116.979 184.56 116.613 183.648 115.881 182.964C115.161 182.268 114.177 181.92 112.929 181.92H111.039V189.48ZM121.575 192V179.4H131.025V181.92H124.275V184.44H129.675V186.78H124.275V189.48H131.025V192H121.575ZM132.913 192V179.4H136.963L140.023 186.6H140.473L143.533 179.4H147.583V192H144.883V183.99L145.063 182.37H144.883L142.003 189.12H138.493L135.613 182.37H135.433L135.613 183.99V192H132.913ZM148.761 192L152.091 179.4H157.761L161.091 192H158.301L157.581 189.21H152.271L151.551 192H148.761ZM152.901 186.69H156.951L155.691 181.92H154.161L152.901 186.69ZM162.357 192V179.4H168.297C169.797 179.4 170.997 179.808 171.897 180.624C172.797 181.428 173.247 182.43 173.247 183.63C173.247 184.566 172.983 185.364 172.455 186.024C171.927 186.684 171.231 187.176 170.367 187.5L173.247 192H170.187L167.577 187.86H165.057V192H162.357ZM165.057 185.34H168.207C168.951 185.34 169.509 185.19 169.881 184.89C170.265 184.578 170.457 184.158 170.457 183.63C170.457 183.102 170.265 182.688 169.881 182.388C169.509 182.076 168.951 181.92 168.207 181.92H165.057V185.34ZM175.048 192V179.4H177.748V184.35H179.548L182.968 179.4H186.028L181.888 185.43L186.298 192H183.148L179.638 186.87H177.748V192H175.048ZM61.168 215V202.4H67.108C68.608 202.4 69.808 202.808 70.708 203.624C71.608 204.428 72.058 205.43 72.058 206.63C72.058 207.566 71.794 208.364 71.266 209.024C70.738 209.684 70.042 210.176 69.178 210.5L72.058 215H68.998L66.388 210.86H63.868V215H61.168ZM63.868 208.34H67.018C67.762 208.34 68.32 208.19 68.692 207.89C69.076 207.578 69.268 207.158 69.268 206.63C69.268 206.102 69.076 205.688 68.692 205.388C68.32 205.076 67.762 204.92 67.018 204.92H63.868V208.34ZM73.8595 215V202.4H83.3095V204.92H76.5595V207.44H81.9595V209.78H76.5595V212.48H83.3095V215H73.8595ZM86.6013 213.47C85.3053 212.198 84.6573 210.608 84.6573 208.7C84.6573 206.792 85.3053 205.208 86.6013 203.948C87.9093 202.676 89.5713 202.04 91.5873 202.04C93.8433 202.04 95.5833 202.82 96.8073 204.38C97.3593 205.076 97.7493 205.856 97.9773 206.72H95.1873C95.0313 206.324 94.7913 205.964 94.4673 205.64C93.7473 204.92 92.7873 204.56 91.5873 204.56C90.3873 204.56 89.4093 204.944 88.6533 205.712C87.9093 206.468 87.5373 207.464 87.5373 208.7C87.5373 209.96 87.9033 210.968 88.6353 211.724C89.3793 212.468 90.3633 212.84 91.5873 212.84C92.8473 212.84 93.8313 212.438 94.5393 211.634C94.8753 211.262 95.1213 210.854 95.2773 210.41H93.2973V208.16H99.5073V210.41H98.0673C97.8033 211.334 97.3893 212.162 96.8253 212.894C95.5653 214.538 93.8193 215.36 91.5873 215.36C89.5713 215.36 87.9093 214.73 86.6013 213.47ZM100.772 215V202.4H103.472V215H100.772ZM105.096 211.04H107.886C107.994 211.4 108.168 211.718 108.408 211.994C108.936 212.618 109.722 212.93 110.766 212.93C112.326 212.93 113.106 212.45 113.106 211.49C113.106 211.25 113.022 211.034 112.854 210.842C112.698 210.65 112.446 210.482 112.098 210.338C111.762 210.194 111.432 210.08 111.108 209.996C110.796 209.9 110.388 209.786 109.884 209.654C109.812 209.642 109.752 209.63 109.704 209.618C109.668 209.606 109.614 209.594 109.542 209.582C109.482 209.558 109.428 209.54 109.38 209.528C106.884 208.928 105.636 207.722 105.636 205.91C105.636 204.83 106.074 203.918 106.95 203.174C107.838 202.418 109.02 202.04 110.496 202.04C112.416 202.04 113.868 202.688 114.852 203.984C115.26 204.56 115.548 205.202 115.716 205.91H112.926C112.854 205.658 112.716 205.418 112.512 205.19C112.056 204.71 111.384 204.47 110.496 204.47C109.812 204.47 109.296 204.602 108.948 204.866C108.6 205.118 108.426 205.436 108.426 205.82C108.426 206.516 109.218 207.044 110.802 207.404C111.21 207.5 111.462 207.56 111.558 207.584C111.666 207.608 111.912 207.674 112.296 207.782C112.692 207.89 112.956 207.98 113.088 208.052C113.232 208.112 113.466 208.214 113.79 208.358C114.126 208.49 114.36 208.616 114.492 208.736C114.636 208.856 114.816 209.018 115.032 209.222C115.26 209.414 115.422 209.612 115.518 209.816C115.614 210.02 115.698 210.26 115.77 210.536C115.854 210.8 115.896 211.088 115.896 211.4C115.896 212.516 115.446 213.458 114.546 214.226C113.646 214.982 112.386 215.36 110.766 215.36C108.63 215.36 107.064 214.64 106.068 213.2C105.6 212.576 105.276 211.856 105.096 211.04ZM116.709 204.92V202.4H127.509V204.92H123.459V215H120.759V204.92H116.709ZM128.861 215V202.4H134.801C136.301 202.4 137.501 202.808 138.401 203.624C139.301 204.428 139.751 205.43 139.751 206.63C139.751 207.566 139.487 208.364 138.959 209.024C138.431 209.684 137.735 210.176 136.871 210.5L139.751 215H136.691L134.081 210.86H131.561V215H128.861ZM131.561 208.34H134.711C135.455 208.34 136.013 208.19 136.385 207.89C136.769 207.578 136.961 207.158 136.961 206.63C136.961 206.102 136.769 205.688 136.385 205.388C136.013 205.076 135.455 204.92 134.711 204.92H131.561V208.34ZM140.473 215L143.803 202.4H149.473L152.803 215H150.013L149.293 212.21H143.983L143.263 215H140.473ZM144.613 209.69H148.663L147.403 204.92H145.873L144.613 209.69ZM152.358 204.92V202.4H163.158V204.92H159.108V215H156.408V204.92H152.358ZM164.51 215V202.4H167.21V215H164.51ZM170.995 213.434C169.675 212.138 169.015 210.56 169.015 208.7C169.015 206.84 169.675 205.268 170.995 203.984C172.327 202.688 173.977 202.04 175.945 202.04C177.913 202.04 179.557 202.688 180.877 203.984C182.209 205.268 182.875 206.84 182.875 208.7C182.875 210.56 182.209 212.138 180.877 213.434C179.557 214.718 177.913 215.36 175.945 215.36C173.977 215.36 172.327 214.718 170.995 213.434ZM173.029 205.73C172.273 206.498 171.895 207.488 171.895 208.7C171.895 209.912 172.273 210.908 173.029 211.688C173.797 212.456 174.769 212.84 175.945 212.84C177.121 212.84 178.087 212.456 178.843 211.688C179.611 210.908 179.995 209.912 179.995 208.7C179.995 207.488 179.611 206.498 178.843 205.73C178.087 204.95 177.121 204.56 175.945 204.56C174.769 204.56 173.797 204.95 173.029 205.73ZM184.672 215V202.4H188.182L193.132 211.31H193.312L193.132 209.78V202.4H195.832V215H192.322L187.372 206.09H187.192L187.372 207.62V215H184.672Z" fill="white"/>
<path d="M100.791 275.973L116.242 263.615V270.945C116.242 272.328 115.756 273.512 114.783 274.496C113.799 275.48 112.615 275.973 111.232 275.973H100.791ZM111.602 260.891L96.1504 273.266V265.918C96.1504 264.535 96.6426 263.352 97.627 262.367C98.6113 261.383 99.7949 260.891 101.178 260.891H111.602ZM91.123 281H111.232C113.998 281 116.365 280.016 118.334 278.047C120.291 276.09 121.27 273.723 121.27 270.945V255.881H101.178C98.4004 255.881 96.0332 256.859 94.0762 258.816C92.1074 260.785 91.123 263.152 91.123 265.918V281ZM150.783 268.027L150.871 267.975C152.875 266.686 153.877 264.846 153.877 262.455C153.877 260.639 153.232 259.086 151.943 257.797C150.654 256.52 149.107 255.881 147.303 255.881H124.979V260.891H147.303C148.029 260.891 148.516 261.242 148.762 261.945C148.973 262.543 148.861 263.059 148.428 263.492C148.299 263.633 148.059 263.797 147.707 263.984C146.793 264.477 143.137 266.457 136.738 269.926C132.332 272.328 129.021 274.127 126.807 275.322C126.408 275.533 125.799 275.861 124.979 276.307V281H152.611V275.973H136.141L150.695 268.08L150.783 268.027Z" fill="#1CE4FF"/>
<path d="M125 35C111.8 35 101 45.8 101 59C101 72.2 111.8 83 125 83C138.2 83 149 72.2 149 59C149 45.8 138.2 35 125 35ZM125 78.2C114.44 78.2 105.8 69.56 105.8 59C105.8 48.44 114.44 39.8 125 39.8C135.56 39.8 144.2 48.44 144.2 59C144.2 69.56 135.56 78.2 125 78.2Z" fill="white"/>
<path d="M132.201 54.2C132.201 50.12 129.081 47 125.001 47H117.801V71H122.601V63.08L128.361 71L132.201 68.12L126.921 60.92C130.041 60.2 132.201 57.56 132.201 54.2ZM122.601 51.8H125.001C126.441 51.8 127.401 52.76 127.401 54.2C127.401 55.64 126.441 56.6 125.001 56.6H122.601V51.8Z" fill="white"/>
<path d="M198.338 105.52V104.4H203.138V105.52H201.338V110H200.138V105.52H198.338ZM203.739 110V104.4H205.539L206.899 107.6H207.099L208.459 104.4H210.259V110H209.059V106.44L209.139 105.72H209.059L207.779 108.72H206.219L204.939 105.72H204.859L204.939 106.44V110H203.739Z" fill="white"/>
<path d="M24 0H0V11H130V7L115 0H42V3H24V0Z" fill="#FF1C6E"/>
<path d="M232 322H256V311H126V315L141 322H176V314H180V322H184V314H188V322H192V314H196.074V322H214V319H232V322Z" fill="#FF1C6E"/>
</svg>
