<svg width="256" height="322" viewBox="0 0 256 322" fill="none" xmlns="http://www.w3.org/2000/svg">
<rect width="256" height="300" transform="translate(0 11)" fill="#FF1C6E" fill-opacity="0.1"/>
<path d="M51.8392 167V151.6H57.5592L60.7492 159.52H61.2992L64.4892 151.6H70.2092V167H66.1392V158.2L66.4692 156.22H66.2492L63.2792 163.48H58.7692L55.7992 156.22H55.5792L55.9092 158.2V167H51.8392ZM74.0337 165.548C72.8017 164.36 72.1857 162.937 72.1857 161.28C72.1857 159.623 72.8017 158.2 74.0337 157.012C75.2657 155.824 76.7764 155.23 78.5657 155.23C80.3551 155.23 81.8657 155.824 83.0977 157.012C84.3297 158.2 84.9457 159.623 84.9457 161.28C84.9457 162.937 84.3297 164.36 83.0977 165.548C81.8657 166.736 80.3551 167.33 78.5657 167.33C76.7764 167.33 75.2657 166.736 74.0337 165.548ZM76.7397 159.212C76.2704 159.725 76.0357 160.415 76.0357 161.28C76.0357 162.145 76.2704 162.842 76.7397 163.37C77.2237 163.883 77.8324 164.14 78.5657 164.14C79.2991 164.14 79.9004 163.883 80.3697 163.37C80.8537 162.842 81.0957 162.145 81.0957 161.28C81.0957 160.415 80.8537 159.725 80.3697 159.212C79.9004 158.684 79.2991 158.42 78.5657 158.42C77.8324 158.42 77.2237 158.684 76.7397 159.212ZM86.5932 167V155.56H90.3332V157.1H90.5532C90.7585 156.748 91.0225 156.44 91.3452 156.176C92.0932 155.545 92.9658 155.23 93.9632 155.23C95.3125 155.23 96.3612 155.641 97.1092 156.462C97.8718 157.269 98.2532 158.435 98.2532 159.96V167H94.5132V160.51C94.5132 159.85 94.3372 159.337 93.9852 158.97C93.6332 158.603 93.1492 158.42 92.5332 158.42C91.9025 158.42 91.3745 158.655 90.9492 159.124C90.5385 159.579 90.3332 160.187 90.3332 160.95V167H86.5932ZM99.6832 163.26H103.423C103.482 163.48 103.606 163.685 103.797 163.876C104.193 164.272 104.765 164.47 105.513 164.47C106.54 164.47 107.053 164.213 107.053 163.7C107.053 163.465 106.906 163.282 106.613 163.15C106.32 163.003 105.88 162.857 105.293 162.71C104.809 162.593 104.494 162.519 104.347 162.49C104.2 162.461 103.892 162.38 103.423 162.248C102.954 162.101 102.616 161.977 102.411 161.874C102.22 161.757 101.949 161.595 101.597 161.39C101.26 161.17 101.01 160.95 100.849 160.73C100.702 160.495 100.563 160.209 100.431 159.872C100.299 159.52 100.233 159.146 100.233 158.75C100.233 157.782 100.666 156.953 101.531 156.264C102.396 155.575 103.614 155.23 105.183 155.23C107.148 155.23 108.703 155.875 109.847 157.166C110.302 157.723 110.617 158.361 110.793 159.08H107.163C107.075 158.845 106.972 158.662 106.855 158.53C106.518 158.163 106.034 157.98 105.403 157.98C104.523 157.98 104.083 158.237 104.083 158.75C104.083 158.999 104.23 159.19 104.523 159.322C104.816 159.454 105.264 159.579 105.865 159.696C107.376 160.048 108.395 160.356 108.923 160.62C110.243 161.265 110.903 162.255 110.903 163.59C110.903 164.646 110.434 165.533 109.495 166.252C108.571 166.971 107.244 167.33 105.513 167.33C103.386 167.33 101.766 166.655 100.651 165.306C100.152 164.705 99.8298 164.023 99.6832 163.26ZM111.776 158.53V155.56H113.206V153.14H116.946V155.56H119.916V158.53H116.946V164.03H120.136V167H113.206V158.53H111.776ZM123.061 165.548C121.843 164.36 121.235 162.937 121.235 161.28C121.235 159.623 121.843 158.2 123.061 157.012C124.278 155.824 125.759 155.23 127.505 155.23C129.279 155.23 130.768 155.824 131.971 157.012C133.173 158.2 133.775 159.623 133.775 161.28V161.94H125.085C125.202 162.717 125.466 163.319 125.877 163.744C126.302 164.155 126.845 164.36 127.505 164.36C128.282 164.36 128.869 164.162 129.265 163.766C129.441 163.605 129.587 163.399 129.705 163.15H133.665C133.401 163.957 133.005 164.653 132.477 165.24C131.318 166.633 129.661 167.33 127.505 167.33C125.759 167.33 124.278 166.736 123.061 165.548ZM125.195 160.07H129.815C129.683 159.542 129.411 159.102 129.001 158.75C128.59 158.383 128.091 158.2 127.505 158.2C126.918 158.2 126.419 158.383 126.009 158.75C125.598 159.102 125.327 159.542 125.195 160.07ZM135.535 167V155.56H139.165V157.21H139.385C139.517 156.858 139.715 156.55 139.979 156.286C140.58 155.655 141.313 155.34 142.179 155.34H143.345V158.97H141.475C140.815 158.97 140.279 159.175 139.869 159.586C139.473 159.982 139.275 160.51 139.275 161.17V167H135.535ZM153.007 165.13C151.408 163.575 150.609 161.632 150.609 159.3C150.609 156.968 151.408 155.032 153.007 153.492C154.62 151.937 156.681 151.16 159.189 151.16C161.961 151.16 164.139 152.172 165.723 154.196C166.427 155.12 166.926 156.125 167.219 157.21H163.039C162.819 156.755 162.548 156.374 162.225 156.066C161.448 155.289 160.436 154.9 159.189 154.9C157.913 154.9 156.879 155.303 156.087 156.11C155.295 156.917 154.899 157.98 154.899 159.3C154.899 160.62 155.295 161.683 156.087 162.49C156.879 163.297 157.913 163.7 159.189 163.7C160.568 163.7 161.638 163.26 162.401 162.38C162.753 161.984 163.002 161.544 163.149 161.06H167.329C167.006 162.248 166.486 163.311 165.767 164.25C164.198 166.377 162.005 167.44 159.189 167.44C156.681 167.44 154.62 166.67 153.007 165.13ZM170.127 165.68C169.144 164.565 168.653 163.099 168.653 161.28C168.653 159.461 169.144 158.002 170.127 156.902C171.11 155.787 172.305 155.23 173.713 155.23C174.622 155.23 175.48 155.545 176.287 156.176C176.624 156.455 176.903 156.763 177.123 157.1H177.343V155.56H181.083V167H177.343V165.46H177.123C176.918 165.812 176.639 166.127 176.287 166.406C175.495 167.022 174.637 167.33 173.713 167.33C172.305 167.33 171.11 166.78 170.127 165.68ZM173.163 159.168C172.723 159.667 172.503 160.371 172.503 161.28C172.503 162.189 172.723 162.893 173.163 163.392C173.603 163.891 174.19 164.14 174.923 164.14C175.656 164.14 176.243 163.891 176.683 163.392C177.123 162.893 177.343 162.189 177.343 161.28C177.343 160.371 177.123 159.667 176.683 159.168C176.243 158.669 175.656 158.42 174.923 158.42C174.19 158.42 173.603 158.669 173.163 159.168ZM183.273 167V155.56H186.903V157.21H187.123C187.255 156.858 187.453 156.55 187.717 156.286C188.318 155.655 189.052 155.34 189.917 155.34H191.083V158.97H189.213C188.553 158.97 188.018 159.175 187.607 159.586C187.211 159.982 187.013 160.51 187.013 161.17V167H183.273ZM193.545 165.68C192.562 164.565 192.071 163.099 192.071 161.28C192.071 159.461 192.562 158.002 193.545 156.902C194.528 155.787 195.723 155.23 197.131 155.23C198.04 155.23 198.898 155.545 199.705 156.176C200.042 156.455 200.321 156.763 200.541 157.1H200.761V151.6H204.501V167H200.761V165.46H200.541C200.336 165.812 200.057 166.127 199.705 166.406C198.913 167.022 198.055 167.33 197.131 167.33C195.723 167.33 194.528 166.78 193.545 165.68ZM196.581 159.168C196.141 159.667 195.921 160.371 195.921 161.28C195.921 162.189 196.141 162.893 196.581 163.392C197.021 163.891 197.608 164.14 198.341 164.14C199.074 164.14 199.661 163.891 200.101 163.392C200.541 162.893 200.761 162.189 200.761 161.28C200.761 160.371 200.541 159.667 200.101 159.168C199.661 158.669 199.074 158.42 198.341 158.42C197.608 158.42 197.021 158.669 196.581 159.168ZM82.7238 190.05H86.9038C87.0358 190.417 87.2338 190.732 87.4978 190.996C88.1138 191.612 88.9792 191.92 90.0938 191.92C90.8712 191.92 91.4505 191.795 91.8318 191.546C92.2132 191.297 92.4038 190.981 92.4038 190.6C92.4038 190.439 92.3598 190.292 92.2718 190.16C92.1985 190.013 92.0665 189.881 91.8758 189.764C91.6998 189.647 91.5238 189.551 91.3478 189.478C91.1718 189.39 90.9152 189.302 90.5778 189.214C90.2552 189.111 89.9838 189.031 89.7638 188.972C89.5438 188.913 89.2212 188.833 88.7958 188.73C88.3852 188.627 88.0698 188.547 87.8498 188.488C86.4565 188.107 85.3418 187.579 84.5058 186.904C83.6845 186.229 83.2738 185.261 83.2738 184C83.2738 182.665 83.8458 181.529 84.9898 180.59C86.1485 179.637 87.7032 179.16 89.6538 179.16C92.1472 179.16 94.0098 179.967 95.2418 181.58C95.7845 182.284 96.1585 183.091 96.3638 184H92.1838C92.0958 183.765 91.9492 183.545 91.7438 183.34C91.2745 182.9 90.5778 182.68 89.6538 182.68C88.9352 182.68 88.4072 182.79 88.0698 183.01C87.7325 183.215 87.5638 183.472 87.5638 183.78C87.5638 184.191 87.8058 184.521 88.2898 184.77C88.7885 185.005 89.5145 185.232 90.4678 185.452C91.0252 185.584 91.4212 185.687 91.6558 185.76C91.9052 185.819 92.2938 185.936 92.8218 186.112C93.3645 186.273 93.7752 186.427 94.0538 186.574C94.3325 186.721 94.6625 186.926 95.0438 187.19C95.4398 187.439 95.7332 187.711 95.9238 188.004C96.1292 188.283 96.3052 188.627 96.4518 189.038C96.6132 189.449 96.6938 189.896 96.6938 190.38C96.6938 191.788 96.1145 192.983 94.9558 193.966C93.7972 194.949 92.1765 195.44 90.0938 195.44C87.4832 195.44 85.4738 194.545 84.0658 192.756C83.4645 191.979 83.0172 191.077 82.7238 190.05ZM99.7393 193.548C98.5219 192.36 97.9133 190.937 97.9133 189.28C97.9133 187.623 98.5219 186.2 99.7393 185.012C100.957 183.824 102.438 183.23 104.183 183.23C105.958 183.23 107.447 183.824 108.649 185.012C109.852 186.2 110.453 187.623 110.453 189.28V189.94H101.763C101.881 190.717 102.145 191.319 102.555 191.744C102.981 192.155 103.523 192.36 104.183 192.36C104.961 192.36 105.547 192.162 105.943 191.766C106.119 191.605 106.266 191.399 106.383 191.15H110.343C110.079 191.957 109.683 192.653 109.155 193.24C107.997 194.633 106.339 195.33 104.183 195.33C102.438 195.33 100.957 194.736 99.7393 193.548ZM101.873 188.07H106.493C106.361 187.542 106.09 187.102 105.679 186.75C105.269 186.383 104.77 186.2 104.183 186.2C103.597 186.2 103.098 186.383 102.687 186.75C102.277 187.102 102.005 187.542 101.873 188.07ZM112.213 195V183.56H115.843V185.21H116.063C116.195 184.858 116.393 184.55 116.657 184.286C117.259 183.655 117.992 183.34 118.857 183.34H120.023V186.97H118.153C117.493 186.97 116.958 187.175 116.547 187.586C116.151 187.982 115.953 188.51 115.953 189.17V195H112.213ZM121.342 180.48C121.342 179.952 121.54 179.512 121.936 179.16C122.332 178.793 122.83 178.61 123.432 178.61C124.033 178.61 124.532 178.793 124.928 179.16C125.324 179.512 125.522 179.952 125.522 180.48C125.522 180.993 125.324 181.433 124.928 181.8C124.532 182.167 124.033 182.35 123.432 182.35C122.83 182.35 122.332 182.167 121.936 181.8C121.54 181.433 121.342 180.993 121.342 180.48ZM121.562 195V183.56H125.302V195H121.562ZM128.894 193.548C127.676 192.36 127.068 190.937 127.068 189.28C127.068 187.623 127.676 186.2 128.894 185.012C130.111 183.824 131.592 183.23 133.338 183.23C135.112 183.23 136.601 183.824 137.804 185.012C139.006 186.2 139.608 187.623 139.608 189.28V189.94H130.918C131.035 190.717 131.299 191.319 131.71 191.744C132.135 192.155 132.678 192.36 133.338 192.36C134.115 192.36 134.702 192.162 135.098 191.766C135.274 191.605 135.42 191.399 135.538 191.15H139.498C139.234 191.957 138.838 192.653 138.31 193.24C137.151 194.633 135.494 195.33 133.338 195.33C131.592 195.33 130.111 194.736 128.894 193.548ZM131.028 188.07H135.648C135.516 187.542 135.244 187.102 134.834 186.75C134.423 186.383 133.924 186.2 133.338 186.2C132.751 186.2 132.252 186.383 131.842 186.75C131.431 187.102 131.16 187.542 131.028 188.07ZM140.708 191.26H144.448C144.506 191.48 144.631 191.685 144.822 191.876C145.218 192.272 145.79 192.47 146.538 192.47C147.564 192.47 148.078 192.213 148.078 191.7C148.078 191.465 147.931 191.282 147.638 191.15C147.344 191.003 146.904 190.857 146.318 190.71C145.834 190.593 145.518 190.519 145.372 190.49C145.225 190.461 144.917 190.38 144.448 190.248C143.978 190.101 143.641 189.977 143.436 189.874C143.245 189.757 142.974 189.595 142.622 189.39C142.284 189.17 142.035 188.95 141.874 188.73C141.727 188.495 141.588 188.209 141.456 187.872C141.324 187.52 141.258 187.146 141.258 186.75C141.258 185.782 141.69 184.953 142.556 184.264C143.421 183.575 144.638 183.23 146.208 183.23C148.173 183.23 149.728 183.875 150.872 185.166C151.326 185.723 151.642 186.361 151.818 187.08H148.188C148.1 186.845 147.997 186.662 147.88 186.53C147.542 186.163 147.058 185.98 146.428 185.98C145.548 185.98 145.108 186.237 145.108 186.75C145.108 186.999 145.254 187.19 145.548 187.322C145.841 187.454 146.288 187.579 146.89 187.696C148.4 188.048 149.42 188.356 149.948 188.62C151.268 189.265 151.928 190.255 151.928 191.59C151.928 192.646 151.458 193.533 150.52 194.252C149.596 194.971 148.268 195.33 146.538 195.33C144.411 195.33 142.79 194.655 141.676 193.306C141.177 192.705 140.854 192.023 140.708 191.26ZM159.297 186.09V181.8L162.487 179.6H166.227V195H162.047V184.22L159.297 186.09ZM80.596 223V207.6H84.666V219.26H92.036V223H80.596ZM92.25 223L96.43 207.6H103.91L108.09 223H103.91L103.14 219.92H97.2L96.43 223H92.25ZM98.08 216.4H102.26L100.94 211.34H99.4L98.08 216.4ZM109.404 216.84V207.6H113.474V216.73C113.474 217.654 113.731 218.38 114.244 218.908C114.757 219.436 115.454 219.7 116.334 219.7C117.214 219.7 117.911 219.436 118.424 218.908C118.937 218.38 119.194 217.654 119.194 216.73V207.6H123.264V216.84C123.264 218.835 122.641 220.433 121.394 221.636C120.147 222.839 118.461 223.44 116.334 223.44C114.207 223.44 112.521 222.839 111.274 221.636C110.027 220.433 109.404 218.835 109.404 216.84ZM126.014 223V207.6H130.964L136.354 217.28H136.574L136.244 215.3V207.6H140.314V223H135.364L129.974 213.32H129.754L130.084 215.3V223H126.014ZM144.918 221.13C143.319 219.575 142.52 217.632 142.52 215.3C142.52 212.968 143.319 211.032 144.918 209.492C146.531 207.937 148.592 207.16 151.1 207.16C153.872 207.16 156.05 208.172 157.634 210.196C158.338 211.12 158.837 212.125 159.13 213.21H154.95C154.73 212.755 154.459 212.374 154.136 212.066C153.359 211.289 152.347 210.9 151.1 210.9C149.824 210.9 148.79 211.303 147.998 212.11C147.206 212.917 146.81 213.98 146.81 215.3C146.81 216.62 147.206 217.683 147.998 218.49C148.79 219.297 149.824 219.7 151.1 219.7C152.479 219.7 153.549 219.26 154.312 218.38C154.664 217.984 154.913 217.544 155.06 217.06H159.24C158.917 218.248 158.397 219.311 157.678 220.25C156.109 222.377 153.916 223.44 151.1 223.44C148.592 223.44 146.531 222.67 144.918 221.13ZM161.334 223V207.6H165.404V213.32H171.344V207.6H175.414V223H171.344V217.06H165.404V223H161.334Z" fill="white"/>
<path d="M65.9233 126V109.2H71.3233L77.2033 119.76H77.4433L77.0833 117.6V109.2H81.5233V126H76.1233L70.2433 115.44H70.0033L70.3633 117.6V126H65.9233ZM84.6498 126V109.2H97.3698V113.28H89.0898V116.52H95.4498V120.36H89.0898V126H84.6498ZM98.2127 113.28V109.2H113.213V113.28H107.933V126H103.493V113.28H98.2127ZM120.533 126V109.2H127.037C129.805 109.2 132.053 110.008 133.781 111.624C135.509 113.224 136.373 115.216 136.373 117.6C136.373 119.984 135.509 121.984 133.781 123.6C132.053 125.2 129.805 126 127.037 126H120.533ZM124.973 121.92H127.013C128.501 121.92 129.653 121.536 130.469 120.768C131.285 120 131.693 118.944 131.693 117.6C131.693 116.256 131.285 115.2 130.469 114.432C129.653 113.664 128.501 113.28 127.013 113.28H124.973V121.92ZM138.767 126V109.2H147.167C149.167 109.2 150.783 109.768 152.015 110.904C153.263 112.024 153.887 113.416 153.887 115.08C153.887 117.24 152.767 118.92 150.527 120.12L154.007 126H149.207L146.207 120.96H143.207V126H138.767ZM143.207 116.88H147.047C147.735 116.88 148.287 116.704 148.703 116.352C149.119 116 149.327 115.576 149.327 115.08C149.327 114.584 149.119 114.16 148.703 113.808C148.287 113.456 147.735 113.28 147.047 113.28H143.207V116.88ZM158.335 123.888C156.575 122.144 155.695 120.048 155.695 117.6C155.695 115.152 156.575 113.064 158.335 111.336C160.111 109.592 162.351 108.72 165.055 108.72C167.759 108.72 169.991 109.592 171.751 111.336C173.527 113.064 174.415 115.152 174.415 117.6C174.415 120.048 173.527 122.144 171.751 123.888C169.991 125.616 167.759 126.48 165.055 126.48C162.351 126.48 160.111 125.616 158.335 123.888ZM161.671 114.12C160.807 115 160.375 116.16 160.375 117.6C160.375 119.04 160.807 120.2 161.671 121.08C162.535 121.96 163.663 122.4 165.055 122.4C166.447 122.4 167.575 121.96 168.439 121.08C169.303 120.2 169.735 119.04 169.735 117.6C169.735 116.16 169.303 115 168.439 114.12C167.575 113.24 166.447 112.8 165.055 112.8C163.663 112.8 162.535 113.24 161.671 114.12ZM176.806 126V109.2H184.966C187.03 109.2 188.702 109.792 189.982 110.976C191.278 112.144 191.926 113.592 191.926 115.32C191.926 117.048 191.278 118.504 189.982 119.688C188.702 120.856 187.03 121.44 184.966 121.44H181.246V126H176.806ZM181.246 117.36H184.846C185.678 117.36 186.302 117.176 186.718 116.808C187.15 116.44 187.366 115.944 187.366 115.32C187.366 114.696 187.15 114.2 186.718 113.832C186.302 113.464 185.678 113.28 184.846 113.28H181.246V117.36Z" fill="white"/>
<path d="M116.961 275.973L132.412 263.615V270.945C132.412 272.328 131.926 273.512 130.953 274.496C129.969 275.48 128.785 275.973 127.402 275.973H116.961ZM127.771 260.891L112.32 273.266V265.918C112.32 264.535 112.812 263.352 113.797 262.367C114.781 261.383 115.965 260.891 117.348 260.891H127.771ZM107.293 281H127.402C130.168 281 132.535 280.016 134.504 278.047C136.461 276.09 137.439 273.723 137.439 270.945V255.881H117.348C114.57 255.881 112.203 256.859 110.246 258.816C108.277 260.785 107.293 263.152 107.293 265.918V281ZM141.148 255.881V260.891H143.662V281H148.689V255.881H141.148Z" fill="#1CE4FF"/>
<path d="M107.199 51.8247V66.1791C107.201 67.5909 107.578 68.977 108.289 70.1962C109.001 71.4154 110.024 72.4242 111.252 73.1199L124.052 80.3623C125.26 81.0309 126.618 81.3817 127.999 81.3817C129.38 81.3817 130.738 81.0309 131.946 80.3623L144.746 73.1199C145.974 72.4242 146.996 71.4154 147.708 70.1962C148.42 68.977 148.797 67.591 148.799 66.1791V51.8247C148.797 50.4129 148.421 49.0268 147.709 47.8076C146.997 46.5884 145.975 45.5796 144.746 44.8839L131.946 37.6407C130.742 36.9596 129.382 36.6016 127.998 36.6016C126.615 36.6016 125.255 36.9596 124.05 37.6407L111.25 44.8831C110.022 45.5792 109 46.5882 108.289 47.8076C107.577 49.0269 107.201 50.4129 107.199 51.8247V51.8247ZM112.434 46.9719L125.234 39.7295C126.078 39.2548 127.03 39.0054 127.999 39.0054C128.967 39.0054 129.92 39.2548 130.764 39.7295L143.564 46.9719C144.423 47.4581 145.138 48.1633 145.636 49.0158C146.134 49.8682 146.398 50.8374 146.399 51.8247V66.1791C146.398 67.1663 146.134 68.1353 145.636 68.9876C145.138 69.84 144.423 70.545 143.564 71.0311L130.764 78.2735C129.92 78.7482 128.967 78.9976 127.999 78.9976C127.03 78.9976 126.078 78.7482 125.234 78.2735L112.434 71.0311C111.575 70.5448 110.86 69.8396 110.362 68.9873C109.864 68.1351 109.601 67.1661 109.599 66.1791V51.8247C109.601 50.8376 109.864 49.8685 110.362 49.0161C110.86 48.1637 111.575 47.4584 112.434 46.9719V46.9719Z" fill="white"/>
<path d="M113.222 69.6385L126.022 76.8809C126.626 77.2195 127.307 77.3974 128 77.3974C128.692 77.3974 129.373 77.2195 129.977 76.8809L142.777 69.6385C143.39 69.2915 143.9 68.7883 144.255 68.1801C144.61 67.5719 144.798 66.8804 144.799 66.1761V51.8217C144.798 51.1171 144.611 50.4255 144.255 49.8171C143.9 49.2087 143.39 48.7054 142.777 48.3585L129.977 41.1153C129.373 40.7759 128.692 40.5977 128 40.5977C127.307 40.5977 126.626 40.7759 126.022 41.1153L113.222 48.3585C112.609 48.7052 112.099 49.2085 111.743 49.8169C111.388 50.4253 111.2 51.1171 111.199 51.8217V66.1761C111.2 66.8805 111.388 67.5721 111.744 68.1803C112.099 68.7885 112.609 69.2917 113.222 69.6385V69.6385ZM134.399 51.7985H140.799C141.011 51.7985 141.215 51.8827 141.365 52.0328C141.515 52.1828 141.599 52.3863 141.599 52.5985C141.599 52.8106 141.515 53.0141 141.365 53.1641C141.215 53.3142 141.011 53.3985 140.799 53.3985H138.399V65.3985C138.399 65.6106 138.315 65.8141 138.165 65.9642C138.015 66.1142 137.811 66.1985 137.599 66.1985C137.387 66.1985 137.184 66.1142 137.034 65.9642C136.884 65.8141 136.799 65.6106 136.799 65.3985V53.3985H134.399C134.187 53.3985 133.984 53.3142 133.834 53.1641C133.684 53.0141 133.599 52.8106 133.599 52.5985C133.599 52.3863 133.684 52.1828 133.834 52.0328C133.984 51.8827 134.187 51.7985 134.399 51.7985ZM124.799 52.5985C124.799 52.3863 124.884 52.1828 125.034 52.0328C125.184 51.8827 125.387 51.7985 125.599 51.7985H131.999C132.211 51.7985 132.415 51.8827 132.565 52.0328C132.715 52.1828 132.799 52.3863 132.799 52.5985C132.799 52.8106 132.715 53.0141 132.565 53.1641C132.415 53.3142 132.211 53.3985 131.999 53.3985H126.399V58.1985H129.599C129.811 58.1985 130.015 58.2827 130.165 58.4328C130.315 58.5828 130.399 58.7863 130.399 58.9985C130.399 59.2106 130.315 59.4141 130.165 59.5641C130.015 59.7142 129.811 59.7985 129.599 59.7985H126.399V65.3985C126.399 65.6106 126.315 65.8141 126.165 65.9642C126.015 66.1142 125.811 66.1985 125.599 66.1985C125.387 66.1985 125.184 66.1142 125.034 65.9642C124.884 65.8141 124.799 65.6106 124.799 65.3985V52.5985ZM114.399 52.5985C114.399 52.4181 114.46 52.243 114.572 52.1015C114.684 51.96 114.84 51.8605 115.016 51.8191C115.191 51.7777 115.375 51.7968 115.539 51.8734C115.702 51.9499 115.835 52.0794 115.915 52.2409L120.799 62.0097V52.5985C120.799 52.3863 120.884 52.1828 121.034 52.0328C121.184 51.8827 121.387 51.7985 121.599 51.7985C121.811 51.7985 122.015 51.8827 122.165 52.0328C122.315 52.1828 122.399 52.3863 122.399 52.5985V65.3985C122.399 65.5788 122.339 65.7538 122.227 65.8952C122.115 66.0367 121.959 66.1362 121.783 66.1777C121.723 66.1912 121.661 66.1982 121.599 66.1985C121.451 66.1985 121.305 66.1572 121.178 66.079C121.052 66.0009 120.95 65.8891 120.883 65.7561L115.999 55.9873V65.3985C115.999 65.6106 115.915 65.8141 115.765 65.9642C115.615 66.1142 115.411 66.1985 115.199 66.1985C114.987 66.1985 114.784 66.1142 114.634 65.9642C114.484 65.8141 114.399 65.6106 114.399 65.3985V52.5985Z" fill="white"/>
<path d="M24 0H0V11H130V7L115 0H42V3H24V0Z" fill="#FF1C6E"/>
<path d="M232 322H256V311H126V315L141 322H176V314H180V322H184V314H188V322H192V314H196.074V322H214V319H232V322Z" fill="#FF1C6E"/>
</svg>
