<svg width="311" height="322" viewBox="0 0 311 322" fill="none" xmlns="http://www.w3.org/2000/svg">
<line x1="1.74846e-07" y1="313" x2="181" y2="313" stroke="#FF1C6E" stroke-width="4"/>
<line x1="98" y1="9" x2="311" y2="9" stroke="#FF1C6E" stroke-width="4"/>
<rect width="311" height="300" transform="translate(0 11)" fill="#FF1C6E" fill-opacity="0.4"/>
<line x1="2" y1="11" x2="1.99999" y2="150" stroke="#FF1C6E" stroke-width="4"/>
<path d="M66.1094 125L69.1494 113.8H74.5894L77.6294 125H74.5894L74.0294 122.76H69.7094L69.1494 125H66.1094ZM70.3494 120.2H73.3894L72.4294 116.52H71.3094L70.3494 120.2ZM78.665 125V113.8H84.265C85.5983 113.8 86.6757 114.179 87.497 114.936C88.329 115.683 88.745 116.611 88.745 117.72C88.745 119.16 87.9983 120.28 86.505 121.08L88.825 125H85.625L83.625 121.64H81.625V125H78.665ZM81.625 118.92H84.185C84.6437 118.92 85.0117 118.803 85.289 118.568C85.5663 118.333 85.705 118.051 85.705 117.72C85.705 117.389 85.5663 117.107 85.289 116.872C85.0117 116.637 84.6437 116.52 84.185 116.52H81.625V118.92ZM89.5506 116.52V113.8H99.5506V116.52H96.0306V125H93.0706V116.52H89.5506ZM99.9431 113.8H102.903L104.343 121.64H104.503L106.007 113.8H109.559L111.063 121.64H111.223L112.663 113.8H115.623L113.303 125H109.303L107.863 117.48H107.703L106.263 125H102.263L99.9431 113.8ZM118.179 123.592C117.006 122.429 116.419 121.032 116.419 119.4C116.419 117.768 117.006 116.376 118.179 115.224C119.363 114.061 120.857 113.48 122.659 113.48C124.462 113.48 125.95 114.061 127.123 115.224C128.307 116.376 128.899 117.768 128.899 119.4C128.899 121.032 128.307 122.429 127.123 123.592C125.95 124.744 124.462 125.32 122.659 125.32C120.857 125.32 119.363 124.744 118.179 123.592ZM120.403 117.08C119.827 117.667 119.539 118.44 119.539 119.4C119.539 120.36 119.827 121.133 120.403 121.72C120.979 122.307 121.731 122.6 122.659 122.6C123.587 122.6 124.339 122.307 124.915 121.72C125.491 121.133 125.779 120.36 125.779 119.4C125.779 118.44 125.491 117.667 124.915 117.08C124.339 116.493 123.587 116.2 122.659 116.2C121.731 116.2 120.979 116.493 120.403 117.08ZM130.493 125V113.8H136.093C137.426 113.8 138.504 114.179 139.325 114.936C140.157 115.683 140.573 116.611 140.573 117.72C140.573 119.16 139.826 120.28 138.333 121.08L140.653 125H137.453L135.453 121.64H133.453V125H130.493ZM133.453 118.92H136.013C136.472 118.92 136.84 118.803 137.117 118.568C137.394 118.333 137.533 118.051 137.533 117.72C137.533 117.389 137.394 117.107 137.117 116.872C136.84 116.637 136.472 116.52 136.013 116.52H133.453V118.92ZM142.259 125V113.8H145.219V117.96H146.499L149.219 113.8H152.579L149.059 119.08L152.819 125H149.459L146.659 120.68H145.219V125H142.259ZM159.601 123.64C158.438 122.509 157.857 121.096 157.857 119.4C157.857 117.704 158.438 116.296 159.601 115.176C160.774 114.045 162.273 113.48 164.097 113.48C166.113 113.48 167.697 114.216 168.849 115.688C169.361 116.36 169.724 117.091 169.937 117.88H166.897C166.737 117.549 166.54 117.272 166.305 117.048C165.74 116.483 165.004 116.2 164.097 116.2C163.169 116.2 162.417 116.493 161.841 117.08C161.265 117.667 160.977 118.44 160.977 119.4C160.977 120.36 161.265 121.133 161.841 121.72C162.417 122.307 163.169 122.6 164.097 122.6C165.1 122.6 165.878 122.28 166.433 121.64C166.689 121.352 166.87 121.032 166.977 120.68H170.017C169.782 121.544 169.404 122.317 168.881 123C167.74 124.547 166.145 125.32 164.097 125.32C162.273 125.32 160.774 124.76 159.601 123.64ZM171.54 125V113.8H177.14C178.473 113.8 179.551 114.179 180.372 114.936C181.204 115.683 181.62 116.611 181.62 117.72C181.62 119.16 180.873 120.28 179.38 121.08L181.7 125H178.5L176.5 121.64H174.5V125H171.54ZM174.5 118.92H177.06C177.519 118.92 177.887 118.803 178.164 118.568C178.441 118.333 178.58 118.051 178.58 117.72C178.58 117.389 178.441 117.107 178.164 116.872C177.887 116.637 177.519 116.52 177.06 116.52H174.5V118.92ZM183.306 125V113.8H191.946V116.52H186.266V118.2H190.826V120.6H186.266V122.28H191.946V125H183.306ZM192.578 125L195.618 113.8H201.058L204.098 125H201.058L200.498 122.76H196.178L195.618 125H192.578ZM196.818 120.2H199.858L198.898 116.52H197.778L196.818 120.2ZM203.613 116.52V113.8H213.613V116.52H210.093V125H207.133V116.52H203.613ZM214.806 125V113.8H217.766V125H214.806ZM221.133 123.592C219.959 122.429 219.373 121.032 219.373 119.4C219.373 117.768 219.959 116.376 221.133 115.224C222.317 114.061 223.81 113.48 225.613 113.48C227.415 113.48 228.903 114.061 230.077 115.224C231.261 116.376 231.853 117.768 231.853 119.4C231.853 121.032 231.261 122.429 230.077 123.592C228.903 124.744 227.415 125.32 225.613 125.32C223.81 125.32 222.317 124.744 221.133 123.592ZM223.357 117.08C222.781 117.667 222.493 118.44 222.493 119.4C222.493 120.36 222.781 121.133 223.357 121.72C223.933 122.307 224.685 122.6 225.613 122.6C226.541 122.6 227.293 122.307 227.869 121.72C228.445 121.133 228.733 120.36 228.733 119.4C228.733 118.44 228.445 117.667 227.869 117.08C227.293 116.493 226.541 116.2 225.613 116.2C224.685 116.2 223.933 116.493 223.357 117.08ZM233.446 125V113.8H237.046L240.966 120.84H241.126L240.886 119.4V113.8H243.846V125H240.246L236.326 117.96H236.166L236.406 119.4V125H233.446Z" fill="white"/>
<path d="M82.6638 167.47C81.3678 166.198 80.7198 164.608 80.7198 162.7C80.7198 160.792 81.3678 159.208 82.6638 157.948C83.9718 156.676 85.6338 156.04 87.6498 156.04C89.9178 156.04 91.6578 156.838 92.8698 158.434C93.4218 159.142 93.8118 159.934 94.0398 160.81H91.2498C91.0938 160.402 90.8538 160.03 90.5298 159.694C89.7738 158.938 88.8138 158.56 87.6498 158.56C86.4738 158.56 85.5018 158.95 84.7338 159.73C83.9778 160.498 83.5998 161.488 83.5998 162.7C83.5998 163.96 83.9658 164.968 84.6978 165.724C85.4418 166.468 86.4258 166.84 87.6498 166.84C88.8738 166.84 89.8578 166.42 90.6018 165.58C90.9378 165.184 91.1838 164.764 91.3398 164.32H94.1298C93.8538 165.268 93.4398 166.108 92.8878 166.84C91.5918 168.52 89.8458 169.36 87.6498 169.36C85.6338 169.36 83.9718 168.73 82.6638 167.47ZM95.6521 169V159.82H98.1721V161.17H98.2621C98.3701 160.882 98.5321 160.63 98.7481 160.414C99.2401 159.898 99.8581 159.64 100.602 159.64H101.682V162.07H100.332C99.6481 162.07 99.1141 162.256 98.7301 162.628C98.3581 162.988 98.1721 163.492 98.1721 164.14V169H95.6521ZM102.137 159.82H104.747L106.547 166.84H107.267L109.247 159.82H111.857L108.167 172.42H105.557L106.547 169H104.567L102.137 159.82ZM112.844 172.42V159.82H115.364V160.99H115.454C115.646 160.738 115.88 160.498 116.156 160.27C116.804 159.79 117.53 159.55 118.334 159.55C119.534 159.55 120.536 160 121.34 160.9C122.156 161.788 122.564 162.958 122.564 164.41C122.564 165.862 122.156 167.038 121.34 167.938C120.536 168.826 119.534 169.27 118.334 169.27C117.53 169.27 116.804 169.03 116.156 168.55C115.88 168.322 115.646 168.082 115.454 167.83H115.364V172.42H112.844ZM116.012 162.43C115.58 162.898 115.364 163.558 115.364 164.41C115.364 165.262 115.58 165.928 116.012 166.408C116.444 166.876 117.008 167.11 117.704 167.11C118.364 167.11 118.904 166.87 119.324 166.39C119.744 165.91 119.954 165.25 119.954 164.41C119.954 163.57 119.744 162.91 119.324 162.43C118.904 161.95 118.364 161.71 117.704 161.71C117.008 161.71 116.444 161.95 116.012 162.43ZM123.374 161.98V159.82H124.544V157.84H127.064V159.82H129.656V161.98H127.064V166.84H129.764V169H124.544V161.98H123.374ZM132.095 167.866C131.135 166.918 130.655 165.766 130.655 164.41C130.655 163.054 131.135 161.908 132.095 160.972C133.055 160.024 134.255 159.55 135.695 159.55C137.123 159.55 138.317 160.024 139.277 160.972C140.249 161.908 140.735 163.054 140.735 164.41C140.735 165.766 140.249 166.918 139.277 167.866C138.317 168.802 137.123 169.27 135.695 169.27C134.255 169.27 133.055 168.802 132.095 167.866ZM133.967 162.466C133.499 162.97 133.265 163.618 133.265 164.41C133.265 165.202 133.499 165.85 133.967 166.354C134.435 166.858 135.011 167.11 135.695 167.11C136.379 167.11 136.955 166.858 137.423 166.354C137.891 165.85 138.125 165.202 138.125 164.41C138.125 163.618 137.891 162.97 137.423 162.466C136.955 161.962 136.379 161.71 135.695 161.71C135.011 161.71 134.435 161.962 133.967 162.466ZM143.765 167.47C142.469 166.198 141.821 164.608 141.821 162.7C141.821 160.792 142.469 159.208 143.765 157.948C145.073 156.676 146.735 156.04 148.751 156.04C151.019 156.04 152.759 156.838 153.971 158.434C154.523 159.142 154.913 159.934 155.141 160.81H152.351C152.195 160.402 151.955 160.03 151.631 159.694C150.875 158.938 149.915 158.56 148.751 158.56C147.575 158.56 146.603 158.95 145.835 159.73C145.079 160.498 144.701 161.488 144.701 162.7C144.701 163.96 145.067 164.968 145.799 165.724C146.543 166.468 147.527 166.84 148.751 166.84C149.975 166.84 150.959 166.42 151.703 165.58C152.039 165.184 152.285 164.764 152.441 164.32H155.231C154.955 165.268 154.541 166.108 153.989 166.84C152.693 168.52 150.947 169.36 148.751 169.36C146.735 169.36 145.073 168.73 143.765 167.47ZM156.754 169V159.82H159.274V161.17H159.364C159.472 160.882 159.634 160.63 159.85 160.414C160.342 159.898 160.96 159.64 161.704 159.64H162.784V162.07H161.434C160.75 162.07 160.216 162.256 159.832 162.628C159.46 162.988 159.274 163.492 159.274 164.14V169H156.754ZM164.931 167.866C163.983 166.918 163.509 165.766 163.509 164.41C163.509 163.054 163.983 161.908 164.931 160.972C165.891 160.024 167.067 159.55 168.459 159.55C169.875 159.55 171.039 160.018 171.951 160.954C172.863 161.89 173.319 163.042 173.319 164.41V164.95H166.119C166.215 165.55 166.485 166.06 166.929 166.48C167.373 166.9 167.883 167.11 168.459 167.11C169.095 167.11 169.641 166.93 170.097 166.57C170.277 166.414 170.421 166.234 170.529 166.03H173.229C173.025 166.642 172.725 167.182 172.329 167.65C171.369 168.73 170.079 169.27 168.459 169.27C167.067 169.27 165.891 168.802 164.931 167.866ZM166.209 163.42H170.619C170.523 162.94 170.277 162.538 169.881 162.214C169.497 161.878 169.023 161.71 168.459 161.71C167.895 161.71 167.415 161.872 167.019 162.196C166.623 162.52 166.353 162.928 166.209 163.42ZM175.598 167.938C174.794 167.038 174.392 165.862 174.392 164.41C174.392 162.958 174.794 161.788 175.598 160.9C176.414 160 177.422 159.55 178.622 159.55C179.426 159.55 180.152 159.79 180.8 160.27C181.076 160.498 181.31 160.738 181.502 160.99H181.592V159.82H184.112V169H181.592V167.83H181.502C181.31 168.082 181.076 168.322 180.8 168.55C180.152 169.03 179.426 169.27 178.622 169.27C177.422 169.27 176.414 168.826 175.598 167.938ZM177.632 162.43C177.212 162.91 177.002 163.57 177.002 164.41C177.002 165.25 177.212 165.91 177.632 166.39C178.052 166.87 178.592 167.11 179.252 167.11C179.948 167.11 180.512 166.876 180.944 166.408C181.376 165.928 181.592 165.262 181.592 164.41C181.592 163.558 181.376 162.898 180.944 162.43C180.512 161.95 179.948 161.71 179.252 161.71C178.592 161.71 178.052 161.95 177.632 162.43ZM185.372 161.98V159.82H186.542V157.84H189.062V159.82H191.654V161.98H189.062V166.84H191.762V169H186.542V161.98H185.372ZM193.193 165.4V159.82H195.713V165.04C195.713 165.712 195.875 166.228 196.199 166.588C196.535 166.936 197.003 167.11 197.603 167.11C198.203 167.11 198.713 166.882 199.133 166.426C199.553 165.97 199.763 165.388 199.763 164.68V159.82H202.283V169H199.763V167.74H199.673C199.529 168.016 199.307 168.274 199.007 168.514C198.359 169.018 197.621 169.27 196.793 169.27C195.653 169.27 194.765 168.94 194.129 168.28C193.505 167.62 193.193 166.66 193.193 165.4ZM204.267 169V159.82H206.787V161.17H206.877C206.985 160.882 207.147 160.63 207.363 160.414C207.855 159.898 208.473 159.64 209.217 159.64H210.297V162.07H208.947C208.263 162.07 207.729 162.256 207.345 162.628C206.973 162.988 206.787 163.492 206.787 164.14V169H204.267ZM212.444 167.866C211.496 166.918 211.022 165.766 211.022 164.41C211.022 163.054 211.496 161.908 212.444 160.972C213.404 160.024 214.58 159.55 215.972 159.55C217.388 159.55 218.552 160.018 219.464 160.954C220.376 161.89 220.832 163.042 220.832 164.41V164.95H213.632C213.728 165.55 213.998 166.06 214.442 166.48C214.886 166.9 215.396 167.11 215.972 167.11C216.608 167.11 217.154 166.93 217.61 166.57C217.79 166.414 217.934 166.234 218.042 166.03H220.742C220.538 166.642 220.238 167.182 219.842 167.65C218.882 168.73 217.592 169.27 215.972 169.27C214.58 169.27 213.404 168.802 212.444 167.866ZM213.722 163.42H218.132C218.036 162.94 217.79 162.538 217.394 162.214C217.01 161.878 216.536 161.71 215.972 161.71C215.408 161.71 214.928 161.872 214.532 162.196C214.136 162.52 213.866 162.928 213.722 163.42ZM221.725 166.03H224.335C224.419 166.246 224.551 166.444 224.731 166.624C225.115 167.008 225.643 167.2 226.315 167.2C227.335 167.2 227.845 166.9 227.845 166.3C227.845 166.204 227.821 166.12 227.773 166.048C227.725 165.964 227.641 165.892 227.521 165.832C227.401 165.76 227.287 165.7 227.179 165.652C227.071 165.604 226.909 165.556 226.693 165.508C226.489 165.448 226.321 165.406 226.189 165.382C226.069 165.358 225.871 165.316 225.595 165.256C225.331 165.196 225.139 165.154 225.019 165.13C223.123 164.722 222.175 163.792 222.175 162.34C222.175 161.572 222.517 160.918 223.201 160.378C223.897 159.826 224.845 159.55 226.045 159.55C227.653 159.55 228.859 160.048 229.663 161.044C230.011 161.476 230.245 161.968 230.365 162.52H227.845C227.761 162.34 227.653 162.19 227.521 162.07C227.149 161.77 226.657 161.62 226.045 161.62C225.613 161.62 225.295 161.692 225.091 161.836C224.887 161.968 224.785 162.136 224.785 162.34C224.785 162.412 224.797 162.484 224.821 162.556C224.857 162.616 224.911 162.676 224.983 162.736C225.055 162.784 225.127 162.832 225.199 162.88C225.271 162.916 225.373 162.958 225.505 163.006C225.637 163.042 225.751 163.078 225.847 163.114C225.955 163.15 226.093 163.186 226.261 163.222C226.429 163.258 226.573 163.288 226.693 163.312C226.813 163.336 226.969 163.372 227.161 163.42C227.353 163.456 227.509 163.486 227.629 163.51C229.513 163.93 230.455 164.86 230.455 166.3C230.455 167.104 230.083 167.8 229.339 168.388C228.595 168.976 227.587 169.27 226.315 169.27C224.611 169.27 223.351 168.73 222.535 167.65C222.163 167.158 221.893 166.618 221.725 166.03Z" fill="white"/>
<path d="M96.7944 226V209.2H103.034L106.514 217.84H107.114L110.594 209.2H116.834V226H112.394V216.4L112.754 214.24H112.514L109.274 222.16H104.354L101.114 214.24H100.874L101.234 216.4V226H96.7944ZM119.951 226V209.2H124.391V226H119.951ZM127.521 226V209.2H132.921L138.801 219.76H139.041L138.681 217.6V209.2H143.121V226H137.721L131.841 215.44H131.601L131.961 217.6V226H127.521ZM144.928 213.28V209.2H159.928V213.28H154.648V226H150.208V213.28H144.928ZM167.248 226V209.2H172.648L178.528 219.76H178.768L178.408 217.6V209.2H182.848V226H177.448L171.568 215.44H171.328L171.688 217.6V226H167.248ZM185.974 226V209.2H198.694V213.28H190.414V216.52H196.774V220.36H190.414V226H185.974ZM199.537 213.28V209.2H214.537V213.28H209.257V226H204.817V213.28H199.537Z" fill="white"/>
<path d="M110.395 272.945C110.395 274.328 109.908 275.512 108.936 276.496C107.951 277.48 106.768 277.973 105.385 277.973H90.3027V262.891H105.385C106.768 262.891 107.951 263.383 108.936 264.367C109.908 265.352 110.395 266.535 110.395 267.918V272.945ZM85.2754 257.881V283H105.385C108.15 283 110.518 282.016 112.486 280.047C114.443 278.09 115.422 275.723 115.422 272.945V267.918C115.422 265.152 114.443 262.785 112.486 260.816C110.518 258.859 108.15 257.881 105.385 257.881H85.2754ZM144.25 272.945C144.25 274.328 143.764 275.512 142.791 276.496C141.807 277.48 140.623 277.973 139.24 277.973H124.158V267.918C124.158 266.535 124.65 265.352 125.635 264.367C126.619 263.383 127.803 262.891 129.186 262.891H144.25V272.945ZM119.131 283H139.24C142.006 283 144.373 282.016 146.342 280.047C148.299 278.09 149.277 275.723 149.277 272.945V257.881H129.186C126.408 257.881 124.041 258.859 122.084 260.816C120.115 262.785 119.131 265.152 119.131 267.918V283ZM178.105 257.881V276.936L159.051 257.881H152.986V283H158.014V263.945L177.068 283H183.133V257.881H178.105ZM186.842 257.881V283H216.988V277.973H191.869V272.945H216.988V267.918H191.869V262.891H216.988V257.881H186.842ZM220.697 283H225.725V277.973H220.697V283ZM220.697 276.725H225.725V257.881H220.697V276.725Z" fill="#FFD700"/>
<path d="M151.375 72.2828V86.375H138.688V80.9375L131.305 72.0798C130.22 70.7766 129.625 69.1345 129.625 67.438V51.0312C129.625 49.5305 130.843 48.3125 132.344 48.3125C133.845 48.3125 135.062 49.5305 135.062 51.0312V57.4729C133.834 58.7235 133.245 60.3203 133.25 61.9099C133.255 63.3925 133.794 64.7972 134.564 65.7506L138.601 71.15C139.2 71.9511 140.335 72.1161 141.136 71.5161C141.937 70.9162 142.102 69.7797 141.502 68.9804L137.426 63.5302C136.647 62.5587 136.656 60.9909 137.667 59.9814C138.619 59.0298 140.496 58.9845 141.477 59.9651L149.818 68.4748C150.822 69.4988 151.375 70.8509 151.375 72.2828V72.2828Z" fill="white"/>
<path d="M180.375 51.0312V67.438C180.375 69.1345 179.78 70.7766 178.695 72.0798L171.312 80.9375V86.375H158.625V72.2828C158.625 70.8509 159.178 69.4988 160.18 68.4748L168.521 59.9651C169.498 58.9881 171.372 59.0207 172.331 59.9814C173.343 60.9891 173.353 62.5587 172.572 63.5302L168.496 68.9804C167.896 69.7816 168.061 70.918 168.862 71.5161C169.665 72.1161 170.8 71.9511 171.398 71.15L175.434 65.7506C176.204 64.799 176.743 63.3943 176.748 61.9099C176.754 60.3185 176.165 58.7235 174.936 57.4729V51.0312C174.938 49.5305 176.155 48.3125 177.656 48.3125C179.157 48.3125 180.375 49.5305 180.375 51.0312V51.0312Z" fill="white"/>
<path d="M157.719 46.5C157.719 48.0008 156.501 49.2188 155 49.2188C153.499 49.2188 152.281 48.0008 152.281 46.5C152.281 44.9992 153.499 43.7812 155 43.7812C156.501 43.7812 157.719 44.9992 157.719 46.5Z" fill="white"/>
<path d="M166.822 35.2867C164.384 33.0047 159.847 33.5195 155.028 36.1947C150.187 33.4959 145.627 33.0047 143.182 35.2849C140.158 38.1069 141.84 42.9735 144.052 46.5006C141.837 50.0314 140.16 54.8979 143.18 57.7146C145.453 59.8406 149.134 59.3077 152.057 58.2039C150.81 57.4064 149.581 56.4694 148.374 55.4417C147.116 55.632 146.138 55.516 145.654 55.0629C144.497 53.9826 145.668 51.079 146.397 49.6743C153.092 57.5261 162.735 61.5262 166.822 57.7146C169.843 54.8925 168.163 50.0277 165.95 46.4988C168.163 42.9699 169.842 38.1033 166.822 35.2867V35.2867ZM164.348 37.9366C165.504 39.0168 164.333 41.9204 163.605 43.3251C162.137 41.6032 160.58 40.0735 158.55 38.5166C160.074 37.8586 163.141 36.8074 164.348 37.9366V37.9366ZM148.463 46.5006C149.844 44.7389 151.173 43.452 152.677 42.1959C151.314 41.3622 150.091 40.8148 149.099 40.5049C148.222 41.3151 147.446 42.0962 146.397 43.3251C145.665 41.915 144.499 39.0168 145.654 37.9347C147.76 35.9718 156.179 39.6657 161.539 46.5006C159.775 48.7499 157.567 50.8307 155.001 52.5381C152.601 50.9286 150.384 48.9511 148.463 46.5006ZM164.348 55.0665C163.52 55.8386 161.299 55.6864 158.515 54.4847C160.438 53.0256 161.925 51.6463 163.605 49.6761C164.337 51.0862 165.502 53.9844 164.348 55.0665Z" fill="white"/>
<line x1="309" y1="172" x2="309" y2="311" stroke="#FF1C6E" stroke-width="4"/>
<path d="M24 0H0V11H130V7L115 0H42V3H24V0Z" fill="#FF1C6E"/>
<path d="M287 322H311V311H181V315L196 322H231V314H235V322H239V314H243V322H247V314H251.074V322H269V319H287V322Z" fill="#FF1C6E"/>
</svg>
