<svg width="311" height="322" viewBox="0 0 311 322" fill="none" xmlns="http://www.w3.org/2000/svg">
<line x1="1.74846e-07" y1="313" x2="181" y2="313" stroke="#FF1C6E" stroke-width="4"/>
<line x1="98" y1="9" x2="311" y2="9.00002" stroke="#FF1C6E" stroke-width="4"/>
<rect width="311" height="300" transform="translate(0 11)" fill="#FF1C6E" fill-opacity="0.1"/>
<path d="M71.5929 163.3C70.1396 161.887 69.4129 160.12 69.4129 158C69.4129 155.88 70.1396 154.12 71.5929 152.72C73.0596 151.307 74.9329 150.6 77.2129 150.6C79.7329 150.6 81.7129 151.52 83.1529 153.36C83.7929 154.2 84.2462 155.113 84.5129 156.1H80.7129C80.5129 155.687 80.2662 155.34 79.9729 155.06C79.2662 154.353 78.3462 154 77.2129 154C76.0529 154 75.1129 154.367 74.3929 155.1C73.6729 155.833 73.3129 156.8 73.3129 158C73.3129 159.2 73.6729 160.167 74.3929 160.9C75.1129 161.633 76.0529 162 77.2129 162C78.4662 162 79.4396 161.6 80.1329 160.8C80.4529 160.44 80.6796 160.04 80.8129 159.6H84.6129C84.3196 160.68 83.8462 161.647 83.1929 162.5C81.7662 164.433 79.7729 165.4 77.2129 165.4C74.9329 165.4 73.0596 164.7 71.5929 163.3ZM86.2168 165V154.6H89.5168V156.1H89.7168C89.8368 155.78 90.0168 155.5 90.2568 155.26C90.8035 154.687 91.4701 154.4 92.2568 154.4H93.3168V157.7H91.6168C91.0168 157.7 90.5301 157.887 90.1568 158.26C89.7968 158.62 89.6168 159.1 89.6168 159.7V165H86.2168ZM93.8152 154.6H97.3152L99.1152 162.1H99.7152L101.715 154.6H105.215L101.215 168.8H97.7152L98.8152 165H96.5152L93.8152 154.6ZM106.119 168.8V154.6H109.519V156H109.719C109.906 155.693 110.159 155.413 110.479 155.16C111.212 154.587 111.992 154.3 112.819 154.3C114.099 154.3 115.186 154.807 116.079 155.82C116.972 156.82 117.419 158.147 117.419 159.8C117.419 161.453 116.972 162.787 116.079 163.8C115.186 164.8 114.099 165.3 112.819 165.3C111.979 165.3 111.199 165.02 110.479 164.46C110.159 164.207 109.906 163.92 109.719 163.6H109.519V168.8H106.119ZM110.119 157.88C109.719 158.333 109.519 158.973 109.519 159.8C109.519 160.627 109.719 161.267 110.119 161.72C110.519 162.173 111.052 162.4 111.719 162.4C112.386 162.4 112.919 162.173 113.319 161.72C113.719 161.267 113.919 160.627 113.919 159.8C113.919 158.973 113.719 158.333 113.319 157.88C112.919 157.427 112.386 157.2 111.719 157.2C111.052 157.2 110.519 157.427 110.119 157.88ZM118.31 157.3V154.6H119.61V152.4H123.01V154.6H125.71V157.3H123.01V162.3H125.91V165H119.61V157.3H118.31ZM128.588 163.68C127.468 162.6 126.908 161.307 126.908 159.8C126.908 158.293 127.468 157 128.588 155.92C129.708 154.84 131.082 154.3 132.708 154.3C134.335 154.3 135.708 154.84 136.828 155.92C137.948 157 138.508 158.293 138.508 159.8C138.508 161.307 137.948 162.6 136.828 163.68C135.708 164.76 134.335 165.3 132.708 165.3C131.082 165.3 129.708 164.76 128.588 163.68ZM131.048 157.92C130.622 158.387 130.408 159.013 130.408 159.8C130.408 160.587 130.622 161.22 131.048 161.7C131.488 162.167 132.042 162.4 132.708 162.4C133.375 162.4 133.922 162.167 134.348 161.7C134.788 161.22 135.008 160.587 135.008 159.8C135.008 159.013 134.788 158.387 134.348 157.92C133.922 157.44 133.375 157.2 132.708 157.2C132.042 157.2 131.488 157.44 131.048 157.92ZM141.886 163.3C140.433 161.887 139.706 160.12 139.706 158C139.706 155.88 140.433 154.12 141.886 152.72C143.353 151.307 145.226 150.6 147.506 150.6C150.026 150.6 152.006 151.52 153.446 153.36C154.086 154.2 154.539 155.113 154.806 156.1H151.006C150.806 155.687 150.559 155.34 150.266 155.06C149.559 154.353 148.639 154 147.506 154C146.346 154 145.406 154.367 144.686 155.1C143.966 155.833 143.606 156.8 143.606 158C143.606 159.2 143.966 160.167 144.686 160.9C145.406 161.633 146.346 162 147.506 162C148.759 162 149.733 161.6 150.426 160.8C150.746 160.44 150.973 160.04 151.106 159.6H154.906C154.613 160.68 154.139 161.647 153.486 162.5C152.059 164.433 150.066 165.4 147.506 165.4C145.226 165.4 143.353 164.7 141.886 163.3ZM156.51 165V154.6H159.81V156.1H160.01C160.13 155.78 160.31 155.5 160.55 155.26C161.096 154.687 161.763 154.4 162.55 154.4H163.61V157.7H161.91C161.31 157.7 160.823 157.887 160.45 158.26C160.09 158.62 159.91 159.1 159.91 159.7V165H156.51ZM166.068 163.68C164.962 162.6 164.408 161.307 164.408 159.8C164.408 158.293 164.962 157 166.068 155.92C167.175 154.84 168.522 154.3 170.108 154.3C171.722 154.3 173.075 154.84 174.168 155.92C175.262 157 175.808 158.293 175.808 159.8V160.4H167.908C168.015 161.107 168.255 161.653 168.628 162.04C169.015 162.413 169.508 162.6 170.108 162.6C170.815 162.6 171.348 162.42 171.708 162.06C171.868 161.913 172.002 161.727 172.108 161.5H175.708C175.468 162.233 175.108 162.867 174.628 163.4C173.575 164.667 172.068 165.3 170.108 165.3C168.522 165.3 167.175 164.76 166.068 163.68ZM168.008 158.7H172.208C172.088 158.22 171.842 157.82 171.468 157.5C171.095 157.167 170.642 157 170.108 157C169.575 157 169.122 157.167 168.748 157.5C168.375 157.82 168.128 158.22 168.008 158.7ZM178.348 163.8C177.455 162.787 177.008 161.453 177.008 159.8C177.008 158.147 177.455 156.82 178.348 155.82C179.242 154.807 180.328 154.3 181.608 154.3C182.435 154.3 183.215 154.587 183.948 155.16C184.255 155.413 184.508 155.693 184.708 156H184.908V154.6H188.308V165H184.908V163.6H184.708C184.522 163.92 184.268 164.207 183.948 164.46C183.228 165.02 182.448 165.3 181.608 165.3C180.328 165.3 179.242 164.8 178.348 163.8ZM181.108 157.88C180.708 158.333 180.508 158.973 180.508 159.8C180.508 160.627 180.708 161.267 181.108 161.72C181.508 162.173 182.042 162.4 182.708 162.4C183.375 162.4 183.908 162.173 184.308 161.72C184.708 161.267 184.908 160.627 184.908 159.8C184.908 158.973 184.708 158.333 184.308 157.88C183.908 157.427 183.375 157.2 182.708 157.2C182.042 157.2 181.508 157.427 181.108 157.88ZM189.599 157.3V154.6H190.899V152.4H194.299V154.6H196.999V157.3H194.299V162.3H197.199V165H190.899V157.3H189.599ZM198.697 161V154.6H202.097V160.5C202.097 161.1 202.257 161.567 202.577 161.9C202.897 162.233 203.337 162.4 203.897 162.4C204.471 162.4 204.944 162.193 205.317 161.78C205.704 161.353 205.897 160.793 205.897 160.1V154.6H209.297V165H205.897V163.6H205.697C205.524 163.933 205.284 164.22 204.977 164.46C204.311 165.02 203.517 165.3 202.597 165.3C201.371 165.3 200.411 164.933 199.717 164.2C199.037 163.453 198.697 162.387 198.697 161ZM211.295 165V154.6H214.595V156.1H214.795C214.915 155.78 215.095 155.5 215.335 155.26C215.882 154.687 216.548 154.4 217.335 154.4H218.395V157.7H216.695C216.095 157.7 215.608 157.887 215.235 158.26C214.875 158.62 214.695 159.1 214.695 159.7V165H211.295ZM220.853 163.68C219.747 162.6 219.193 161.307 219.193 159.8C219.193 158.293 219.747 157 220.853 155.92C221.96 154.84 223.307 154.3 224.893 154.3C226.507 154.3 227.86 154.84 228.953 155.92C230.047 157 230.593 158.293 230.593 159.8V160.4H222.693C222.8 161.107 223.04 161.653 223.413 162.04C223.8 162.413 224.293 162.6 224.893 162.6C225.6 162.6 226.133 162.42 226.493 162.06C226.653 161.913 226.787 161.727 226.893 161.5H230.493C230.253 162.233 229.893 162.867 229.413 163.4C228.36 164.667 226.853 165.3 224.893 165.3C223.307 165.3 221.96 164.76 220.853 163.68ZM222.793 158.7H226.993C226.873 158.22 226.627 157.82 226.253 157.5C225.88 157.167 225.427 157 224.893 157C224.36 157 223.907 157.167 223.533 157.5C223.16 157.82 222.913 158.22 222.793 158.7ZM231.593 161.6H234.993C235.047 161.8 235.16 161.987 235.333 162.16C235.693 162.52 236.213 162.7 236.893 162.7C237.827 162.7 238.293 162.467 238.293 162C238.293 161.787 238.16 161.62 237.893 161.5C237.627 161.367 237.227 161.233 236.693 161.1C236.253 160.993 235.967 160.927 235.833 160.9C235.7 160.873 235.42 160.8 234.993 160.68C234.567 160.547 234.26 160.433 234.073 160.34C233.9 160.233 233.653 160.087 233.333 159.9C233.027 159.7 232.8 159.5 232.653 159.3C232.52 159.087 232.393 158.827 232.273 158.52C232.153 158.2 232.093 157.86 232.093 157.5C232.093 156.62 232.487 155.867 233.273 155.24C234.06 154.613 235.167 154.3 236.593 154.3C238.38 154.3 239.793 154.887 240.833 156.06C241.247 156.567 241.533 157.147 241.693 157.8H238.393C238.313 157.587 238.22 157.42 238.113 157.3C237.807 156.967 237.367 156.8 236.793 156.8C235.993 156.8 235.593 157.033 235.593 157.5C235.593 157.727 235.727 157.9 235.993 158.02C236.26 158.14 236.667 158.253 237.213 158.36C238.587 158.68 239.513 158.96 239.993 159.2C241.193 159.787 241.793 160.687 241.793 161.9C241.793 162.86 241.367 163.667 240.513 164.32C239.673 164.973 238.467 165.3 236.893 165.3C234.96 165.3 233.487 164.687 232.473 163.46C232.02 162.913 231.727 162.293 231.593 161.6ZM68.7492 177H72.4492L74.2492 186.8H74.4492L76.3292 177H80.7692L82.6492 186.8H82.8492L84.6492 177H88.3492L85.4492 191H80.4492L78.6492 181.6H78.4492L76.6492 191H71.6492L68.7492 177ZM90.1991 189.68C89.0924 188.6 88.5391 187.307 88.5391 185.8C88.5391 184.293 89.0924 183 90.1991 181.92C91.3057 180.84 92.6524 180.3 94.2391 180.3C95.8524 180.3 97.2057 180.84 98.2991 181.92C99.3924 183 99.9391 184.293 99.9391 185.8V186.4H92.0391C92.1457 187.107 92.3857 187.653 92.7591 188.04C93.1457 188.413 93.6391 188.6 94.2391 188.6C94.9457 188.6 95.4791 188.42 95.8391 188.06C95.9991 187.913 96.1324 187.727 96.2391 187.5H99.8391C99.5991 188.233 99.2391 188.867 98.7591 189.4C97.7057 190.667 96.1991 191.3 94.2391 191.3C92.6524 191.3 91.3057 190.76 90.1991 189.68ZM92.1391 184.7H96.3391C96.2191 184.22 95.9724 183.82 95.5991 183.5C95.2257 183.167 94.7724 183 94.2391 183C93.7057 183 93.2524 183.167 92.8791 183.5C92.5057 183.82 92.2591 184.22 92.1391 184.7ZM101.539 191V177H104.939V182H105.139C105.326 181.693 105.579 181.413 105.899 181.16C106.632 180.587 107.412 180.3 108.239 180.3C109.519 180.3 110.606 180.807 111.499 181.82C112.392 182.82 112.839 184.147 112.839 185.8C112.839 187.453 112.392 188.787 111.499 189.8C110.606 190.8 109.519 191.3 108.239 191.3C107.399 191.3 106.619 191.02 105.899 190.46C105.579 190.207 105.326 189.92 105.139 189.6H104.939V191H101.539ZM105.539 183.88C105.139 184.333 104.939 184.973 104.939 185.8C104.939 186.627 105.139 187.267 105.539 187.72C105.939 188.173 106.472 188.4 107.139 188.4C107.806 188.4 108.339 188.173 108.739 187.72C109.139 187.267 109.339 186.627 109.339 185.8C109.339 184.973 109.139 184.333 108.739 183.88C108.339 183.427 107.806 183.2 107.139 183.2C106.472 183.2 105.939 183.427 105.539 183.88ZM115.57 189.68C114.476 188.587 113.93 187.293 113.93 185.8C113.93 184.307 114.476 183.02 115.57 181.94C116.663 180.847 117.983 180.3 119.53 180.3C121.463 180.3 122.976 181.02 124.07 182.46C124.523 183.1 124.843 183.813 125.03 184.6H121.53C121.45 184.4 121.303 184.167 121.09 183.9C120.65 183.433 120.13 183.2 119.53 183.2C118.943 183.2 118.443 183.44 118.03 183.92C117.63 184.4 117.43 185.027 117.43 185.8C117.43 186.573 117.63 187.2 118.03 187.68C118.443 188.16 118.943 188.4 119.53 188.4C120.223 188.4 120.756 188.167 121.13 187.7C121.276 187.527 121.41 187.293 121.53 187H125.03C124.843 187.8 124.523 188.52 124.07 189.16C123.016 190.587 121.503 191.3 119.53 191.3C117.983 191.3 116.663 190.76 115.57 189.68ZM127.719 189.68C126.599 188.6 126.039 187.307 126.039 185.8C126.039 184.293 126.599 183 127.719 181.92C128.839 180.84 130.212 180.3 131.839 180.3C133.466 180.3 134.839 180.84 135.959 181.92C137.079 183 137.639 184.293 137.639 185.8C137.639 187.307 137.079 188.6 135.959 189.68C134.839 190.76 133.466 191.3 131.839 191.3C130.212 191.3 128.839 190.76 127.719 189.68ZM130.179 183.92C129.752 184.387 129.539 185.013 129.539 185.8C129.539 186.587 129.752 187.22 130.179 187.7C130.619 188.167 131.172 188.4 131.839 188.4C132.506 188.4 133.052 188.167 133.479 187.7C133.919 187.22 134.139 186.587 134.139 185.8C134.139 185.013 133.919 184.387 133.479 183.92C133.052 183.44 132.506 183.2 131.839 183.2C131.172 183.2 130.619 183.44 130.179 183.92ZM139.137 191V180.6H142.537V182H142.737C142.923 181.667 143.15 181.387 143.417 181.16C144.07 180.587 144.843 180.3 145.737 180.3C146.817 180.3 147.69 180.62 148.357 181.26C148.637 181.527 148.863 181.84 149.037 182.2H149.237C149.397 181.853 149.617 181.54 149.897 181.26C150.537 180.62 151.383 180.3 152.437 180.3C153.663 180.3 154.617 180.673 155.297 181.42C155.99 182.153 156.337 183.213 156.337 184.6V191H152.937V185.1C152.937 183.833 152.403 183.2 151.337 183.2C150.763 183.2 150.303 183.393 149.957 183.78C149.61 184.167 149.437 184.707 149.437 185.4V191H146.037V185.1C146.037 183.833 145.503 183.2 144.437 183.2C143.863 183.2 143.403 183.393 143.057 183.78C142.71 184.167 142.537 184.707 142.537 185.4V191H139.137ZM158.138 177.8C158.138 177.32 158.318 176.92 158.678 176.6C159.038 176.267 159.492 176.1 160.038 176.1C160.585 176.1 161.038 176.267 161.398 176.6C161.758 176.92 161.938 177.32 161.938 177.8C161.938 178.267 161.758 178.667 161.398 179C161.038 179.333 160.585 179.5 160.038 179.5C159.492 179.5 159.038 179.333 158.678 179C158.318 178.667 158.138 178.267 158.138 177.8ZM158.338 191V180.6H161.738V191H158.338ZM164.984 189.68C163.89 188.587 163.344 187.293 163.344 185.8C163.344 184.307 163.89 183.02 164.984 181.94C166.077 180.847 167.397 180.3 168.944 180.3C170.877 180.3 172.39 181.02 173.484 182.46C173.937 183.1 174.257 183.813 174.444 184.6H170.944C170.864 184.4 170.717 184.167 170.504 183.9C170.064 183.433 169.544 183.2 168.944 183.2C168.357 183.2 167.857 183.44 167.444 183.92C167.044 184.4 166.844 185.027 166.844 185.8C166.844 186.573 167.044 187.2 167.444 187.68C167.857 188.16 168.357 188.4 168.944 188.4C169.637 188.4 170.17 188.167 170.544 187.7C170.69 187.527 170.824 187.293 170.944 187H174.444C174.257 187.8 173.937 188.52 173.484 189.16C172.43 190.587 170.917 191.3 168.944 191.3C167.397 191.3 166.077 190.76 164.984 189.68ZM183.459 189.24C181.992 187.787 181.259 186.04 181.259 184C181.259 181.96 181.992 180.22 183.459 178.78C184.939 177.327 186.805 176.6 189.059 176.6C191.312 176.6 193.172 177.327 194.639 178.78C196.119 180.22 196.859 181.96 196.859 184C196.859 186.04 196.119 187.787 194.639 189.24C193.172 190.68 191.312 191.4 189.059 191.4C186.805 191.4 184.939 190.68 183.459 189.24ZM186.239 181.1C185.519 181.833 185.159 182.8 185.159 184C185.159 185.2 185.519 186.167 186.239 186.9C186.959 187.633 187.899 188 189.059 188C190.219 188 191.159 187.633 191.879 186.9C192.599 186.167 192.959 185.2 192.959 184C192.959 182.8 192.599 181.833 191.879 181.1C191.159 180.367 190.219 180 189.059 180C187.899 180 186.959 180.367 186.239 181.1ZM198.551 191V180.6H201.851V182.1H202.051C202.171 181.78 202.351 181.5 202.591 181.26C203.137 180.687 203.804 180.4 204.591 180.4H205.651V183.7H203.951C203.351 183.7 202.864 183.887 202.491 184.26C202.131 184.62 201.951 185.1 201.951 185.7V191H198.551ZM206.849 177.8C206.849 177.32 207.029 176.92 207.389 176.6C207.749 176.267 208.203 176.1 208.749 176.1C209.296 176.1 209.749 176.267 210.109 176.6C210.469 176.92 210.649 177.32 210.649 177.8C210.649 178.267 210.469 178.667 210.109 179C209.749 179.333 209.296 179.5 208.749 179.5C208.203 179.5 207.749 179.333 207.389 179C207.029 178.667 206.849 178.267 206.849 177.8ZM207.049 191V180.6H210.449V191H207.049ZM213.495 189.42C212.601 188.433 212.155 187.16 212.155 185.6C212.155 184.04 212.601 182.767 213.495 181.78C214.388 180.793 215.475 180.3 216.755 180.3C217.675 180.3 218.468 180.567 219.135 181.1C219.441 181.34 219.681 181.607 219.855 181.9H220.055V180.6H223.455V194.8H213.555V192.1H220.055V189.4H219.855C219.668 189.693 219.428 189.947 219.135 190.16C218.481 190.653 217.688 190.9 216.755 190.9C215.475 190.9 214.388 190.407 213.495 189.42ZM216.255 183.84C215.855 184.267 215.655 184.853 215.655 185.6C215.655 186.347 215.855 186.933 216.255 187.36C216.655 187.787 217.188 188 217.855 188C218.521 188 219.055 187.787 219.455 187.36C219.855 186.933 220.055 186.347 220.055 185.6C220.055 184.853 219.855 184.267 219.455 183.84C219.055 183.413 218.521 183.2 217.855 183.2C217.188 183.2 216.655 183.413 216.255 183.84ZM225.345 177.8C225.345 177.32 225.525 176.92 225.885 176.6C226.245 176.267 226.699 176.1 227.245 176.1C227.792 176.1 228.245 176.267 228.605 176.6C228.965 176.92 229.145 177.32 229.145 177.8C229.145 178.267 228.965 178.667 228.605 179C228.245 179.333 227.792 179.5 227.245 179.5C226.699 179.5 226.245 179.333 225.885 179C225.525 178.667 225.345 178.267 225.345 177.8ZM225.545 191V180.6H228.945V191H225.545ZM231.051 191V180.6H234.451V182H234.651C234.837 181.68 235.077 181.4 235.371 181.16C236.051 180.587 236.844 180.3 237.751 180.3C238.977 180.3 239.931 180.673 240.611 181.42C241.304 182.153 241.651 183.213 241.651 184.6V191H238.251V185.1C238.251 184.5 238.091 184.033 237.771 183.7C237.451 183.367 237.011 183.2 236.451 183.2C235.877 183.2 235.397 183.413 235.011 183.84C234.637 184.253 234.451 184.807 234.451 185.5V191H231.051ZM112.405 217V203H116.105V213.6H122.805V217H112.405ZM123 217L126.8 203H133.6L137.4 217H133.6L132.9 214.2H127.5L126.8 217H123ZM128.3 211H132.1L130.9 206.4H129.5L128.3 211ZM138.595 211.4V203H142.295V211.3C142.295 212.14 142.528 212.8 142.995 213.28C143.461 213.76 144.095 214 144.895 214C145.695 214 146.328 213.76 146.795 213.28C147.261 212.8 147.495 212.14 147.495 211.3V203H151.195V211.4C151.195 213.213 150.628 214.667 149.495 215.76C148.361 216.853 146.828 217.4 144.895 217.4C142.961 217.4 141.428 216.853 140.295 215.76C139.161 214.667 138.595 213.213 138.595 211.4ZM153.695 217V203H158.195L163.095 211.8H163.295L162.995 210V203H166.695V217H162.195L157.295 208.2H157.095L157.395 210V217H153.695ZM170.88 215.3C169.427 213.887 168.7 212.12 168.7 210C168.7 207.88 169.427 206.12 170.88 204.72C172.347 203.307 174.22 202.6 176.5 202.6C179.02 202.6 181 203.52 182.44 205.36C183.08 206.2 183.533 207.113 183.8 208.1H180C179.8 207.687 179.553 207.34 179.26 207.06C178.553 206.353 177.633 206 176.5 206C175.34 206 174.4 206.367 173.68 207.1C172.96 207.833 172.6 208.8 172.6 210C172.6 211.2 172.96 212.167 173.68 212.9C174.4 213.633 175.34 214 176.5 214C177.753 214 178.727 213.6 179.42 212.8C179.74 212.44 179.967 212.04 180.1 211.6H183.9C183.607 212.68 183.133 213.647 182.48 214.5C181.053 216.433 179.06 217.4 176.5 217.4C174.22 217.4 172.347 216.7 170.88 215.3ZM185.804 217V203H189.504V208.2H194.904V203H198.604V217H194.904V211.6H189.504V217H185.804Z" fill="white"/>
<path d="M92.9233 126V109.2H98.3233L104.203 119.76H104.443L104.083 117.6V109.2H108.523V126H103.123L97.2433 115.44H97.0033L97.3633 117.6V126H92.9233ZM111.65 126V109.2H124.37V113.28H116.09V116.52H122.45V120.36H116.09V126H111.65ZM125.213 113.28V109.2H140.213V113.28H134.933V126H130.493V113.28H125.213ZM147.533 126V109.2H154.037C156.805 109.2 159.053 110.008 160.781 111.624C162.509 113.224 163.373 115.216 163.373 117.6C163.373 119.984 162.509 121.984 160.781 123.6C159.053 125.2 156.805 126 154.037 126H147.533ZM151.973 121.92H154.013C155.501 121.92 156.653 121.536 157.469 120.768C158.285 120 158.693 118.944 158.693 117.6C158.693 116.256 158.285 115.2 157.469 114.432C156.653 113.664 155.501 113.28 154.013 113.28H151.973V121.92ZM165.767 126V109.2H174.167C176.167 109.2 177.783 109.768 179.015 110.904C180.263 112.024 180.887 113.416 180.887 115.08C180.887 117.24 179.767 118.92 177.527 120.12L181.007 126H176.207L173.207 120.96H170.207V126H165.767ZM170.207 116.88H174.047C174.735 116.88 175.287 116.704 175.703 116.352C176.119 116 176.327 115.576 176.327 115.08C176.327 114.584 176.119 114.16 175.703 113.808C175.287 113.456 174.735 113.28 174.047 113.28H170.207V116.88ZM185.335 123.888C183.575 122.144 182.695 120.048 182.695 117.6C182.695 115.152 183.575 113.064 185.335 111.336C187.111 109.592 189.351 108.72 192.055 108.72C194.759 108.72 196.991 109.592 198.751 111.336C200.527 113.064 201.415 115.152 201.415 117.6C201.415 120.048 200.527 122.144 198.751 123.888C196.991 125.616 194.759 126.48 192.055 126.48C189.351 126.48 187.111 125.616 185.335 123.888ZM188.671 114.12C187.807 115 187.375 116.16 187.375 117.6C187.375 119.04 187.807 120.2 188.671 121.08C189.535 121.96 190.663 122.4 192.055 122.4C193.447 122.4 194.575 121.96 195.439 121.08C196.303 120.2 196.735 119.04 196.735 117.6C196.735 116.16 196.303 115 195.439 114.12C194.575 113.24 193.447 112.8 192.055 112.8C190.663 112.8 189.535 113.24 188.671 114.12ZM203.806 126V109.2H211.966C214.03 109.2 215.702 109.792 216.982 110.976C218.278 112.144 218.926 113.592 218.926 115.32C218.926 117.048 218.278 118.504 216.982 119.688C215.702 120.856 214.03 121.44 211.966 121.44H208.246V126H203.806ZM208.246 117.36H211.846C212.678 117.36 213.302 117.176 213.718 116.808C214.15 116.44 214.366 115.944 214.366 115.32C214.366 114.696 214.15 114.2 213.718 113.832C213.302 113.464 212.678 113.28 211.846 113.28H208.246V117.36Z" fill="white"/>
<path d="M134.199 51.8247V66.1791C134.201 67.5909 134.578 68.977 135.289 70.1962C136.001 71.4154 137.024 72.4242 138.252 73.1199L151.052 80.3623C152.26 81.0309 153.618 81.3817 154.999 81.3817C156.38 81.3817 157.738 81.0309 158.946 80.3623L171.746 73.1199C172.974 72.4242 173.996 71.4154 174.708 70.1962C175.42 68.977 175.797 67.591 175.799 66.1791V51.8247C175.797 50.4129 175.421 49.0268 174.709 47.8076C173.997 46.5884 172.975 45.5796 171.746 44.8839L158.946 37.6407C157.742 36.9596 156.382 36.6016 154.998 36.6016C153.615 36.6016 152.255 36.9596 151.05 37.6407L138.25 44.8831C137.022 45.5792 136 46.5882 135.289 47.8076C134.577 49.0269 134.201 50.4129 134.199 51.8247V51.8247ZM139.434 46.9719L152.234 39.7295C153.078 39.2548 154.03 39.0054 154.999 39.0054C155.967 39.0054 156.92 39.2548 157.764 39.7295L170.564 46.9719C171.423 47.4581 172.138 48.1633 172.636 49.0158C173.134 49.8682 173.398 50.8374 173.399 51.8247V66.1791C173.398 67.1663 173.134 68.1353 172.636 68.9876C172.138 69.84 171.423 70.545 170.564 71.0311L157.764 78.2735C156.92 78.7482 155.967 78.9976 154.999 78.9976C154.03 78.9976 153.078 78.7482 152.234 78.2735L139.434 71.0311C138.575 70.5448 137.86 69.8396 137.362 68.9873C136.864 68.1351 136.601 67.1661 136.599 66.1791V51.8247C136.601 50.8376 136.864 49.8685 137.362 49.0161C137.86 48.1637 138.575 47.4584 139.434 46.9719V46.9719Z" fill="white"/>
<path d="M140.222 69.6385L153.022 76.8809C153.626 77.2195 154.307 77.3974 155 77.3974C155.692 77.3974 156.373 77.2195 156.977 76.8809L169.777 69.6385C170.39 69.2915 170.9 68.7883 171.255 68.1801C171.61 67.5719 171.798 66.8804 171.799 66.1761V51.8217C171.798 51.1171 171.611 50.4255 171.255 49.8171C170.9 49.2087 170.39 48.7054 169.777 48.3585L156.977 41.1153C156.373 40.7759 155.692 40.5977 155 40.5977C154.307 40.5977 153.626 40.7759 153.022 41.1153L140.222 48.3585C139.609 48.7052 139.099 49.2085 138.743 49.8169C138.388 50.4253 138.2 51.1171 138.199 51.8217V66.1761C138.2 66.8805 138.388 67.5721 138.744 68.1803C139.099 68.7885 139.609 69.2917 140.222 69.6385V69.6385ZM161.399 51.7985H167.799C168.011 51.7985 168.215 51.8827 168.365 52.0328C168.515 52.1828 168.599 52.3863 168.599 52.5985C168.599 52.8106 168.515 53.0141 168.365 53.1641C168.215 53.3142 168.011 53.3985 167.799 53.3985H165.399V65.3985C165.399 65.6106 165.315 65.8141 165.165 65.9642C165.015 66.1142 164.811 66.1985 164.599 66.1985C164.387 66.1985 164.184 66.1142 164.034 65.9642C163.884 65.8141 163.799 65.6106 163.799 65.3985V53.3985H161.399C161.187 53.3985 160.984 53.3142 160.834 53.1641C160.684 53.0141 160.599 52.8106 160.599 52.5985C160.599 52.3863 160.684 52.1828 160.834 52.0328C160.984 51.8827 161.187 51.7985 161.399 51.7985ZM151.799 52.5985C151.799 52.3863 151.884 52.1828 152.034 52.0328C152.184 51.8827 152.387 51.7985 152.599 51.7985H158.999C159.211 51.7985 159.415 51.8827 159.565 52.0328C159.715 52.1828 159.799 52.3863 159.799 52.5985C159.799 52.8106 159.715 53.0141 159.565 53.1641C159.415 53.3142 159.211 53.3985 158.999 53.3985H153.399V58.1985H156.599C156.811 58.1985 157.015 58.2827 157.165 58.4328C157.315 58.5828 157.399 58.7863 157.399 58.9985C157.399 59.2106 157.315 59.4141 157.165 59.5641C157.015 59.7142 156.811 59.7985 156.599 59.7985H153.399V65.3985C153.399 65.6106 153.315 65.8141 153.165 65.9642C153.015 66.1142 152.811 66.1985 152.599 66.1985C152.387 66.1985 152.184 66.1142 152.034 65.9642C151.884 65.8141 151.799 65.6106 151.799 65.3985V52.5985ZM141.399 52.5985C141.399 52.4181 141.46 52.243 141.572 52.1015C141.684 51.96 141.84 51.8605 142.016 51.8191C142.191 51.7777 142.375 51.7968 142.539 51.8734C142.702 51.9499 142.835 52.0794 142.915 52.2409L147.799 62.0097V52.5985C147.799 52.3863 147.884 52.1828 148.034 52.0328C148.184 51.8827 148.387 51.7985 148.599 51.7985C148.811 51.7985 149.015 51.8827 149.165 52.0328C149.315 52.1828 149.399 52.3863 149.399 52.5985V65.3985C149.399 65.5788 149.339 65.7538 149.227 65.8952C149.115 66.0367 148.959 66.1362 148.783 66.1777C148.723 66.1912 148.661 66.1982 148.599 66.1985C148.451 66.1985 148.305 66.1572 148.178 66.079C148.052 66.0009 147.95 65.8891 147.883 65.7561L142.999 55.9873V65.3985C142.999 65.6106 142.915 65.8141 142.765 65.9642C142.615 66.1142 142.411 66.1985 142.199 66.1985C141.987 66.1985 141.784 66.1142 141.634 65.9642C141.484 65.8141 141.399 65.6106 141.399 65.3985V52.5985Z" fill="white"/>
<path d="M133.924 275.973L149.375 263.615V270.945C149.375 272.328 148.889 273.512 147.916 274.496C146.932 275.48 145.748 275.973 144.365 275.973H133.924ZM144.734 260.891L129.283 273.266V265.918C129.283 264.535 129.775 263.352 130.76 262.367C131.744 261.383 132.928 260.891 134.311 260.891H144.734ZM124.256 281H144.365C147.131 281 149.498 280.016 151.467 278.047C153.424 276.09 154.402 273.723 154.402 270.945V255.881H134.311C131.533 255.881 129.166 256.859 127.209 258.816C125.24 260.785 124.256 263.152 124.256 265.918V281ZM158.111 255.881V260.891H178.221C178.912 260.891 179.504 261.137 179.996 261.629C180.488 262.121 180.734 262.713 180.734 263.404C180.734 264.096 180.488 264.688 179.996 265.18C179.504 265.672 178.912 265.918 178.221 265.918H164.387V270.945H178.221C178.912 270.945 179.504 271.191 179.996 271.684C180.488 272.176 180.734 272.768 180.734 273.459V275.973H158.111V281H185.744V273.459C185.744 271.537 185.105 269.861 183.828 268.432C185.105 267.002 185.744 265.326 185.744 263.404C185.744 261.33 185.012 259.555 183.547 258.078C182.07 256.613 180.295 255.881 178.221 255.881H158.111Z" fill="#1CE4FF"/>
<path d="M24 0H0V11H130V7L115 0H42V3H24V0Z" fill="#FF1C6E"/>
<path d="M287 322H311V311H181V315L196 322H231V314H235V322H239V314H243V322H247V314H251.074V322H269V319H287V322Z" fill="#FF1C6E"/>
</svg>
